<svg width="17" height="20" viewBox="0 0 17 20" fill="none" xmlns="http://www.w3.org/2000/svg">
<g clip-path="url(#clip0_483_5640)">
<path d="M15.9573 6.818C15.8413 6.908 13.7933 8.062 13.7933 10.628C13.7933 13.596 16.3993 14.646 16.4773 14.672C16.4653 14.736 16.0633 16.11 15.1033 17.51C14.2473 18.742 13.3533 19.972 11.9933 19.972C10.6333 19.972 10.2833 19.182 8.71331 19.182C7.18331 19.182 6.63931 19.998 5.39531 19.998C4.15131 19.998 3.28331 18.858 2.28531 17.458C1.12931 15.814 0.195312 13.26 0.195312 10.836C0.195312 6.948 2.72331 4.886 5.21131 4.886C6.53331 4.886 7.63531 5.754 8.46531 5.754C9.25531 5.754 10.4873 4.834 11.9913 4.834C12.5613 4.834 14.6093 4.886 15.9573 6.818ZM11.2773 3.188C11.8993 2.45 12.3393 1.426 12.3393 0.402C12.3393 0.26 12.3273 0.116 12.3013 0C11.2893 0.038 10.0853 0.674 9.35931 1.516C8.78931 2.164 8.25731 3.188 8.25731 4.226C8.25731 4.382 8.28331 4.538 8.29531 4.588C8.35931 4.6 8.46331 4.614 8.56731 4.614C9.47531 4.614 10.6173 4.006 11.2773 3.188Z" fill="black"/>
</g>
<defs>
<clipPath id="clip0_483_5640">
<rect width="16.28" height="20" fill="white" transform="translate(0.195312)"/>
</clipPath>
</defs>
</svg>
