<svg width="48" height="48" viewBox="0 0 48 48" fill="none" xmlns="http://www.w3.org/2000/svg">
<path d="M26.5197 9.25969L30.1196 12.2985C30.5563 12.6672 31.2058 12.6267 31.5935 12.2068L34.2312 9.34931C34.6443 8.90175 34.6002 8.20003 34.1344 7.80769L30.5784 4.81313C30.3704 4.63796 30.1034 4.54872 29.8319 4.5636C29.5603 4.57847 29.3047 4.69635 29.1171 4.89319L26.4357 7.70653C26.0111 8.15184 26.0497 8.86284 26.5197 9.25969Z" fill="#0ED290"/>
<path d="M34.1343 7.80769L30.5782 4.81303C30.3702 4.63787 30.1032 4.54863 29.8317 4.56351C29.5602 4.57838 29.3045 4.69626 29.1169 4.8931L28.5195 5.51981L31.2363 7.8076C31.7022 8.19994 31.7462 8.90175 31.3332 9.34922L29.2715 11.5827L30.1195 12.2985C30.5563 12.6671 31.2057 12.6267 31.5934 12.2068L34.2312 9.34931C34.6442 8.90185 34.6002 8.20003 34.1343 7.80769Z" fill="#00C285"/>
<path d="M47.8951 20.0158C47.489 17.3675 45.8311 14.292 40.3211 14.292C32.5596 14.292 27.4035 21.2513 25.667 24.0052C25.3928 24.44 24.7419 24.3792 24.5544 23.9007C24.0538 22.6231 23.3227 20.8341 22.5773 19.2812C22.2436 18.5861 21.3014 18.4706 20.8063 19.0616L18.2094 22.1611C18.0872 22.307 18.0064 22.483 17.9755 22.6709C17.9446 22.8587 17.9646 23.0513 18.0337 23.2287L21.0781 31.0546C21.1336 31.1969 21.158 31.3495 21.1496 31.5021C21.1411 31.6546 21.1001 31.8036 21.0292 31.9389C20.3513 33.2309 17.9451 36.8094 12.0871 36.8094C5.21887 36.8094 3.03009 31.7702 5.52047 25.15C5.70075 24.6709 5.51916 24.1311 5.08238 23.8641L4.38797 23.4397C3.88744 23.1337 3.23391 23.2907 2.92781 23.791C1.93059 25.4215 0 29.088 0 33.0405C0 38.3692 3.11925 43.438 11.6972 43.438C19.7651 43.438 24.5176 38.5655 25.4852 34.0261C25.5912 33.5288 26.025 33.1704 26.5335 33.1704H35.7347C42.0677 33.1072 45.4015 28.6615 46.8606 25.9094C47.8185 24.1025 48.2051 22.0374 47.8951 20.0158ZM43.2749 23.2169C42.8012 23.8861 41.0498 25.8141 36.0393 26.9289C32.6166 27.6906 30.7675 27.6776 29.9264 27.5884C29.6272 27.5567 29.4501 27.2392 29.5781 26.967C30.3228 25.3835 32.8727 20.6898 37.0738 20.3409C41.2527 19.994 42.8598 22.0199 43.2927 22.7362C43.337 22.8093 43.3589 22.8938 43.3557 22.9792C43.3526 23.0646 43.3245 23.1473 43.2749 23.2169Z" fill="#0ED290"/>
<path d="M47.8961 20.0158C47.6499 18.4105 46.9435 16.6485 45.1983 15.5093C45.4924 16.165 45.6703 16.8477 45.771 17.5043C46.081 19.5259 45.9871 22.7797 45.0291 24.5867C43.5701 27.3388 39.9436 30.5956 33.6106 30.659H24.4094C23.901 30.659 23.4671 31.0174 23.3611 31.5146C22.3935 36.054 17.641 40.9266 9.57306 40.9266C5.86994 40.9266 3.18484 39.9814 1.32812 38.4789C2.96116 41.3661 6.21391 43.4381 11.6982 43.4381C19.7661 43.4381 24.5186 38.5656 25.4862 34.0262C25.5922 33.5289 26.026 33.1705 26.5345 33.1705H35.7357C42.0687 33.1073 45.4025 28.6616 46.8616 25.9095C47.8195 24.1025 48.2061 22.0374 47.8961 20.0158Z" fill="#00C285"/>
</svg>
