<svg width="64" height="64" viewBox="0 0 64 64" fill="none" xmlns="http://www.w3.org/2000/svg">
<circle cx="32" cy="32" r="32" fill="white"/>
<path d="M18.0034 40.1733H36.4445C36.5158 40.1733 36.5863 40.1874 36.6521 40.2146C36.7179 40.2419 36.7777 40.2818 36.8281 40.3322C36.8784 40.3826 36.9184 40.4423 36.9456 40.5081C36.9729 40.5739 36.9869 40.6445 36.9869 40.7157V43.4276C36.9869 45.824 35.0442 47.7666 32.6478 47.7666H21.8001C19.4036 47.7666 17.4609 45.824 17.4609 43.4276V40.7157C17.461 40.5718 17.5181 40.4339 17.6199 40.3322C17.7216 40.2305 17.8595 40.1734 18.0034 40.1733Z" fill="#E57E25"/>
<path d="M38.0867 20.1056C37.9429 20.1056 37.8049 20.0485 37.7032 19.9468C37.6015 19.845 37.5443 19.7071 37.5443 19.5633V16.8514H34.8324C34.6895 16.8498 34.5531 16.792 34.4526 16.6904C34.3522 16.5889 34.2958 16.4518 34.2958 16.309C34.2958 16.1661 34.3522 16.0291 34.4526 15.9275C34.5531 15.826 34.6895 15.7681 34.8324 15.7666H37.5443C38.1435 15.7666 38.6291 16.2523 38.6291 16.8514V19.5633C38.6291 19.7071 38.5719 19.845 38.4702 19.9467C38.3685 20.0484 38.2305 20.1056 38.0867 20.1056ZM45.6633 23.9022L43.0447 47.7666H32.646L30.0273 23.9022H45.6633Z" fill="#4482C3"/>
<path d="M31.6551 19.563H44.0367C44.6359 19.563 45.1215 20.0486 45.1215 20.6478V22.8172H30.5703V20.6478C30.5703 20.0486 31.056 19.563 31.6551 19.563Z" fill="#E6E7E8"/>
<path d="M30.03 21.7324H45.666C46.2651 21.7324 46.7508 22.2181 46.7508 22.8172V23.9019C46.7508 24.0457 46.6937 24.1837 46.592 24.2854C46.4902 24.3871 46.3523 24.4442 46.2084 24.4442H29.4877C29.3438 24.4442 29.2059 24.3871 29.1042 24.2854C29.0025 24.1837 28.9453 24.0457 28.9453 23.9019V22.8171C28.9452 22.2181 29.4309 21.7324 30.03 21.7324Z" fill="#D1D4D1"/>
<path d="M38.6132 38.0043L39.1556 39.0891L19.0872 38.5467V38.0043C19.0872 38.0043 18.5449 35.8348 21.2568 35.8348C23.0195 35.8348 23.0195 35.2925 24.7823 35.2925C26.5451 35.2925 26.5505 35.8348 28.3133 35.8348C30.076 35.8348 30.076 35.2925 31.8388 35.2925C33.6016 35.2925 33.5961 35.8348 35.3589 35.8348C35.3589 35.8348 38.0708 35.8348 38.6132 38.0043Z" fill="#F0C419"/>
<path d="M38.0368 38.0041H19.1562C19.3569 37.4617 19.8993 36.9193 21.2553 36.9193C23.018 36.9193 23.018 36.377 24.7808 36.377C26.5436 36.377 26.549 36.9193 28.3118 36.9193C30.0745 36.9193 30.0745 36.377 31.8373 36.377C33.6001 36.377 33.5947 36.9193 35.3574 36.9193C35.3574 36.9193 37.0659 36.9193 38.0368 38.0041Z" fill="#E64C3C"/>
<path d="M19.6299 41.8006H18.8163C17.7679 41.8006 16.918 40.9506 16.918 39.9022C16.918 38.8538 17.7679 38.0039 18.8163 38.0039H38.8847C39.9331 38.0039 40.7831 38.8538 40.7831 39.9022C40.7789 40.8439 40.0875 41.6413 39.1559 41.7788L19.6299 41.8006Z" fill="#804537"/>
<path d="M20.1713 40.1733H38.6124C38.6837 40.1733 38.7542 40.1874 38.82 40.2146C38.8858 40.2419 38.9456 40.2818 38.996 40.3322C39.0463 40.3826 39.0863 40.4423 39.1135 40.5081C39.1408 40.5739 39.1548 40.6445 39.1548 40.7157V43.4276C39.1548 45.824 37.2121 47.7666 34.8157 47.7666H23.968C21.5716 47.7666 19.6289 45.824 19.6289 43.4276V40.7157C19.6289 40.5719 19.6861 40.4339 19.7878 40.3322C19.8895 40.2305 20.0274 40.1734 20.1713 40.1733Z" fill="#F29C1F"/>
</svg>
