<svg width="64" height="64" viewBox="0 0 64 64" fill="none" xmlns="http://www.w3.org/2000/svg">
<circle cx="32" cy="32" r="32" fill="white"/>
<g clip-path="url(#clip0_486_10043)">
<path d="M45.0856 18.9159C43.9749 17.8041 42.566 17.0378 41.0292 16.7096C39.4923 16.3814 37.8933 16.5055 36.4254 17.0667C34.9576 17.628 33.6837 18.6024 32.7578 19.8722C31.832 21.142 31.2938 22.6528 31.2082 24.222L30.6477 23.662C30.4477 23.462 30.1764 23.3497 29.8936 23.3497C29.6107 23.3497 29.3395 23.462 29.1394 23.662L25.8221 26.9794C25.6221 27.1794 25.5098 27.4506 25.5098 27.7335C25.5098 28.0163 25.6221 28.2876 25.8221 28.4876L27.1053 29.7708L17.0045 42.309C16.6758 42.7187 16.5098 43.2353 16.5383 43.7599C16.5668 44.2844 16.7879 44.78 17.1592 45.1516L18.8498 46.8423C19.2215 47.2135 19.7171 47.4346 20.2416 47.4631C20.7661 47.4917 21.2828 47.3257 21.6925 46.997L34.2306 36.8962L35.5138 38.1794C35.7139 38.3793 35.9851 38.4917 36.268 38.4917C36.5508 38.4917 36.8221 38.3793 37.0221 38.1794L40.3394 34.862C40.5394 34.662 40.6517 34.3907 40.6517 34.1079C40.6517 33.825 40.5394 33.5538 40.3394 33.3538L39.7794 32.7932C41.3486 32.7077 42.8594 32.1695 44.1292 31.2436C45.399 30.3177 46.3735 29.0439 46.9347 27.576C47.496 26.1082 47.62 24.5091 47.2919 22.9723C46.9637 21.4354 46.1974 20.0265 45.0856 18.9159Z" fill="#547580"/>
<path d="M40.3401 33.3504L30.6488 23.659C30.2322 23.2425 29.5568 23.2425 29.1403 23.659L25.8231 26.9762C25.4065 27.3928 25.4065 28.0681 25.8231 28.4847L35.5144 38.176C35.931 38.5926 36.6064 38.5926 37.0229 38.176L40.3401 34.8589C40.7567 34.4423 40.7567 33.7669 40.3401 33.3504Z" fill="#3B97D3"/>
<path d="M27.1053 29.771L17.0045 42.3091C16.6758 42.7189 16.5098 43.2355 16.5383 43.76C16.5668 44.2846 16.7879 44.7801 17.1592 45.1518L18.8498 46.8425C19.2215 47.2137 19.7171 47.4348 20.2416 47.4633C20.7661 47.4919 21.2828 47.3259 21.6925 46.9971L34.2306 36.8963L27.1053 29.771Z" fill="#2980BA"/>
<path d="M43.1661 21.3674C43.4607 21.3674 43.6995 21.1287 43.6995 20.8341C43.6995 20.5396 43.4607 20.3008 43.1661 20.3008C42.8716 20.3008 42.6328 20.5396 42.6328 20.8341C42.6328 21.1287 42.8716 21.3674 43.1661 21.3674Z" fill="#3F5C6C"/>
<path d="M41.631 19.8333C41.9255 19.8333 42.1643 19.5945 42.1643 19.2999C42.1643 19.0054 41.9255 18.7666 41.631 18.7666C41.3364 18.7666 41.0977 19.0054 41.0977 19.2999C41.0977 19.5945 41.3364 19.8333 41.631 19.8333Z" fill="#3F5C6C"/>
<path d="M44.7013 22.9026C44.9959 22.9026 45.2346 22.6638 45.2346 22.3693C45.2346 22.0747 44.9959 21.8359 44.7013 21.8359C44.4068 21.8359 44.168 22.0747 44.168 22.3693C44.168 22.6638 44.4068 22.9026 44.7013 22.9026Z" fill="#3F5C6C"/>
<path d="M37.0255 27.5061C37.3201 27.5061 37.5589 27.2673 37.5589 26.9728C37.5589 26.6782 37.3201 26.4395 37.0255 26.4395C36.731 26.4395 36.4922 26.6782 36.4922 26.9728C36.4922 27.2673 36.731 27.5061 37.0255 27.5061Z" fill="#3F5C6C"/>
<path d="M35.4904 25.9719C35.7849 25.9719 36.0237 25.7332 36.0237 25.4386C36.0237 25.1441 35.7849 24.9053 35.4904 24.9053C35.1958 24.9053 34.957 25.1441 34.957 25.4386C34.957 25.7332 35.1958 25.9719 35.4904 25.9719Z" fill="#3F5C6C"/>
<path d="M38.5607 29.0413C38.8552 29.0413 39.094 28.8025 39.094 28.5079C39.094 28.2134 38.8552 27.9746 38.5607 27.9746C38.2661 27.9746 38.0273 28.2134 38.0273 28.5079C38.0273 28.8025 38.2661 29.0413 38.5607 29.0413Z" fill="#3F5C6C"/>
<path d="M40.0958 21.3674C40.3904 21.3674 40.6292 21.1287 40.6292 20.8341C40.6292 20.5396 40.3904 20.3008 40.0958 20.3008C39.8013 20.3008 39.5625 20.5396 39.5625 20.8341C39.5625 21.1287 39.8013 21.3674 40.0958 21.3674Z" fill="#3F5C6C"/>
<path d="M38.5607 19.8333C38.8552 19.8333 39.094 19.5945 39.094 19.2999C39.094 19.0054 38.8552 18.7666 38.5607 18.7666C38.2661 18.7666 38.0273 19.0054 38.0273 19.2999C38.0273 19.5945 38.2661 19.8333 38.5607 19.8333Z" fill="#3F5C6C"/>
<path d="M44.7013 25.9719C44.9959 25.9719 45.2346 25.7332 45.2346 25.4386C45.2346 25.1441 44.9959 24.9053 44.7013 24.9053C44.4068 24.9053 44.168 25.1441 44.168 25.4386C44.168 25.7332 44.4068 25.9719 44.7013 25.9719Z" fill="#3F5C6C"/>
<path d="M43.1661 24.4368C43.4607 24.4368 43.6995 24.198 43.6995 23.9035C43.6995 23.6089 43.4607 23.3701 43.1661 23.3701C42.8716 23.3701 42.6328 23.6089 42.6328 23.9035C42.6328 24.198 42.8716 24.4368 43.1661 24.4368Z" fill="#3F5C6C"/>
<path d="M41.631 22.9026C41.9255 22.9026 42.1643 22.6638 42.1643 22.3693C42.1643 22.0747 41.9255 21.8359 41.631 21.8359C41.3364 21.8359 41.0977 22.0747 41.0977 22.3693C41.0977 22.6638 41.3364 22.9026 41.631 22.9026Z" fill="#3F5C6C"/>
<path d="M39.3302 23.6702C39.6248 23.6702 39.8635 23.4314 39.8635 23.1368C39.8635 22.8423 39.6248 22.6035 39.3302 22.6035C39.0357 22.6035 38.7969 22.8423 38.7969 23.1368C38.7969 23.4314 39.0357 23.6702 39.3302 23.6702Z" fill="#3F5C6C"/>
<path d="M37.7951 22.135C38.0896 22.135 38.3284 21.8962 38.3284 21.6017C38.3284 21.3071 38.0896 21.0684 37.7951 21.0684C37.5005 21.0684 37.2617 21.3071 37.2617 21.6017C37.2617 21.8962 37.5005 22.135 37.7951 22.135Z" fill="#3F5C6C"/>
<path d="M36.2599 20.6004C36.5544 20.6004 36.7932 20.3616 36.7932 20.067C36.7932 19.7725 36.5544 19.5337 36.2599 19.5337C35.9653 19.5337 35.7266 19.7725 35.7266 20.067C35.7266 20.3616 35.9653 20.6004 36.2599 20.6004Z" fill="#3F5C6C"/>
<path d="M43.9318 28.2737C44.2263 28.2737 44.4651 28.0349 44.4651 27.7404C44.4651 27.4458 44.2263 27.207 43.9318 27.207C43.6372 27.207 43.3984 27.4458 43.3984 27.7404C43.3984 28.0349 43.6372 28.2737 43.9318 28.2737Z" fill="#3F5C6C"/>
<path d="M42.3966 26.7395C42.6912 26.7395 42.9299 26.5007 42.9299 26.2062C42.9299 25.9116 42.6912 25.6729 42.3966 25.6729C42.1021 25.6729 41.8633 25.9116 41.8633 26.2062C41.8633 26.5007 42.1021 26.7395 42.3966 26.7395Z" fill="#3F5C6C"/>
<path d="M40.8615 25.2044C41.156 25.2044 41.3948 24.9656 41.3948 24.671C41.3948 24.3765 41.156 24.1377 40.8615 24.1377C40.5669 24.1377 40.3281 24.3765 40.3281 24.671C40.3281 24.9656 40.5669 25.2044 40.8615 25.2044Z" fill="#3F5C6C"/>
<path d="M37.7951 25.2044C38.0896 25.2044 38.3284 24.9656 38.3284 24.671C38.3284 24.3765 38.0896 24.1377 37.7951 24.1377C37.5005 24.1377 37.2617 24.3765 37.2617 24.671C37.2617 24.9656 37.5005 25.2044 37.7951 25.2044Z" fill="#3F5C6C"/>
<path d="M36.2599 23.6702C36.5544 23.6702 36.7932 23.4314 36.7932 23.1368C36.7932 22.8423 36.5544 22.6035 36.2599 22.6035C35.9653 22.6035 35.7266 22.8423 35.7266 23.1368C35.7266 23.4314 35.9653 23.6702 36.2599 23.6702Z" fill="#3F5C6C"/>
<path d="M34.7247 22.135C35.0193 22.135 35.2581 21.8962 35.2581 21.6017C35.2581 21.3071 35.0193 21.0684 34.7247 21.0684C34.4302 21.0684 34.1914 21.3071 34.1914 21.6017C34.1914 21.8962 34.4302 22.135 34.7247 22.135Z" fill="#3F5C6C"/>
<path d="M42.3966 29.8089C42.6912 29.8089 42.9299 29.5701 42.9299 29.2755C42.9299 28.981 42.6912 28.7422 42.3966 28.7422C42.1021 28.7422 41.8633 28.981 41.8633 29.2755C41.8633 29.5701 42.1021 29.8089 42.3966 29.8089Z" fill="#3F5C6C"/>
<path d="M40.8615 28.2737C41.156 28.2737 41.3948 28.0349 41.3948 27.7404C41.3948 27.4458 41.156 27.207 40.8615 27.207C40.5669 27.207 40.3281 27.4458 40.3281 27.7404C40.3281 28.0349 40.5669 28.2737 40.8615 28.2737Z" fill="#3F5C6C"/>
<path d="M39.3302 26.7395C39.6248 26.7395 39.8635 26.5007 39.8635 26.2062C39.8635 25.9116 39.6248 25.6729 39.3302 25.6729C39.0357 25.6729 38.7969 25.9116 38.7969 26.2062C38.7969 26.5007 39.0357 26.7395 39.3302 26.7395Z" fill="#3F5C6C"/>
</g>
<defs>
<clipPath id="clip0_486_10043">
<rect width="32" height="32" fill="white" transform="translate(16 16)"/>
</clipPath>
</defs>
</svg>
