<svg width="48" height="48" viewBox="0 0 48 48" fill="none" xmlns="http://www.w3.org/2000/svg">
<circle cx="24" cy="24" r="24" fill="#FCF4EA"/>
<g clip-path="url(#clip0_483_7391)">
<path d="M30.4729 25.2622L31.5449 34.5039L31.7573 36.3389C31.687 36.397 31.6128 36.4502 31.5353 36.4983C30.1928 37.3867 27.1316 37.9999 23.5681 37.9999C20.0046 37.9999 16.9434 37.3867 15.6009 36.4983C15.5234 36.4502 15.4492 36.397 15.3789 36.3389L15.5913 34.5039L16.6633 25.2622H30.4729Z" fill="#2C3E50"/>
<path d="M29.6776 25.2622L30.626 34.5039L30.8138 36.3389C30.7521 36.3965 30.6864 36.4498 30.6172 36.4983C29.4299 37.3867 26.7225 37.9999 23.571 37.9999C20.4194 37.9999 17.7121 37.3867 16.5247 36.4983C16.4555 36.4498 16.3898 36.3965 16.3281 36.3389L16.516 34.5039L17.4644 25.2622H29.6776Z" fill="#3F5C6C"/>
<path d="M30.9666 29.4969C28.5389 30.0395 26.0567 30.3003 23.5692 30.2742C21.0817 30.3003 18.5996 30.0395 16.1719 29.4969L16.6644 25.2622H30.474L30.9666 29.4969Z" fill="#FF5364"/>
<path d="M17.4611 25.2622L17.0071 29.6802C16.7175 29.6272 16.4421 29.5644 16.1719 29.4969L16.6644 25.2622H17.4611ZM30.9666 29.4969C30.6962 29.5644 30.4208 29.6272 30.1313 29.6802L29.6773 25.2622H30.474L30.9666 29.4969Z" fill="#C03A2B"/>
<path d="M12.4656 11.9258C12.3375 11.9258 12.2147 11.8749 12.1242 11.7843C12.0336 11.6938 11.9827 11.571 11.9827 11.4429V10.96C11.9827 10.6933 12.199 10.4773 12.4656 10.4773C12.7323 10.4773 12.9485 10.6933 12.9485 10.96V11.4428C12.9485 11.5709 12.8976 11.6937 12.807 11.7843C12.7165 11.8748 12.5937 11.9258 12.4656 11.9258ZM12.4656 15.3058C12.3375 15.3057 12.2147 15.2549 12.1242 15.1643C12.0336 15.0737 11.9827 14.9509 11.9827 14.8229V14.34C11.9827 14.0733 12.199 13.8573 12.4656 13.8573C12.7323 13.8573 12.9485 14.0733 12.9485 14.34V14.8229C12.9485 14.9509 12.8976 15.0737 12.807 15.1643C12.7165 15.2549 12.5937 15.3057 12.4656 15.3058ZM11.0171 13.3744H10.5343C10.4075 13.3725 10.2865 13.3208 10.1975 13.2304C10.1085 13.1401 10.0586 13.0183 10.0586 12.8915C10.0586 12.7647 10.1085 12.643 10.1975 12.5526C10.2865 12.4623 10.4075 12.4106 10.5343 12.4086H11.0171C11.2838 12.4086 11.4999 12.6249 11.4999 12.8915C11.4999 13.1582 11.2838 13.3744 11.0171 13.3744ZM14.3971 13.3744H13.9142C13.7874 13.3725 13.6665 13.3208 13.5775 13.2304C13.4885 13.1401 13.4386 13.0183 13.4386 12.8915C13.4386 12.7647 13.4885 12.643 13.5775 12.5526C13.6665 12.4623 13.7874 12.4106 13.9142 12.4086H14.3971C14.6638 12.4086 14.8798 12.6249 14.8798 12.8915C14.8798 13.1582 14.6638 13.3744 14.3971 13.3744Z" fill="#3B97D3"/>
<path d="M35.1581 14.8228C34.0912 14.8228 33.2266 13.9581 33.2266 12.8915C33.2266 11.8249 34.0912 10.96 35.1581 10.96C36.2247 10.96 37.0894 11.8249 37.0894 12.8915C37.0894 13.4037 36.886 13.895 36.5238 14.2572C36.1616 14.6194 35.6703 14.8228 35.1581 14.8228ZM35.1581 11.9257C34.6248 11.9257 34.1923 12.3582 34.1923 12.8915C34.1923 13.4248 34.6248 13.8573 35.1581 13.8573C35.6914 13.8573 36.1237 13.4248 36.1237 12.8915C36.1237 12.6353 36.0219 12.3898 35.841 12.2086C35.6599 12.0275 35.4142 11.9257 35.1581 11.9257Z" fill="#FF5364"/>
<path d="M11.981 30.2742C11.8529 30.2742 11.7301 30.2233 11.6395 30.1327C11.549 30.0422 11.4981 29.9194 11.4981 29.7913V29.3084C11.5 29.1816 11.5517 29.0606 11.642 28.9716C11.7324 28.8826 11.8541 28.8328 11.981 28.8328C12.1078 28.8328 12.2295 28.8826 12.3199 28.9716C12.4102 29.0606 12.4619 29.1816 12.4638 29.3084V29.7913C12.4638 29.9194 12.4129 30.0422 12.3224 30.1327C12.2318 30.2233 12.109 30.2742 11.981 30.2742ZM11.981 32.6884C11.8529 32.6884 11.7301 32.6375 11.6395 32.547C11.549 32.4564 11.4981 32.3336 11.4981 32.2055V31.7229C11.4981 31.4559 11.7143 31.2399 11.981 31.2399C12.2476 31.2399 12.4638 31.456 12.4638 31.7229V32.2055C12.4638 32.3336 12.4129 32.4564 12.3224 32.547C12.2318 32.6375 12.109 32.6884 11.981 32.6884ZM11.0154 31.24H10.5325C10.4053 31.2386 10.2838 31.1872 10.1943 31.0968C10.1049 31.0063 10.0547 30.8843 10.0547 30.7571C10.0547 30.6299 10.1049 30.5078 10.1943 30.4174C10.2838 30.327 10.4053 30.2755 10.5325 30.2742H11.0154C11.282 30.2742 11.4981 30.4904 11.4981 30.7571C11.4981 31.0237 11.282 31.24 11.0154 31.24ZM13.4296 31.24H12.9467C12.8195 31.2386 12.698 31.1872 12.6086 31.0968C12.5191 31.0063 12.4689 30.8843 12.4689 30.7571C12.4689 30.6299 12.5191 30.5078 12.6086 30.4174C12.698 30.327 12.8195 30.2755 12.9467 30.2742H13.4296C13.5564 30.2761 13.6774 30.3278 13.7664 30.4182C13.8554 30.5085 13.9053 30.6302 13.9053 30.7571C13.9053 30.8839 13.8554 31.0056 13.7664 31.096C13.6774 31.1863 13.5564 31.2381 13.4296 31.24Z" fill="#894B9D"/>
<path d="M18.3253 19.5356C14.559 20.0907 11.9805 21.2304 11.9805 22.5485C11.9805 23.6639 13.825 24.6491 16.6642 25.2623C18.9364 25.724 21.2505 25.9473 23.5691 25.9285C25.8876 25.9473 28.2017 25.724 30.4739 25.2623C33.3131 24.6491 35.1577 23.6639 35.1577 22.5485C35.1577 21.2304 32.5792 20.0907 28.8178 19.5356" fill="#547580"/>
<path d="M28.3609 21.4619C29.8675 21.7275 30.8138 22.1139 30.8138 22.5484C30.8138 23.3501 27.5691 23.9971 23.571 23.9971C19.5728 23.9971 16.3281 23.3501 16.3281 22.5484C16.3281 22.1139 17.2744 21.7275 18.781 21.462L28.3609 21.4619Z" fill="#2C2F38"/>
<path d="M23.3904 22.6693C22.2256 22.6682 21.0618 22.6022 19.9043 22.4714L19.74 22.4037L19.3537 22.2443L18.924 22.0657L18.7791 21.4621L18.4798 20.1922L18.3253 19.5356L16.9249 13.6206C16.8257 13.2454 16.8025 12.8542 16.8565 12.4699C16.9106 12.0856 17.0408 11.716 17.2396 11.3827C17.4384 11.0495 17.7018 10.7593 18.0143 10.5292C18.3267 10.2991 18.682 10.1337 19.0593 10.0427C20.1564 9.84307 21.2604 10.3555 21.8164 11.3221C22.0459 11.7066 22.1876 12.137 22.2315 12.5825L22.9172 19.1735L23.0475 20.1343L23.3904 22.6693Z" fill="#B0D3F0"/>
<path d="M23.3933 22.6694C22.2285 22.6683 21.0646 22.6023 19.9072 22.4715L19.7428 22.4038L19.2939 20.5013L19.207 20.1344L17.8936 14.5863C17.7945 14.2112 17.7712 13.82 17.8253 13.4357C17.8793 13.0514 18.0096 12.6818 18.2084 12.3485C18.4072 12.0153 18.6705 11.725 18.983 11.4949C19.2954 11.2647 19.6507 11.0993 20.0279 11.0083C20.6433 10.8868 21.2819 10.9987 21.8193 11.3222C22.0488 11.7067 22.1905 12.1371 22.2344 12.5826L22.9201 19.1736L23.0504 20.1344L23.3933 22.6694Z" fill="#ECF0F1"/>
<path d="M30.2155 13.6205L28.8151 19.5356L28.6607 20.1922L28.3613 21.4621L28.2165 22.0657L27.7868 22.2443L27.4005 22.4037L27.2362 22.4714C26.0787 22.6022 24.9148 22.6682 23.75 22.6693L24.093 20.1343L24.2233 19.1735L24.9089 12.5825C24.9528 12.137 25.0946 11.7066 25.3241 11.3221C25.88 10.3555 26.984 9.84307 28.0812 10.0427C28.4584 10.1337 28.8137 10.2991 29.1262 10.5292C29.4387 10.7593 29.702 11.0495 29.9008 11.3827C30.0996 11.716 30.2299 12.0856 30.2839 12.4699C30.338 12.8542 30.3147 13.2453 30.2155 13.6205Z" fill="#B0D3F0"/>
<path d="M29.2498 14.5864L27.9364 20.1344L27.8494 20.5012L27.4005 22.4038L27.2362 22.4715C26.0787 22.6022 24.9148 22.6683 23.75 22.6693L24.093 20.1344L24.2233 19.1735L24.9089 12.5826C24.9528 12.137 25.0946 11.7066 25.3241 11.3222C25.8615 10.9986 26.5001 10.8868 27.1154 11.0083C27.4927 11.0993 27.8479 11.2648 28.1604 11.4949C28.4728 11.725 28.7362 12.0153 28.935 12.3485C29.1338 12.6818 29.264 13.0514 29.3181 13.4357C29.3721 13.82 29.3489 14.2112 29.2498 14.5864Z" fill="#ECF0F1"/>
</g>
<defs>
<clipPath id="clip0_483_7391">
<rect width="28" height="28" fill="white" transform="translate(10 10)"/>
</clipPath>
</defs>
</svg>
