<svg width="48" height="48" viewBox="0 0 48 48" fill="none" xmlns="http://www.w3.org/2000/svg">
<circle cx="24" cy="24" r="24" fill="#FCF4EA"/>
<g clip-path="url(#clip0_483_7411)">
<path d="M30.5315 24.9333C30.5204 24.0315 30.2592 23.1506 29.7769 22.3885C29.4257 21.874 28.9532 21.4539 28.4011 21.1652C27.8491 20.8765 27.2345 20.7282 26.6115 20.7333H21.3848C20.7619 20.7282 20.1473 20.8765 19.5952 21.1652C19.0432 21.4539 18.5707 21.874 18.2194 22.3885C17.7372 23.1506 17.4759 24.0315 17.4648 24.9333H30.5315Z" fill="#FB7B76"/>
<path d="M11.3982 35.2H36.5982C36.8457 35.2 37.0831 35.2983 37.2581 35.4733C37.4332 35.6484 37.5315 35.8857 37.5315 36.1333V37.0666C37.5315 37.1904 37.4823 37.3091 37.3948 37.3966C37.3073 37.4841 37.1886 37.5333 37.0648 37.5333H10.9315C10.8077 37.5333 10.689 37.4841 10.6015 37.3966C10.514 37.3091 10.4648 37.1904 10.4648 37.0666V36.1333C10.4648 35.8857 10.5632 35.6484 10.7382 35.4733C10.9132 35.2983 11.1506 35.2 11.3982 35.2Z" fill="#547580"/>
<path d="M31 35.1998H17V25.3998C17 25.276 17.0492 25.1573 17.1367 25.0698C17.2242 24.9823 17.3429 24.9331 17.4667 24.9331H30.5333C30.6571 24.9331 30.7758 24.9823 30.8633 25.0698C30.9508 25.1573 31 25.276 31 25.3998V35.1998Z" fill="#2980BA"/>
<path d="M11.8651 25.8665H16.9984V35.1998H11.3984V26.3331C11.3984 26.2094 11.4476 26.0907 11.5351 26.0031C11.6226 25.9156 11.7413 25.8665 11.8651 25.8665Z" fill="#3B97D3"/>
<path d="M14.199 29.5998C14.7144 29.5998 15.1323 29.182 15.1323 28.6665C15.1323 28.151 14.7144 27.7332 14.199 27.7332C13.6835 27.7332 13.2656 28.151 13.2656 28.6665C13.2656 29.182 13.6835 29.5998 14.199 29.5998Z" fill="#3F5C6C"/>
<path d="M14.199 33.3332C14.7144 33.3332 15.1323 32.9154 15.1323 32.3999C15.1323 31.8844 14.7144 31.4666 14.199 31.4666C13.6835 31.4666 13.2656 31.8844 13.2656 32.3999C13.2656 32.9154 13.6835 33.3332 14.199 33.3332Z" fill="#3F5C6C"/>
<path d="M36.6 35.1998H31V25.8665H36.1333C36.2571 25.8665 36.3758 25.9156 36.4633 26.0031C36.5508 26.0907 36.6 26.2094 36.6 26.3331V35.1998Z" fill="#3B97D3"/>
<path d="M33.7966 29.6001C34.3121 29.6001 34.7299 29.1822 34.7299 28.6667C34.7299 28.1513 34.3121 27.7334 33.7966 27.7334C33.2811 27.7334 32.8633 28.1513 32.8633 28.6667C32.8633 29.1822 33.2811 29.6001 33.7966 29.6001Z" fill="#3F5C6C"/>
<path d="M33.7966 33.3332C34.3121 33.3332 34.7299 32.9154 34.7299 32.3999C34.7299 31.8844 34.3121 31.4666 33.7966 31.4666C33.2811 31.4666 32.8633 31.8844 32.8633 32.3999C32.8633 32.9154 33.2811 33.3332 33.7966 33.3332Z" fill="#3F5C6C"/>
<path d="M20.2635 23.0667H23.9969C24.1206 23.0667 24.2393 23.1158 24.3269 23.2033C24.4144 23.2909 24.4635 23.4095 24.4635 23.5333V24.9333H19.7969V23.5333C19.7969 23.4095 19.846 23.2909 19.9336 23.2033C20.0211 23.1158 20.1398 23.0667 20.2635 23.0667ZM26.7969 23.0667H27.7302C27.854 23.0667 27.9727 23.1158 28.0602 23.2033C28.1477 23.2909 28.1969 23.4095 28.1969 23.5333V24.9333H26.3302V23.5333C26.3302 23.4095 26.3794 23.2909 26.4669 23.2033C26.5544 23.1158 26.6731 23.0667 26.7969 23.0667Z" fill="#3F5C6C"/>
<path d="M29.5984 16.0666V17.4666C29.5984 17.5903 29.5493 17.709 29.4618 17.7965C29.3742 17.8841 29.2555 17.9332 29.1318 17.9332H27.2651C27.2651 18.7996 26.9209 19.6305 26.3083 20.2431C25.6957 20.8557 24.8648 21.1999 23.9984 21.1999C23.1321 21.1999 22.3012 20.8557 21.6886 20.2431C21.0759 19.6305 20.7318 18.7996 20.7318 17.9332H18.8651C18.7413 17.9332 18.6226 17.8841 18.5351 17.7965C18.4476 17.709 18.3984 17.5903 18.3984 17.4666V16.0666C18.3984 15.9428 18.4476 15.8241 18.5351 15.7366C18.6226 15.6491 18.7413 15.5999 18.8651 15.5999C18.8651 14.2384 19.4059 12.9328 20.3686 11.9701C21.3313 11.0074 22.637 10.4666 23.9984 10.4666C25.3599 10.4666 26.6656 11.0074 27.6283 11.9701C28.5909 12.9328 29.1318 14.2384 29.1318 15.5999C29.2555 15.5999 29.3742 15.6491 29.4618 15.7366C29.5493 15.8241 29.5984 15.9428 29.5984 16.0666Z" fill="#FDD7AD"/>
<path d="M29.5984 16.0666V17.4666C29.5984 17.5903 29.5493 17.709 29.4618 17.7965C29.3742 17.8841 29.2555 17.9332 29.1318 17.9332H27.2651V15.5999C27.2651 14.7335 26.9209 13.9026 26.3083 13.29C25.6957 12.6774 24.8648 12.3332 23.9984 12.3332C23.1321 12.3332 22.3012 12.6774 21.6886 13.29C21.0759 13.9026 20.7318 14.7335 20.7318 15.5999V17.9332H18.8651C18.7413 17.9332 18.6226 17.8841 18.5351 17.7965C18.4476 17.709 18.3984 17.5903 18.3984 17.4666V16.0666C18.3984 15.9428 18.4476 15.8241 18.5351 15.7366C18.6226 15.6491 18.7413 15.5999 18.8651 15.5999C18.8651 14.2384 19.4059 12.9328 20.3686 11.9701C21.3313 11.0074 22.637 10.4666 23.9984 10.4666C25.3599 10.4666 26.6656 11.0074 27.6283 11.9701C28.5909 12.9328 29.1318 14.2384 29.1318 15.5999C29.2555 15.5999 29.3742 15.6491 29.4618 15.7366C29.5493 15.8241 29.5984 15.9428 29.5984 16.0666Z" fill="#3F5C6C"/>
<path d="M29.1339 15.5999H27.2672C27.2672 14.7335 26.923 13.9026 26.3104 13.29C25.6978 12.6774 24.8669 12.3332 24.0005 12.3332C23.1341 12.3332 22.3033 12.6774 21.6906 13.29C21.078 13.9026 20.7339 14.7335 20.7339 15.5999H18.8672C18.8672 14.2384 19.408 12.9328 20.3707 11.9701C21.3334 11.0074 22.6391 10.4666 24.0005 10.4666C25.362 10.4666 26.6676 11.0074 27.6303 11.9701C28.593 12.9328 29.1339 14.2384 29.1339 15.5999Z" fill="#547580"/>
<path d="M27.2638 15.5999V16.5333C25.3971 16.5333 24.9305 14.6666 24.9305 14.6666C24.9305 16.5333 20.7305 16.0666 20.7305 16.0666V15.5999C20.7305 14.7335 21.0746 13.9027 21.6873 13.29C22.2999 12.6774 23.1308 12.3333 23.9971 12.3333C24.8635 12.3333 25.6944 12.6774 26.307 13.29C26.9196 13.9027 27.2638 14.7335 27.2638 15.5999Z" fill="#A56A43"/>
</g>
<defs>
<clipPath id="clip0_483_7411">
<rect width="28" height="28" fill="white" transform="translate(10 10)"/>
</clipPath>
</defs>
</svg>
