<svg width="64" height="64" viewBox="0 0 64 64" fill="none" xmlns="http://www.w3.org/2000/svg">
<circle cx="32" cy="32" r="32" fill="white"/>
<path d="M46.8964 40.2758H45.793C45.6123 40.2758 45.4344 40.3201 45.2747 40.4047C45.115 40.4893 44.9785 40.6118 44.8771 40.7613C44.7535 40.9436 44.6882 41.1591 44.6896 41.3793V42.4827L43.8951 41.9309C43.6858 41.7865 43.4411 41.7019 43.1874 41.6863C42.9336 41.6708 42.6804 41.7249 42.4551 41.8427L37.5171 27.5862V24.2758H36.9654V20.4138H38.0688L32 16L25.931 20.4138H27.0345V24.2759H26.4827V27.5862L21.5503 41.8427H21.5448C21.3454 41.7388 21.1241 41.684 20.8993 41.6827C20.6152 41.6818 20.3378 41.7685 20.1048 41.9309L19.3103 42.4827V41.3793C19.309 41.1595 19.2439 40.9448 19.1227 40.7613C19.0213 40.6118 18.8849 40.4893 18.7252 40.4047C18.5655 40.32 18.3876 40.2758 18.2069 40.2758H17.1034C16.4947 40.2776 16.0017 40.7706 16 41.3793V46.8965C16.0018 47.5052 16.4947 47.9982 17.1034 47.9999H19.3103V47.9172C19.6753 47.9741 20.0443 48.0017 20.4137 47.9999H43.5861C43.9553 48.0009 44.3241 47.9751 44.6896 47.9227V47.9999H46.8964C47.5051 47.9981 47.9981 47.5052 47.9999 46.8965V41.3793C47.9981 40.7706 47.5051 40.2776 46.8964 40.2758Z" fill="#B0D3F0"/>
<path d="M31.9987 16V20.4138H25.9297L31.9987 16Z" fill="#F29C1F"/>
<path d="M38.0689 20.4138H32V16L38.0689 20.4138Z" fill="#E57E25"/>
<path d="M27.0352 20.4141H36.9662V24.2761H27.0352V20.4141Z" fill="#F0C419"/>
<path d="M26.4844 24.2759H37.5189V27.5863H26.4844V24.2759Z" fill="#E57E25"/>
<path d="M30.3453 27.5859L27.7191 41.7708C27.5679 41.7118 27.4069 41.6818 27.2446 41.6825C27.2075 41.6807 27.1703 41.6844 27.1342 41.6936C26.8882 41.7059 26.6509 41.7882 26.4501 41.9308L26.0197 42.1294L25.6556 42.1791C25.3718 42.1783 25.0948 42.0918 24.8611 41.9308C24.6287 41.7692 24.3524 41.6825 24.0694 41.6825C23.7863 41.6825 23.51 41.7692 23.2777 41.9308C23.0443 42.0925 22.7671 42.1791 22.4832 42.1791C22.1993 42.1791 21.9221 42.0925 21.6887 41.9308C21.6448 41.8982 21.5988 41.8687 21.5508 41.8426L26.4832 27.586H30.3453V27.5859ZM42.4556 41.8425C42.4058 41.8687 42.3579 41.8982 42.3122 41.9307C42.0788 42.0924 41.8016 42.179 41.5177 42.179C41.2338 42.179 40.9566 42.0924 40.7232 41.9307C40.4909 41.7691 40.2146 41.6825 39.9315 41.6825C39.6484 41.6825 39.3722 41.7691 39.1398 41.9307C38.9064 42.0924 38.6292 42.179 38.3453 42.179C38.0614 42.179 37.7842 42.0924 37.5508 41.9307L37.3302 41.8039C37.1426 41.7598 37.0157 41.7321 36.9384 41.7101C36.8788 41.6949 36.8178 41.6856 36.7563 41.6825C36.5865 41.6832 36.4182 41.715 36.2598 41.7763L33.1039 27.5859H37.5177L42.4556 41.8425Z" fill="#90BAE1"/>
<path d="M36.2594 41.7767C36.156 41.8161 36.0577 41.868 35.9669 41.9312C35.7335 42.0929 35.4564 42.1795 35.1725 42.1795C34.8886 42.1795 34.6114 42.0929 34.378 41.9312C34.1456 41.7696 33.8693 41.6829 33.5863 41.6829C33.3032 41.6829 33.0269 41.7696 32.7946 41.9312C32.5612 42.0929 32.284 42.1795 32.0001 42.1795C31.7162 42.1795 31.439 42.0929 31.2056 41.9312C30.9733 41.7696 30.697 41.6829 30.4139 41.6829C30.1308 41.6829 29.8546 41.7696 29.6222 41.9312C29.3888 42.0929 29.1116 42.1795 28.8277 42.1795C28.5438 42.1795 28.2666 42.0929 28.0332 41.9312C27.9355 41.8649 27.8299 41.8112 27.7188 41.7712L30.3449 27.5864H33.1036L36.2594 41.7767Z" fill="#4482C3"/>
<path d="M19.3103 41.3793V48H17.1034C16.4947 47.9982 16.0017 47.5052 16 46.8966V41.3793C16.0017 40.7706 16.4947 40.2776 17.1034 40.2759H18.2069C18.5737 40.2759 18.9168 40.4577 19.1227 40.7614C19.2439 40.9448 19.3091 41.1595 19.3103 41.3793ZM47.9999 41.3793V46.8966C47.9981 47.5052 47.5052 47.9982 46.8965 48H44.6896V41.3793C44.6882 41.1591 44.7536 40.9437 44.8771 40.7614C44.9785 40.6118 45.115 40.4893 45.2747 40.4047C45.4343 40.3201 45.6123 40.2758 45.793 40.2759H46.8964C47.5051 40.2776 47.9981 40.7706 47.9999 41.3793Z" fill="#F0C419"/>
<path d="M44.6918 45.793V47.9226C44.3263 47.975 43.9576 48.0008 43.5884 47.9998H20.4159C20.0465 48.0016 19.6775 47.9739 19.3125 47.9171V45.793H44.6918Z" fill="#F0C419"/>
<path d="M44.6918 42.4826V45.793H19.3125V42.4826L20.107 41.9309C20.34 41.7684 20.6174 41.6817 20.9015 41.6826C21.1263 41.6839 21.3476 41.7388 21.547 41.8426H21.5525C21.6005 41.8688 21.6466 41.8983 21.6904 41.9309C21.9238 42.0926 22.201 42.1792 22.4849 42.1792C22.7688 42.1792 23.046 42.0926 23.2794 41.9309C23.5117 41.7692 23.788 41.6826 24.0711 41.6826C24.3542 41.6826 24.6304 41.7692 24.8628 41.9309C25.0965 42.0919 25.3735 42.1784 25.6573 42.1791L26.0214 42.1295L26.4518 41.9309C26.6526 41.7883 26.89 41.706 27.1359 41.6936C27.172 41.6845 27.2092 41.6808 27.2463 41.6826C27.4086 41.6819 27.5696 41.7119 27.7208 41.7708C27.8319 41.8108 27.9376 41.8645 28.0353 41.9308C28.2687 42.0925 28.5459 42.1791 28.8298 42.1791C29.1137 42.1791 29.3909 42.0925 29.6242 41.9308C29.8566 41.7692 30.1329 41.6825 30.416 41.6825C30.699 41.6825 30.9753 41.7692 31.2077 41.9308C31.4411 42.0925 31.7182 42.1791 32.0022 42.1791C32.2861 42.1791 32.5632 42.0925 32.7966 41.9308C33.029 41.7692 33.3053 41.6825 33.5883 41.6825C33.8714 41.6825 34.1477 41.7692 34.3801 41.9308C34.6135 42.0925 34.8906 42.1791 35.1745 42.1791C35.4585 42.1791 35.7356 42.0925 35.969 41.9308C36.0598 41.8676 36.158 41.8157 36.2614 41.7763C36.4199 41.715 36.5881 41.6832 36.758 41.6825C36.8194 41.6856 36.8804 41.6949 36.9401 41.7101C37.0173 41.7321 37.1442 41.7597 37.3318 41.8039L37.5525 41.9308C37.7859 42.0924 38.063 42.1791 38.347 42.1791C38.6309 42.1791 38.908 42.0924 39.1414 41.9308C39.3738 41.7691 39.6501 41.6825 39.9332 41.6825C40.2162 41.6825 40.4925 41.7691 40.7249 41.9308C40.9583 42.0924 41.2354 42.1791 41.5193 42.1791C41.8033 42.1791 42.0804 42.0924 42.3138 41.9308C42.3596 41.8981 42.4075 41.8686 42.4573 41.8425C42.6826 41.7247 42.9358 41.6706 43.1895 41.6862C43.4433 41.7017 43.688 41.7863 43.8972 41.9308L44.6918 42.4826Z" fill="#2FA8CC"/>
</svg>
