<svg width="48" height="48" viewBox="0 0 48 48" fill="none" xmlns="http://www.w3.org/2000/svg">
<circle cx="24" cy="24" r="24" fill="#FCF4EA"/>
<g clip-path="url(#clip0_483_7325)">
<path d="M28.8706 29.6648C28.1124 30.4234 20.0716 34.0657 14.0138 35.5574C13.7423 35.6249 13.4579 35.6209 13.1883 35.5461C12.9187 35.4712 12.6731 35.3278 12.4753 35.13C12.2774 34.9322 12.1341 34.6865 12.0592 34.4169C11.9843 34.1473 11.9804 33.863 12.0479 33.5914C13.5395 27.5337 17.1822 19.4933 17.9405 18.7346L28.8706 29.6648Z" fill="#F0C419"/>
<path d="M28.8684 29.6646C29.6627 28.8703 27.8598 25.7796 24.8415 22.7613C21.8232 19.743 18.7325 17.9401 17.9382 18.7344C17.1439 19.5287 18.9468 22.6194 21.9651 25.6377C24.9834 28.656 28.0741 30.4589 28.8684 29.6646Z" fill="#D25627"/>
<path d="M16.2159 32.2043C16.6652 32.2043 17.0295 31.84 17.0295 31.3907C17.0295 30.9414 16.6652 30.5771 16.2159 30.5771C15.7666 30.5771 15.4023 30.9414 15.4023 31.3907C15.4023 31.84 15.7666 32.2043 16.2159 32.2043Z" fill="#955BA5"/>
<path d="M21.3925 22.5934C21.312 22.5934 21.2332 22.5696 21.1663 22.5249C21.0993 22.4802 21.0471 22.4166 21.0163 22.3422C20.9855 22.2678 20.9775 22.1859 20.9933 22.1069C21.009 22.028 21.0479 21.9555 21.1049 21.8986L23.6937 19.3102C25.0861 17.9174 25.2634 16.8529 24.2692 15.8583C24.0639 15.6179 23.8013 15.4331 23.5057 15.3209C23.2101 15.2088 22.891 15.1728 22.5779 15.2164C22.129 15.3114 21.7173 15.5344 21.3925 15.8583C21.3158 15.9324 21.213 15.9734 21.1064 15.9725C20.9997 15.9716 20.8977 15.9288 20.8223 15.8534C20.7468 15.7779 20.7041 15.6759 20.7031 15.5693C20.7022 15.4626 20.7432 15.3599 20.8173 15.2831C21.2595 14.8402 21.823 14.5381 22.4367 14.4151C22.8787 14.3453 23.3311 14.3883 23.752 14.54C24.1729 14.6918 24.5487 14.9474 24.8444 15.2831C26.1803 16.619 25.9867 18.1676 24.2688 19.8854L21.6809 22.4742C21.643 22.5121 21.5981 22.5421 21.5486 22.5625C21.4991 22.583 21.4461 22.5935 21.3925 22.5934Z" fill="#955BA5"/>
<path d="M32.0343 26.9075C31.9539 26.9075 31.8753 26.8837 31.8084 26.839C31.7415 26.7943 31.6894 26.7307 31.6586 26.6564C31.6278 26.5821 31.6198 26.5003 31.6355 26.4214C31.6511 26.3425 31.6899 26.2701 31.7467 26.2132C31.9512 26.0335 32.1151 25.8123 32.2273 25.5643C32.3396 25.3163 32.3976 25.0472 32.3976 24.775C32.3976 24.5028 32.3396 24.2337 32.2273 23.9857C32.1151 23.7377 31.9512 23.5165 31.7467 23.3368C31.5415 23.088 31.2705 22.902 30.9646 22.7999C30.6587 22.6978 30.3302 22.6839 30.0167 22.7596C29.353 22.9886 28.7599 23.3857 28.2952 23.912L25.9941 26.2132C25.9173 26.2873 25.8146 26.3283 25.7079 26.3273C25.6013 26.3264 25.4993 26.2836 25.4238 26.2082C25.3484 26.1328 25.3056 26.0308 25.3047 25.9241C25.3038 25.8175 25.3448 25.7147 25.4189 25.638L27.72 23.3368C28.2847 22.7066 29.0054 22.2362 29.8097 21.9729C30.2603 21.8575 30.7343 21.8702 31.1781 22.0095C31.622 22.1489 32.0181 22.4094 32.3219 22.7616C33.9112 24.3505 33.07 26.0407 32.3219 26.7888C32.2842 26.8266 32.2394 26.8566 32.1901 26.877C32.1407 26.8974 32.0877 26.9078 32.0343 26.9075Z" fill="#FF5364"/>
<path d="M26.8598 19.4291C26.7795 19.4291 26.7009 19.4053 26.6341 19.3607C26.5673 19.3161 26.5152 19.2527 26.4843 19.1785C26.4535 19.1043 26.4453 19.0226 26.4608 18.9438C26.4763 18.865 26.5148 18.7925 26.5714 18.7355C26.678 18.6281 29.1593 16.0764 27.1173 13.5239C27.0807 13.4826 27.0528 13.4343 27.0355 13.3819C27.0181 13.3295 27.0116 13.2741 27.0164 13.2191C27.0211 13.1641 27.037 13.1106 27.063 13.062C27.0891 13.0133 27.1247 12.9705 27.1679 12.936C27.211 12.9016 27.2607 12.8763 27.3139 12.8617C27.3672 12.8471 27.4228 12.8434 27.4775 12.851C27.5322 12.8586 27.5847 12.8772 27.632 12.9058C27.6792 12.9343 27.7201 12.9721 27.7523 13.017C30.2524 16.1415 27.1787 19.2814 27.147 19.3115C27.1093 19.3491 27.0645 19.3788 27.0152 19.399C26.9659 19.4192 26.9131 19.4294 26.8598 19.4291Z" fill="#F0C419"/>
<path d="M31.1188 20.5305C31.7928 20.5305 32.3391 19.9842 32.3391 19.3102C32.3391 18.6362 31.7928 18.0898 31.1188 18.0898C30.4448 18.0898 29.8984 18.6362 29.8984 19.3102C29.8984 19.9842 30.4448 20.5305 31.1188 20.5305Z" fill="#FF5364"/>
<path d="M25.0167 13.6271C25.466 13.6271 25.8302 13.2629 25.8302 12.8136C25.8302 12.3642 25.466 12 25.0167 12C24.5674 12 24.2031 12.3642 24.2031 12.8136C24.2031 13.2629 24.5674 13.6271 25.0167 13.6271Z" fill="#3B97D3"/>
<path d="M34.7784 28.2712C35.2277 28.2712 35.592 27.9069 35.592 27.4576C35.592 27.0083 35.2277 26.644 34.7784 26.644C34.3291 26.644 33.9648 27.0083 33.9648 27.4576C33.9648 27.9069 34.3291 28.2712 34.7784 28.2712Z" fill="#955BA5"/>
<path d="M31.1193 14.4408C31.0114 14.4408 30.908 14.3979 30.8317 14.3217C30.7554 14.2454 30.7125 14.1419 30.7125 14.034V13.6272C30.7125 13.5194 30.7554 13.4159 30.8317 13.3396C30.908 13.2633 31.0114 13.2205 31.1193 13.2205C31.2272 13.2205 31.3307 13.2633 31.4069 13.3396C31.4832 13.4159 31.5261 13.5194 31.5261 13.6272V14.034C31.5261 14.1419 31.4832 14.2454 31.4069 14.3217C31.3307 14.3979 31.2272 14.4408 31.1193 14.4408ZM32.3396 15.2544H31.9329C31.825 15.2544 31.7215 15.2115 31.6452 15.1352C31.5689 15.0589 31.5261 14.9555 31.5261 14.8476C31.5261 14.7397 31.5689 14.6362 31.6452 14.5599C31.7215 14.4837 31.825 14.4408 31.9329 14.4408H32.3396C32.4475 14.4408 32.551 14.4837 32.6273 14.5599C32.7036 14.6362 32.7464 14.7397 32.7464 14.8476C32.7464 14.9555 32.7036 15.0589 32.6273 15.1352C32.551 15.2115 32.4475 15.2544 32.3396 15.2544ZM31.1193 16.4747C31.0114 16.4747 30.908 16.4318 30.8317 16.3556C30.7554 16.2793 30.7125 16.1758 30.7125 16.0679V15.6611C30.7125 15.5533 30.7554 15.4498 30.8317 15.3735C30.908 15.2972 31.0114 15.2544 31.1193 15.2544C31.2272 15.2544 31.3307 15.2972 31.4069 15.3735C31.4832 15.4498 31.5261 15.5533 31.5261 15.6611V16.0679C31.5261 16.1758 31.4832 16.2793 31.4069 16.3556C31.3307 16.4318 31.2272 16.4747 31.1193 16.4747ZM30.3057 15.2544H29.899C29.7911 15.2544 29.6876 15.2115 29.6113 15.1352C29.535 15.0589 29.4922 14.9555 29.4922 14.8476C29.4922 14.7397 29.535 14.6362 29.6113 14.5599C29.6876 14.4837 29.7911 14.4408 29.899 14.4408H30.3057C30.4136 14.4408 30.5171 14.4837 30.5934 14.5599C30.6697 14.6362 30.7125 14.7397 30.7125 14.8476C30.7125 14.9555 30.6697 15.0589 30.5934 15.1352C30.5171 15.2115 30.4136 15.2544 30.3057 15.2544Z" fill="#955BA5"/>
<path d="M34.3732 21.3558C34.2653 21.3558 34.1619 21.313 34.0856 21.2367C34.0093 21.1604 33.9664 21.0569 33.9664 20.9491V20.5423C33.9664 20.4344 34.0093 20.3309 34.0856 20.2546C34.1619 20.1784 34.2653 20.1355 34.3732 20.1355C34.4811 20.1355 34.5846 20.1784 34.6608 20.2546C34.7371 20.3309 34.78 20.4344 34.78 20.5423V20.9491C34.78 21.0569 34.7371 21.1604 34.6608 21.2367C34.5846 21.313 34.4811 21.3558 34.3732 21.3558ZM35.5936 22.1694H35.1868C35.0789 22.1694 34.9754 22.1265 34.8991 22.0503C34.8228 21.974 34.78 21.8705 34.78 21.7626C34.78 21.6547 34.8228 21.5513 34.8991 21.475C34.9754 21.3987 35.0789 21.3558 35.1868 21.3558H35.5936C35.7014 21.3558 35.8049 21.3987 35.8812 21.475C35.9575 21.5513 36.0003 21.6547 36.0003 21.7626C36.0003 21.8705 35.9575 21.974 35.8812 22.0503C35.8049 22.1265 35.7014 22.1694 35.5936 22.1694ZM34.3732 23.3897C34.2653 23.3897 34.1619 23.3469 34.0856 23.2706C34.0093 23.1943 33.9664 23.0908 33.9664 22.983V22.5762C33.9664 22.4683 34.0093 22.3648 34.0856 22.2885C34.1619 22.2123 34.2653 22.1694 34.3732 22.1694C34.4811 22.1694 34.5846 22.2123 34.6608 22.2885C34.7371 22.3648 34.78 22.4683 34.78 22.5762V22.983C34.78 23.0908 34.7371 23.1943 34.6608 23.2706C34.5846 23.3469 34.4811 23.3897 34.3732 23.3897ZM33.5597 22.1694H33.1529C33.045 22.1694 32.9415 22.1265 32.8652 22.0503C32.789 21.974 32.7461 21.8705 32.7461 21.7626C32.7461 21.6547 32.789 21.5513 32.8652 21.475C32.9415 21.3987 33.045 21.3558 33.1529 21.3558H33.5597C33.6675 21.3558 33.771 21.3987 33.8473 21.475C33.9236 21.5513 33.9664 21.6547 33.9664 21.7626C33.9664 21.8705 33.9236 21.974 33.8473 22.0503C33.771 22.1265 33.6675 22.1694 33.5597 22.1694Z" fill="#3B97D3"/>
<path fill-rule="evenodd" clip-rule="evenodd" d="M25.6341 31.3791C24.5806 31.8591 23.3358 32.3879 22.0016 32.9167C21.8023 32.7946 21.5908 32.6563 21.3711 32.5058C21.4683 31.3465 21.7616 30.2116 22.2375 29.1499C23.2927 30.0042 24.4305 30.751 25.6341 31.3791Z" fill="black"/>
<path d="M25.6339 31.3789C24.5804 31.8589 23.3356 32.3877 22.0014 32.9165C21.8021 32.7945 21.5906 32.6562 21.3709 32.5056C20.5603 31.9596 19.7858 31.3617 19.0522 30.7158C18.6902 30.3904 18.316 30.0446 17.9377 29.6663C17.5249 29.2566 17.1286 28.8305 16.7499 28.389C15.9905 27.5171 15.301 26.5868 14.6875 25.6067C15.2163 24.2724 15.7451 23.0277 16.2292 21.9741C16.6603 22.8115 17.1539 23.6151 17.7058 24.3782C18.3654 25.3003 19.0914 26.1732 19.878 26.9897C19.9919 27.1158 20.1139 27.2379 20.24 27.364C20.8715 27.9965 21.5383 28.5927 22.2373 29.1497C23.2925 30.004 24.4303 30.7508 25.6339 31.3789Z" fill="#FF5364"/>
<path d="M22.2359 29.1497C21.7596 30.2114 21.4667 31.3461 21.3694 32.5057C20.5588 31.9596 19.7843 31.3618 19.0508 30.7158C19.0793 29.4316 19.3599 28.1653 19.8765 26.9897C19.9904 27.1158 20.1125 27.2379 20.2386 27.364C20.87 27.9966 21.5368 28.5928 22.2359 29.1497Z" fill="#955BA5"/>
<path d="M19.8781 26.9899C19.3614 28.1659 19.0808 29.4319 19.0524 30.716C18.6903 30.3906 18.3161 30.0449 17.9378 29.6666C17.525 29.2568 17.1287 28.8307 16.75 28.3893C16.7921 27.0012 17.1174 25.6363 17.7059 24.3784C18.3656 25.3006 19.0916 26.1734 19.8781 26.9899Z" fill="#B49ACA"/>
<path d="M16.4533 34.8772C15.6194 35.1335 14.7977 35.3613 14.0127 35.5565C13.7413 35.624 13.4571 35.6202 13.1876 35.5453C12.9182 35.4705 12.6726 35.3273 12.4749 35.1295C12.2772 34.9318 12.1339 34.6863 12.0591 34.4168C11.9843 34.1474 11.9804 33.8632 12.0479 33.5918C12.2432 32.8067 12.471 31.985 12.7272 31.1511C13.83 32.525 15.0794 33.7745 16.4533 34.8772Z" fill="#FF5364"/>
</g>
<defs>
<clipPath id="clip0_483_7325">
<rect width="24" height="24" fill="white" transform="translate(12 12)"/>
</clipPath>
</defs>
</svg>
