<svg width="48" height="48" viewBox="0 0 48 48" fill="none" xmlns="http://www.w3.org/2000/svg">
<circle cx="24" cy="24" r="24" fill="#FCF4EA"/>
<path d="M35.7268 31.9334L27.7315 34.7334H11.3982C10.8848 34.7334 10.4648 34.3134 10.4648 33.8V32.8667C10.4648 32.3534 10.8848 31.9334 11.3982 31.9334H11.8648C11.8648 25.232 17.2968 19.8 23.9982 19.8C30.6995 19.8 36.1315 25.232 36.1315 31.9334H35.7268Z" fill="#B0D3F0"/>
<path d="M27.7315 34.7333H11.3982C10.8848 34.7333 10.4648 34.3133 10.4648 33.8V32.8667C10.4648 32.3533 10.8848 31.9333 11.3982 31.9333H35.344L27.7315 34.7333Z" fill="#4482C3"/>
<path d="M20.2646 34.7333H36.5979C37.1112 34.7333 37.5312 34.3133 37.5312 33.8V32.8667C37.5312 32.3533 37.1112 31.9333 36.5979 31.9333H12.1052L20.2646 34.7333Z" fill="#4482C3"/>
<path d="M14.2635 29.1333C14.1894 29.1332 14.1165 29.1155 14.0506 29.0817C13.9848 29.0479 13.9279 28.9989 13.8847 28.9388C13.8415 28.8787 13.8132 28.8091 13.8021 28.7359C13.7911 28.6627 13.7976 28.588 13.8211 28.5178C14.7068 25.8844 16.6374 23.6458 19.1177 22.3746C19.2279 22.3181 19.356 22.3077 19.4738 22.3457C19.5916 22.3837 19.6894 22.4669 19.7459 22.5771C19.8023 22.6872 19.8127 22.8153 19.7747 22.9331C19.7367 23.0509 19.6535 23.1488 19.5433 23.2052C17.2777 24.3663 15.5146 26.4112 14.7054 28.815C14.6396 29.0101 14.4581 29.1333 14.263 29.1333H14.2635ZM21.1972 22.5211C21.0841 22.5218 20.9747 22.4814 20.8892 22.4074C20.8037 22.3334 20.748 22.2309 20.7325 22.1189C20.717 22.0069 20.7427 21.8931 20.8048 21.7987C20.8669 21.7042 20.9613 21.6356 21.0703 21.6055C22.0227 21.3359 23.0078 21.1994 23.9977 21.2C24.1214 21.2 24.2401 21.2491 24.3277 21.3366C24.4152 21.4242 24.4643 21.5429 24.4643 21.6666C24.4643 21.7904 24.4152 21.9091 24.3277 21.9966C24.2401 22.0841 24.1214 22.1333 23.9977 22.1333C23.0905 22.1333 22.1912 22.2579 21.3251 22.5034C21.2836 22.5152 21.2403 22.5211 21.1972 22.5211Z" fill="white"/>
<path d="M23.9977 19.8C24.7709 19.8 25.3977 19.1732 25.3977 18.4C25.3977 17.6268 24.7709 17 23.9977 17C23.2245 17 22.5977 17.6268 22.5977 18.4C22.5977 19.1732 23.2245 19.8 23.9977 19.8Z" fill="#90BAE1"/>
</svg>
