<svg width="72" height="72" viewBox="0 0 72 72" fill="none" xmlns="http://www.w3.org/2000/svg">
<g clip-path="url(#clip0_483_6545)">
<path d="M0 25.5938L10.6864 37.7215L17.0156 38.25V12.9375L0 25.5938Z" fill="#FDBF00"/>
<path d="M54.9844 12.9375V38.25L65.4044 34.6537L72 25.5938L54.9844 12.9375Z" fill="#FDBF00"/>
<path d="M59.2031 2.10938V49.8516C59.2031 51.0331 58.2753 51.9609 57.0938 51.9609H14.9062C13.7247 51.9609 12.7969 51.0331 12.7969 49.8516V2.10938C12.7969 0.927844 13.7247 0 14.9062 0H57.0938C58.2753 0 59.2031 0.927844 59.2031 2.10938Z" fill="#EAF5F5"/>
<path d="M59.2031 2.10938V49.8516C59.2031 51.0331 58.2753 51.9609 57.0938 51.9609H36V0H57.0938C58.2753 0 59.2031 0.927844 59.2031 2.10938Z" fill="#EAF5F5"/>
<path d="M0 69.8906C0 70.4728 0.23625 71.0002 0.618047 71.382L22.7202 61.0439L29.6197 47.7032L0 25.5938V69.8906Z" fill="#FFD400"/>
<path d="M71.3806 71.382C71.5767 71.1863 71.7323 70.9539 71.8384 70.698C71.9445 70.442 71.9989 70.1677 71.9986 69.8906V25.5938L42.3789 47.7032L51.4674 62.8401L71.3806 71.382Z" fill="#FFD400"/>
<path d="M42.6237 36.6888C40.556 37.7435 38.3203 38.25 36 38.25V34.0312C37.6453 34.0312 39.2487 33.6516 40.7253 32.9344C41.78 32.3859 43.0456 32.8078 43.5514 33.8625C44.0574 34.9172 43.6361 36.1828 42.6237 36.6888ZM50.7656 23.4844C50.7656 26.9862 47.9393 29.8125 44.4375 29.8125C42.7922 29.8125 41.3581 29.1797 40.2188 28.1672C39.0794 29.1797 37.6453 29.8125 36 29.8125V25.5938C37.1815 25.5938 38.1094 24.6659 38.1094 23.4844C38.1094 22.3028 37.1815 21.375 36 21.375V17.1562C39.5018 17.1562 42.3281 19.9825 42.3281 23.4844C42.3281 24.6659 43.256 25.5938 44.4375 25.5938C45.619 25.5938 46.5469 24.6659 46.5469 23.4844C46.5469 17.6628 41.8216 12.9375 36 12.9375V8.71875C44.1419 8.71875 50.7656 15.3425 50.7656 23.4844Z" fill="#B760EA"/>
<path d="M71.3672 71.3672C70.9875 71.7469 70.4812 72 69.8906 72H2.10938C1.51875 72 1.0125 71.7469 0.632812 71.3672L33.3425 44.6628C34.1016 44.03 35.0722 43.7344 36 43.7344C36.9278 43.7344 37.8984 44.03 38.6575 44.6628L71.3672 71.3672Z" fill="#FFE470"/>
<path d="M71.3672 71.3672C70.9875 71.7469 70.4813 72 69.8906 72H36V43.7344C36.9278 43.7344 37.8984 44.03 38.6575 44.6628L71.3672 71.3672Z" fill="#FFE470"/>
<path d="M35.8749 8.71875C27.729 8.71875 21.0938 15.347 21.0938 23.4844C21.0938 31.6218 27.729 38.25 35.8749 38.25C44.0209 38.25 50.7656 31.6218 50.7656 23.4844C50.7656 15.347 44.0209 8.71875 35.8749 8.71875Z" fill="#00DD80"/>
<path d="M50.7656 23.4844C50.7656 31.6218 44.0139 38.25 35.8594 38.25V8.71875C44.0139 8.71875 50.7656 15.347 50.7656 23.4844Z" fill="#00DD80"/>
<path d="M43.6658 21.3628L35.8752 29.1054L35.3847 29.5994C35.0906 29.929 34.6657 30.0938 34.2407 30.0938C33.8158 30.0938 33.3908 29.929 33.0967 29.5994L28.1935 24.6575C27.5397 24.0315 27.5397 22.9774 28.1935 22.3513C28.8145 21.6924 29.8604 21.6924 30.4815 22.3513L34.2407 26.1071L35.8752 24.4598L41.2689 19.0567C41.89 18.3978 43.0447 18.3978 43.6659 19.0567C44.3197 19.6828 44.3197 20.7369 43.6658 21.3628Z" fill="#F7F0EB"/>
</g>
<defs>
<clipPath id="clip0_483_6545">
<rect width="72" height="72" fill="white"/>
</clipPath>
</defs>
</svg>
