<svg width="20" height="20" viewBox="0 0 20 20" fill="none" xmlns="http://www.w3.org/2000/svg">
<path d="M10.4987 9.99999L7.2487 6.74999C7.09592 6.59721 7.01953 6.40277 7.01953 6.16666C7.01953 5.93055 7.09592 5.7361 7.2487 5.58332C7.40148 5.43055 7.59592 5.35416 7.83203 5.35416C8.06814 5.35416 8.26259 5.43055 8.41536 5.58332L12.2487 9.41666C12.332 9.49999 12.3911 9.59027 12.4258 9.68749C12.4605 9.78471 12.4779 9.88888 12.4779 9.99999C12.4779 10.1111 12.4605 10.2153 12.4258 10.3125C12.3911 10.4097 12.332 10.5 12.2487 10.5833L8.41536 14.4167C8.26259 14.5694 8.06814 14.6458 7.83203 14.6458C7.59592 14.6458 7.40148 14.5694 7.2487 14.4167C7.09592 14.2639 7.01953 14.0694 7.01953 13.8333C7.01953 13.5972 7.09592 13.4028 7.2487 13.25L10.4987 9.99999Z" fill="#2A9DA0"/>
</svg>
