<svg width="106" height="80" viewBox="0 0 106 80" fill="none" xmlns="http://www.w3.org/2000/svg">
<path d="M53 80C82.2711 80 106 78.2091 106 76C106 73.7909 82.2711 72 53 72C23.7289 72 0 73.7909 0 76C0 78.2091 23.7289 80 53 80Z" fill="#EAF5F5"/>
<path d="M47.453 14.434C47.9284 11.6796 48.8956 9.12524 50.582 6.87627C53.4086 3.10794 57.1649 0.881534 61.8163 0.157954C61.9562 0.136894 62.1262 0.185032 62.1999 0H66.1096C68.4037 0.108311 70.4797 0.911621 72.4714 1.99323C75.2003 3.47499 77.3169 5.58857 78.8618 8.26175C79.6245 9.58105 80.2262 10.9801 80.6339 12.4648C80.828 13.1674 80.7603 13.9015 80.9964 14.5874V14.8883C80.8731 15.1892 80.8731 15.49 80.9964 15.7909V17.8955C80.834 18.1888 80.9588 18.5062 80.9182 18.8086C80.8385 22.0835 79.4756 24.8725 77.5229 27.3832C74.8768 30.7845 71.3718 32.853 67.1281 33.6036C61.9592 34.5182 57.3334 33.223 53.2853 29.9346C49.5741 26.9184 47.626 22.9214 47.1566 18.2068C47.0318 16.9568 46.9009 15.6555 47.4515 14.434H47.453Z" fill="#E66E54"/>
<path d="M4.00301 6.46541C4.61076 5.1055 5.70891 4.758 7.11546 4.7926C9.6683 4.85728 12.2256 4.84074 14.78 4.78959C15.4314 4.77605 15.6164 5.02276 15.7623 5.58086C18.1978 14.8911 20.6514 24.1954 23.1019 33.5011C24.534 38.9393 25.9797 44.3744 27.3832 49.82C27.5367 50.4158 27.7909 50.5361 28.3535 50.5361C44.9357 50.5211 61.5194 50.5331 78.1016 50.509C79.5126 50.5075 80.5205 50.9438 80.9989 52.3278V53.6816C80.3896 55.0386 79.29 55.356 77.8849 55.353C60.1234 55.3259 42.3618 55.3304 24.6002 55.353C23.9308 55.353 23.6736 55.1785 23.5006 54.515C20.0752 41.4064 16.6213 28.3052 13.1719 15.204C12.7326 13.5357 12.2663 11.875 11.8586 10.1991C11.7458 9.73581 11.5517 9.60343 11.0959 9.61246C9.76909 9.63953 8.43776 9.56883 7.11395 9.63652C5.70741 9.70873 4.60775 9.32814 4 7.96823V6.4639L4.00301 6.46541Z" fill="#2A9DA0"/>
<path d="M29.9837 40.9149C28.9201 36.9059 27.8506 32.8969 26.796 28.8848C25.588 24.2891 24.3936 19.6904 23.1886 15.0947C23.0954 14.7367 22.9434 14.4253 23.5632 14.4268C29.928 14.4478 36.2928 14.4523 42.6576 14.4599C42.8547 14.6675 42.8141 14.9157 42.793 15.1684C42.4891 18.863 43.1104 22.3997 44.6478 25.7709C45.3037 27.209 46.0679 28.59 47.0578 29.8295C47.4068 30.2658 47.5286 30.7442 47.5256 31.2933C47.5151 32.8698 47.5031 34.4478 47.5286 36.0244C47.5647 38.2147 49.6046 38.6178 50.8126 38.0131C51.6159 37.6099 51.8475 36.8984 51.9092 36.0951C52.022 34.6088 52.0025 34.6238 53.3128 35.3685C56.0235 36.9089 58.9134 37.8521 62.0363 38.171C64.9562 38.4704 67.7768 38.1229 70.5613 37.3015C71.1932 37.115 71.6685 37.1345 72.186 37.64C72.9081 38.3455 73.8167 38.4538 74.7659 38.0567C75.658 37.6821 75.9844 36.9164 75.9513 36.059C75.9137 35.0962 76.2703 34.4794 77.045 33.9424C78.3041 33.0699 79.3842 31.9867 80.35 30.7938C80.5125 30.5922 80.6539 30.3109 80.9999 30.3756V32.4802C80.9337 34.1274 80.3801 35.5971 79.4143 36.9254C77.4196 39.6648 74.7268 41.1165 71.3436 41.124C59.6715 41.1511 47.998 41.1345 36.3259 41.1345C34.5719 41.1345 32.8193 41.1361 31.0653 41.1345C30.6907 41.1345 30.3086 41.1616 29.9822 40.9164L29.9837 40.9149Z" fill="#FFCF74"/>
<path d="M80.9997 30.3745C79.6549 31.9856 78.1972 33.4794 76.4522 34.6633C76.1618 34.8604 76.1919 35.1146 76.1859 35.3869C76.1754 35.9089 76.1964 36.4234 76.0445 36.9454C75.7647 37.9036 75.0532 38.3143 74.1806 38.4647C73.2976 38.6167 72.4672 38.3639 71.885 37.6584C71.6067 37.3199 71.3871 37.2688 70.9975 37.3906C68.5063 38.1714 65.9625 38.6107 63.342 38.4933C59.6865 38.3293 56.2686 37.3455 53.1081 35.4937C52.8117 35.3207 52.5123 35.1522 52.1874 34.9672C52.0204 35.6005 52.219 36.2022 52.0219 36.7859C51.6263 37.9593 50.5883 38.6543 49.3849 38.4873C48.1543 38.3173 47.3315 37.4012 47.3179 36.1315C47.2999 34.4542 47.3059 32.7754 47.3179 31.0966C47.3209 30.7039 47.2201 30.4016 46.9719 30.0751C44.6477 27.0093 43.1946 23.5614 42.6816 19.7539C42.4454 18.0029 42.3551 16.2263 42.6545 14.4602C44.2551 14.4512 45.8542 14.4422 47.4548 14.4316C47.4909 15.2079 47.2938 15.9661 47.3014 16.7468C47.351 21.6253 49.1081 25.7833 52.6417 29.1214C55.2893 31.6231 58.4695 33.1093 62.1205 33.5426C66.6605 34.0796 70.7658 32.9634 74.3762 30.206C78.128 27.3403 80.2972 23.5133 80.8568 18.8032C80.9005 18.731 80.9471 18.725 80.9982 18.7957V30.3745H80.9997Z" fill="#F9AB43"/>
<path d="M29.9805 40.9147C36.7695 40.9102 43.56 40.9042 50.349 40.9027C57.2644 40.9012 64.1798 40.859 71.0937 40.9177C75.3524 40.9538 79.1283 38.3212 80.5378 34.2671C80.7409 33.6819 80.7018 33.0395 80.9982 32.4814V37.5946C80.7078 38.0429 80.7108 38.58 80.5499 39.0689C79.2531 43.0177 75.566 45.7135 71.4141 45.7135C58.2663 45.7135 45.1185 45.709 31.9707 45.7315C31.3163 45.7315 31.0636 45.533 30.9342 44.9162C30.6529 43.5743 30.3024 42.2475 29.9805 40.9147Z" fill="#F9AB43"/>
<path d="M35.1335 76.9927C34.0775 76.5925 32.9778 76.3187 32 75.6989C28.8815 73.7208 27.3215 69.79 28.3821 66.4699C28.8574 66.0186 28.8695 66.6068 28.9402 66.7723C29.2576 67.5124 29.6412 68.2059 30.1286 68.8467C33.8202 73.6982 41.5058 72.7279 43.8706 67.1107C43.9669 66.8806 44.0451 66.6399 44.1971 66.4383C44.3385 66.2503 44.4769 66.2443 44.5897 66.4699C46.0037 70.9001 42.7469 76.0871 38.0744 76.8437C37.9376 76.8663 37.7646 76.8076 37.6893 76.9927H35.1335Z" fill="#333333"/>
<path d="M73.4608 66.4689C74.8748 70.8992 71.618 76.0861 66.9455 76.8428C66.8086 76.8653 66.6356 76.8067 66.5604 76.9917H64.0046C62.9485 76.5915 61.8489 76.3177 60.8711 75.698C57.7526 73.7198 56.1926 69.789 57.2532 66.4689C57.7285 66.0161 57.7406 66.6058 57.8113 66.7713C58.1287 67.5114 58.5123 68.2049 58.9997 68.8458C62.6913 73.6972 70.3769 72.7269 72.7417 67.1098C72.838 66.8796 72.9162 66.6389 73.0681 66.4373C73.2096 66.2493 73.3479 66.2433 73.4608 66.4689Z" fill="#333333"/>
<path d="M64.4997 8.91529C64.2785 8.61443 64.2635 8.31356 64.4997 8.0127V8.91529Z" fill="#F09541"/>
<path d="M80.9992 18.7961C80.951 18.7961 80.9044 18.7992 80.8578 18.8037C80.8879 18.4983 80.7329 18.1628 80.9992 17.8936V18.7961Z" fill="#F09541"/>
<path d="M44.5865 66.4683C44.0901 66.3149 44.2255 66.7963 44.1533 66.9663C43.1138 69.4168 41.3266 71.0249 38.8024 71.8418C35.4327 72.9324 31.2958 71.3514 29.4951 68.2946C29.1762 67.753 28.9009 67.1979 28.6903 66.6113C28.6181 66.4112 28.5444 66.3826 28.3789 66.4683C28.9039 63.6252 31.5997 61.0076 34.6956 60.3352C39.0055 59.3995 43.377 62.0125 44.579 66.2472C44.5985 66.3164 44.585 66.3946 44.5865 66.4699V66.4683Z" fill="#595959"/>
<path d="M73.4615 66.4683C72.9651 66.3149 73.1005 66.7963 73.0283 66.9663C71.9888 69.4168 70.2016 71.0249 67.6774 71.8418C64.3077 72.9324 60.1708 71.3514 58.3701 68.2946C58.0512 67.753 57.7759 67.1979 57.5653 66.6113C57.4931 66.4112 57.4194 66.3826 57.2539 66.4683C57.7789 63.6252 60.4747 61.0076 63.5706 60.3352C67.8805 59.3995 72.252 62.0125 73.454 66.2472C73.4735 66.3164 73.46 66.3946 73.4615 66.4699V66.4683Z" fill="#595959"/>
<path d="M35.2809 28.8106C35.2809 26.4804 35.2719 24.1487 35.2854 21.8185C35.29 20.9415 35.478 20.1231 36.3174 19.6327C37.3042 19.055 38.2956 19.1212 39.2253 19.7305C39.8571 20.1457 40.0782 20.8542 40.0812 21.5642C40.1023 26.4262 40.1023 31.2882 40.0872 36.1502C40.0827 37.5296 39.0718 38.4894 37.7014 38.4969C36.2963 38.5029 35.2945 37.5312 35.2854 36.1051C35.2704 33.6741 35.2809 31.2431 35.2809 28.8121V28.8106Z" fill="#F9AB43"/>
<mask id="mask0_483_13282" style="mask-type:alpha" maskUnits="userSpaceOnUse" x="54" y="7" width="20" height="20">
<rect x="54" y="7" width="20" height="20" fill="#D9D9D9"/>
</mask>
<g mask="url(#mask0_483_13282)">
<path d="M63.9987 24.5C63.5404 24.5 63.148 24.3368 62.8216 24.0104C62.4952 23.684 62.332 23.2917 62.332 22.8333C62.332 22.375 62.4952 21.9826 62.8216 21.6562C63.148 21.3299 63.5404 21.1667 63.9987 21.1667C64.457 21.1667 64.8494 21.3299 65.1758 21.6562C65.5022 21.9826 65.6654 22.375 65.6654 22.8333C65.6654 23.2917 65.5022 23.684 65.1758 24.0104C64.8494 24.3368 64.457 24.5 63.9987 24.5ZM62.332 19.5V9.5H65.6654V19.5H62.332Z" fill="white"/>
</g>
</svg>
