<svg width="49" height="48" viewBox="0 0 49 48" fill="none" xmlns="http://www.w3.org/2000/svg">
<path d="M33.5 46H15.5C14.3954 46 13.5 45.1046 13.5 44V4C13.5 2.89543 14.3954 2 15.5 2H33.5C34.6046 2 35.5 2.89543 35.5 4V8.8C35.5 9.90457 34.6046 10.8 33.5 10.8H24.3C23.1954 10.8 22.3 11.6954 22.3 12.8V17.6C22.3 18.7046 23.1954 19.6 24.3 19.6H29.1C30.2046 19.6 31.1 20.4954 31.1 21.6V26.4C31.1 27.5046 30.2046 28.4 29.1 28.4H24.3C23.1954 28.4 22.3 29.2954 22.3 30.4V35.2C22.3 36.3046 23.1954 37.2 24.3 37.2H33.5C34.6046 37.2 35.5 38.0954 35.5 39.2V44C35.5 45.1046 34.6046 46 33.5 46Z" fill="#524798"/>
</svg>
