<svg width="20" height="21" viewBox="0 0 20 21" fill="none" xmlns="http://www.w3.org/2000/svg">
<path d="M9.99868 14.9423C10.1894 14.9423 10.3492 14.8778 10.4782 14.7488C10.6072 14.6198 10.6717 14.4599 10.6717 14.2692C10.6717 14.0785 10.6072 13.9187 10.4782 13.7897C10.3492 13.6607 10.1894 13.5962 9.99868 13.5962C9.80797 13.5962 9.64811 13.6607 9.51911 13.7897C9.39011 13.9187 9.32561 14.0785 9.32561 14.2692C9.32561 14.4599 9.39011 14.6198 9.51911 14.7488C9.64811 14.8778 9.80797 14.9423 9.99868 14.9423ZM9.99895 11.8974C10.1761 11.8974 10.3245 11.8375 10.4442 11.7178C10.5638 11.598 10.6237 11.4495 10.6237 11.2725V7.52242C10.6237 7.34535 10.5637 7.19692 10.4439 7.07713C10.3241 6.95734 10.1756 6.89744 9.99841 6.89744C9.82124 6.89744 9.67283 6.95734 9.55318 7.07713C9.43352 7.19692 9.3737 7.34535 9.3737 7.52242V11.2725C9.3737 11.4495 9.43361 11.598 9.55345 11.7178C9.6733 11.8375 9.8218 11.8974 9.99895 11.8974ZM10.0001 18.9167C8.90513 18.9167 7.87593 18.7089 6.91249 18.2933C5.94903 17.8778 5.11096 17.3138 4.39828 16.6014C3.68559 15.8891 3.12137 15.0514 2.70564 14.0883C2.2899 13.1253 2.08203 12.0963 2.08203 11.0014C2.08203 9.90646 2.28981 8.87726 2.70536 7.91382C3.12092 6.95036 3.68488 6.11229 4.39724 5.39961C5.10961 4.68692 5.94732 4.1227 6.91034 3.70696C7.87336 3.29123 8.90234 3.08336 9.99728 3.08336C11.0922 3.08336 12.1214 3.29114 13.0849 3.70669C14.0483 4.12225 14.8864 4.68621 15.5991 5.39857C16.3118 6.11094 16.876 6.94864 17.2917 7.91167C17.7075 8.87469 17.9153 9.90367 17.9153 10.9986C17.9153 12.0936 17.7075 13.1227 17.292 14.0862C16.8764 15.0497 16.3125 15.8877 15.6001 16.6004C14.8877 17.3131 14.05 17.8773 13.087 18.293C12.124 18.7088 11.095 18.9167 10.0001 18.9167ZM9.99868 17.6667C11.8598 17.6667 13.4362 17.0208 14.7278 15.7292C16.0195 14.4375 16.6653 12.8611 16.6653 11C16.6653 9.13889 16.0195 7.56251 14.7278 6.27084C13.4362 4.97917 11.8598 4.33334 9.99868 4.33334C8.13757 4.33334 6.56118 4.97917 5.26951 6.27084C3.97784 7.56251 3.33201 9.13889 3.33201 11C3.33201 12.8611 3.97784 14.4375 5.26951 15.7292C6.56118 17.0208 8.13757 17.6667 9.99868 17.6667Z" fill="#E4572E"/>
</svg>
