<svg width="328" height="104" viewBox="0 0 328 104" fill="none" xmlns="http://www.w3.org/2000/svg">
<rect width="328" height="104" rx="16" fill="#FFF3D6"/>
<path fill-rule="evenodd" clip-rule="evenodd" d="M300.146 46.0681C301.288 46.0681 302.405 46.4069 303.355 47.0415C304.305 47.6762 305.045 48.5782 305.482 49.6336C305.919 50.689 306.034 51.8503 305.811 52.9707C305.588 54.091 305.038 55.1202 304.23 55.9279C303.422 56.7357 302.393 57.2858 301.273 57.5086C300.153 57.7315 298.991 57.6171 297.936 57.18C296.88 56.7428 295.978 56.0025 295.344 55.0527C294.709 54.1029 294.37 52.9862 294.37 51.8439C294.37 50.3121 294.979 48.843 296.062 47.7598C297.145 46.6767 298.614 46.0682 300.146 46.0681ZM251.858 46.0681C253 46.0681 254.117 46.4069 255.067 47.0415C256.016 47.6762 256.757 48.5782 257.194 49.6336C257.631 50.689 257.745 51.8503 257.523 52.9707C257.3 54.091 256.75 55.1202 255.942 55.9279C255.134 56.7357 254.105 57.2858 252.985 57.5086C251.864 57.7315 250.703 57.6171 249.647 57.18C248.592 56.7428 247.69 56.0025 247.055 55.0527C246.421 54.1029 246.082 52.9862 246.082 51.8439C246.082 50.3121 246.691 48.843 247.774 47.7598C248.857 46.6767 250.326 46.0682 251.858 46.0681ZM276.002 48.2674C277.617 48.2674 279.196 48.7464 280.539 49.6438C281.883 50.5412 282.929 51.8168 283.548 53.3091C284.166 54.8015 284.327 56.4437 284.012 58.028C283.697 59.6123 282.919 61.0675 281.777 62.2097C280.635 63.3519 279.18 64.1298 277.595 64.4449C276.011 64.76 274.369 64.5982 272.876 63.9801C271.384 63.3619 270.109 62.315 269.211 60.9719C268.314 59.6288 267.835 58.0498 267.835 56.4344C267.835 54.2684 268.695 52.1911 270.227 50.6595C271.759 49.1279 273.836 48.2674 276.002 48.2674Z" fill="#F9AB4B"/>
<path fill-rule="evenodd" clip-rule="evenodd" d="M276.002 66.9238C271.977 66.9238 268.118 68.5225 265.272 71.368C262.427 74.2136 260.828 78.073 260.828 82.0973H291.175C291.175 78.073 289.576 74.2136 286.731 71.368C283.885 68.5225 280.026 66.9238 276.002 66.9238Z" fill="#E38E31"/>
<path opacity="0.5" d="M307.733 62.405C305.72 60.3926 302.991 59.262 300.145 59.262C297.299 59.262 294.569 60.3926 292.557 62.405C290.545 64.4174 289.414 67.1468 289.414 69.9928H310.876C310.876 67.1468 309.745 64.4174 307.733 62.405Z" fill="#E38E31"/>
<path fill-rule="evenodd" clip-rule="evenodd" d="M300.146 25.9577L302.09 29.5927L306.148 30.3185L303.292 33.2908L303.856 37.3749L300.146 35.5763L296.436 37.3749L297 33.2913L294.144 30.3185L298.202 29.5927L300.146 25.9577ZM251.858 25.9577L253.802 29.5927L257.86 30.3185L255.003 33.2908L255.567 37.3749L251.858 35.5763L248.148 37.3749L248.712 33.2913L245.855 30.3185L249.913 29.5927L251.858 25.9577ZM276.002 21.9021L278.637 26.8281L284.136 27.8124L280.265 31.8406L281.029 37.3749L276.002 34.9376L270.975 37.3749L271.738 31.8408L267.868 27.8124L273.367 26.8281L276.002 21.9021Z" fill="#FFC533"/>
<path opacity="0.5" d="M259.319 62.143C257.306 60.1306 254.577 59 251.731 59C248.885 59 246.155 60.1306 244.143 62.143C242.131 64.1554 241 66.8848 241 69.7308H262.462C262.462 66.8848 261.331 64.1554 259.319 62.143Z" fill="#E38E31"/>
</svg>
