<svg width="328" height="156" viewBox="0 0 328 156" fill="none" xmlns="http://www.w3.org/2000/svg">
<rect width="328" height="156" rx="16" fill="#EBF7DE"/>
<mask id="mask0_486_9992" style="mask-type:alpha" maskUnits="userSpaceOnUse" x="0" y="0" width="328" height="156">
<rect width="328" height="156" rx="16" fill="#EBF7DE"/>
</mask>
<g mask="url(#mask0_486_9992)">
<circle cx="308" cy="136" r="68" fill="#DAEDC6"/>
<circle cx="308" cy="136" r="52" fill="#CFE2BA"/>
<path d="M241.365 143.043C254.147 145.83 268.527 162.002 275.015 169.348C275.293 169.651 275.66 169.858 276.063 169.939C276.467 170.021 276.885 169.973 277.259 169.802C277.633 169.631 277.944 169.346 278.146 168.988C278.349 168.63 278.433 168.217 278.386 167.808C276.71 140.374 263.441 124.065 261.317 121.63L241.365 143.043Z" fill="#E57E25"/>
<path d="M265.562 99.3588C282.007 113.7 287.385 149.824 289.08 168.101C289.113 168.591 289.322 169.053 289.667 169.402C290.013 169.751 290.473 169.964 290.962 170.002C291.452 170.039 291.939 169.9 292.334 169.608C292.729 169.316 293.006 168.892 293.114 168.413C296.554 153.78 298.209 138.784 298.043 123.754C298.043 121.26 297.965 118.844 297.81 116.525H297.517C297.181 116.515 296.857 116.399 296.591 116.193C296.325 115.987 296.131 115.702 296.038 115.379C295.945 115.056 295.957 114.712 296.072 114.396C296.187 114.08 296.4 113.809 296.679 113.622L297.537 112.979C295.082 87.5315 284.482 73.9507 282.105 71.1838L265.562 99.3588Z" fill="#E38E31"/>
<path d="M302.857 116.544C310.846 127.261 306.988 155.631 304.922 167.575C304.824 167.975 304.855 168.397 305.011 168.778C305.167 169.16 305.44 169.482 305.791 169.699C306.142 169.916 306.552 170.015 306.963 169.984C307.375 169.952 307.765 169.791 308.079 169.523C329.2 150.37 331.519 121.143 331.168 116.155V116.038L302.857 116.525V116.544Z" fill="#C47A2A"/>
<path d="M244.715 82.3876L257.477 86.7522C257.815 86.8698 258.112 87.0837 258.33 87.3676C258.548 87.6514 258.678 87.9929 258.705 88.3499L259.991 102.359C260.007 102.728 260.139 103.081 260.368 103.37C260.598 103.658 260.913 103.866 261.269 103.963C261.624 104.061 262.001 104.043 262.346 103.912C262.691 103.782 262.985 103.545 263.186 103.236L265.563 99.3588L269.987 92.1105C270.178 91.7935 270.47 91.549 270.815 91.4151C271.161 91.2811 271.541 91.2653 271.896 91.3701L284.386 95.1501C284.741 95.2415 285.117 95.2191 285.459 95.0859C285.801 94.9527 286.092 94.7155 286.293 94.4078C286.493 94.1 286.591 93.7372 286.574 93.3705C286.557 93.0038 286.426 92.6517 286.198 92.3638L277.819 81.0626C277.601 80.7794 277.47 80.4388 277.443 80.0824C277.415 79.726 277.492 79.3692 277.664 79.0557L282.106 71.1839L284.288 67.3064C284.47 66.9856 284.551 66.6171 284.519 66.2496C284.488 65.8821 284.345 65.5328 284.111 65.2479C283.877 64.9629 283.562 64.7557 283.207 64.6536C282.853 64.5515 282.475 64.5593 282.126 64.676L270.24 69.2159C269.892 69.3376 269.515 69.3466 269.161 69.2417C268.808 69.1368 268.497 68.9232 268.272 68.6314L259.718 57.7004C259.499 57.3982 259.187 57.1766 258.829 57.0701C258.471 56.9635 258.089 56.978 257.74 57.1112C257.391 57.2444 257.096 57.489 256.901 57.8069C256.706 58.1248 256.62 58.4983 256.659 58.8695L257.555 72.7037C257.589 73.0749 257.501 73.447 257.304 73.7635C257.107 74.08 256.812 74.3236 256.464 74.4573L244.578 78.9972C244.244 79.1451 243.961 79.3903 243.768 79.7009C243.574 80.0115 243.478 80.3731 243.493 80.7388C243.508 81.1045 243.632 81.4573 243.85 81.7514C244.068 82.0454 244.369 82.2671 244.715 82.3876ZM224.879 121.766L236.414 128.781C236.713 128.972 236.951 129.244 237.103 129.564C237.254 129.884 237.313 130.241 237.272 130.593L235.499 144.563C235.442 144.925 235.501 145.296 235.666 145.623C235.831 145.95 236.094 146.217 236.418 146.387C236.743 146.556 237.112 146.62 237.475 146.569C237.838 146.518 238.175 146.355 238.441 146.103L241.363 143.044L247.462 136.692C247.717 136.421 248.054 136.243 248.422 136.187C248.789 136.13 249.164 136.198 249.489 136.38L260.868 142.751C261.196 142.922 261.57 142.984 261.936 142.929C262.302 142.874 262.641 142.704 262.905 142.445C263.168 142.185 263.343 141.849 263.404 141.484C263.466 141.119 263.41 140.744 263.245 140.413L257.477 127.573C257.334 127.251 257.286 126.895 257.337 126.546C257.389 126.198 257.539 125.871 257.77 125.605L261.316 121.63L266.752 115.531C266.998 115.259 267.156 114.917 267.205 114.553C267.253 114.189 267.189 113.818 267.023 113.491C266.856 113.163 266.593 112.894 266.27 112.719C265.947 112.544 265.578 112.472 265.213 112.511L252.626 114.382C252.257 114.431 251.882 114.361 251.556 114.182C251.23 114.004 250.97 113.725 250.814 113.388L244.832 100.879C244.681 100.536 244.422 100.253 244.094 100.072C243.767 99.8912 243.389 99.8233 243.019 99.8787C242.649 99.9341 242.307 100.11 242.047 100.378C241.786 100.647 241.621 100.994 241.578 101.366L239.493 115.083C239.44 115.451 239.272 115.792 239.013 116.058C238.754 116.325 238.417 116.502 238.051 116.564L225.464 118.434C225.104 118.505 224.775 118.682 224.518 118.944C224.262 119.206 224.091 119.539 224.027 119.9C223.964 120.26 224.012 120.632 224.164 120.965C224.316 121.298 224.565 121.578 224.879 121.766ZM297.518 116.525H309.385C309.722 116.524 310.05 116.637 310.315 116.846C310.58 117.055 310.767 117.346 310.846 117.674L313.827 129.151C313.92 129.475 314.114 129.76 314.381 129.966C314.647 130.172 314.972 130.288 315.309 130.297C315.645 130.305 315.976 130.206 316.253 130.014C316.529 129.822 316.738 129.547 316.847 129.229L321.66 117.382C321.778 117.08 321.98 116.818 322.243 116.628C322.505 116.438 322.817 116.328 323.141 116.311L331.169 116.038L335.397 115.882C335.732 115.871 336.056 115.759 336.326 115.56C336.596 115.362 336.799 115.086 336.909 114.769C337.018 114.452 337.03 114.11 336.941 113.787C336.851 113.463 336.667 113.175 336.41 112.959L327.272 105.886C327.005 105.678 326.813 105.389 326.725 105.062C326.637 104.735 326.658 104.388 326.785 104.074L331.227 92.2664C331.354 91.9511 331.374 91.6031 331.285 91.2752C331.195 90.9474 331.001 90.6578 330.732 90.4504C330.463 90.243 330.133 90.1293 329.794 90.1265C329.454 90.1236 329.122 90.2319 328.85 90.4348L318.543 97.7026C318.266 97.8994 317.934 98.0035 317.594 98C317.255 97.9965 316.925 97.8856 316.652 97.6831L307.514 90.6101C307.241 90.4181 306.915 90.3132 306.581 90.3091C306.247 90.3051 305.92 90.4021 305.642 90.5875C305.363 90.7729 305.148 91.038 305.023 91.348C304.898 91.658 304.87 91.9985 304.942 92.3248L307.612 104.288C307.748 104.941 307.489 105.613 306.949 106.003L297.538 112.979L296.681 113.622C296.401 113.809 296.189 114.08 296.073 114.396C295.958 114.712 295.946 115.056 296.039 115.379C296.133 115.702 296.326 115.987 296.592 116.193C296.858 116.399 297.182 116.515 297.518 116.525Z" fill="#FFC533"/>
</g>
</svg>
