<svg width="21" height="20" viewBox="0 0 21 20" fill="none" xmlns="http://www.w3.org/2000/svg">
<path d="M18.8405 8.36792H18.1693V8.33334H10.6693V11.6667H15.3789C14.6918 13.6071 12.8455 15 10.6693 15C7.90802 15 5.66927 12.7613 5.66927 10C5.66927 7.23876 7.90802 5.00001 10.6693 5.00001C11.9439 5.00001 13.1034 5.48084 13.9864 6.26625L16.3434 3.90917C14.8551 2.52209 12.8643 1.66667 10.6693 1.66667C6.06719 1.66667 2.33594 5.39792 2.33594 10C2.33594 14.6021 6.06719 18.3333 10.6693 18.3333C15.2714 18.3333 19.0026 14.6021 19.0026 10C19.0026 9.44126 18.9451 8.89584 18.8405 8.36792Z" fill="#FFC107"/>
<path d="M3.29688 6.12125L6.03479 8.12917C6.77562 6.295 8.56979 5 10.6694 5C11.944 5 13.1035 5.48084 13.9865 6.26625L16.3435 3.90917C14.8552 2.52209 12.8644 1.66667 10.6694 1.66667C7.46854 1.66667 4.69271 3.47375 3.29688 6.12125Z" fill="#FF3D00"/>
<path d="M10.6687 18.3333C12.8212 18.3333 14.7771 17.5096 16.2558 16.17L13.6767 13.9875C12.84 14.6212 11.8 15 10.6687 15C8.50125 15 6.66083 13.6179 5.9675 11.6892L3.25 13.7829C4.62917 16.4817 7.43 18.3333 10.6687 18.3333Z" fill="#4CAF50"/>
<path d="M18.8392 8.36791H18.168V8.33333H10.668V11.6667H15.3776C15.0476 12.5987 14.448 13.4025 13.6746 13.9879C13.6751 13.9875 13.6755 13.9875 13.6759 13.9871L16.2551 16.1696C16.0726 16.3354 19.0013 14.1667 19.0013 9.99999C19.0013 9.44124 18.9438 8.89583 18.8392 8.36791Z" fill="#1976D2"/>
</svg>
