<svg width="129" height="50" viewBox="0 0 129 50" fill="none" xmlns="http://www.w3.org/2000/svg">
<g opacity="0.05">
<path d="M11.8484 6.98627C20.7213 16.4395 30.8276 23.4217 41.7772 28.0596C52.7016 32.7102 64.3433 34.9531 76.0355 34.9912C87.7276 34.9531 99.3819 32.7102 110.294 28.0596C121.231 23.4217 131.35 16.4395 140.223 6.98627C140.587 6.59344 141.192 6.58077 141.569 6.93558C141.846 7.20169 141.934 7.60719 141.808 7.94933C137.391 20.6592 127.687 31.5824 115.894 38.8561C104.051 46.1931 89.993 49.982 76.0229 49.9947C62.0528 49.9947 47.9945 46.1931 36.1514 38.8561C24.3712 31.5824 14.6802 20.6719 10.25 7.94933C10.0738 7.45513 10.3381 6.89757 10.829 6.73283C11.1939 6.60611 11.5841 6.70749 11.8358 6.9736L11.8484 6.98627Z" fill="#2A9DA0"/>
<path d="M0.0574921 12.7394C-0.194222 10.4331 0.397306 8.27893 1.50485 6.30211C2.62497 4.35064 4.33663 2.61459 6.41327 1.55015C8.47732 0.485709 10.7805 -0.10987 12.983 0.0168487C14.0905 -0.00849511 15.1477 0.320974 16.1798 0.523725C17.1992 0.865866 18.1683 1.28404 19.0745 1.82893C19.5527 2.10771 19.7038 2.72864 19.4143 3.1975C19.2884 3.40025 19.0997 3.55231 18.8983 3.62834L18.7598 3.67903C17.7782 4.03384 16.872 4.17323 16.0036 4.38865C15.1477 4.66744 14.2919 4.79415 13.5242 5.08561C11.9258 5.51645 10.5666 6.17539 9.27022 6.83433C7.9739 7.53128 6.79084 8.41832 5.58261 9.47008C4.37439 10.5092 3.19133 11.8144 1.86983 13.1703L1.73139 13.3097C1.35382 13.7025 0.73712 13.7025 0.346963 13.3097C0.183349 13.1449 0.0826635 12.9295 0.0574921 12.7141V12.7394Z" fill="#2A9DA0"/>
</g>
</svg>
