<svg width="24" height="24" viewBox="0 0 24 24" fill="none" xmlns="http://www.w3.org/2000/svg">
<g clip-path="url(#clip0_483_13451)">
<path d="M12 24C18.6274 24 24 18.6274 24 12C24 5.37258 18.6274 0 12 0C5.37258 0 0 5.37258 0 12C0 18.6274 5.37258 24 12 24Z" fill="#FFD93B"/>
<path d="M11.998 19.7137C8.48878 19.7137 5.43103 17.3369 4.56253 13.935C4.49428 13.6672 4.65553 13.3949 4.92328 13.3267C5.18953 13.2569 5.46253 13.4197 5.53078 13.6875C6.28678 16.647 8.94553 18.7139 11.9973 18.7139C15.049 18.7139 17.7085 16.647 18.4638 13.6875C18.5313 13.4197 18.8035 13.2569 19.072 13.3267C19.3398 13.3949 19.501 13.6672 19.4328 13.935C18.565 17.3369 15.5073 19.7137 11.998 19.7137Z" fill="#3E4347"/>
<path d="M24.0014 11.9995C24.0014 18.6295 18.6277 23.9995 12.0014 23.9995C8.22891 23.9995 4.86141 22.2595 2.66016 19.5332C4.71891 21.1982 7.34016 22.192 10.1939 22.192C16.8202 22.192 22.1939 16.822 22.1939 10.192C22.1939 7.3382 21.2002 4.71695 19.5352 2.6582C22.2577 4.85945 24.0014 8.22695 24.0014 11.9995Z" fill="#F4C534"/>
<path d="M8.12416 12.5116C9.13981 12.5116 9.96316 11.5331 9.96316 10.3261C9.96316 9.11911 9.13981 8.14062 8.12416 8.14062C7.10851 8.14062 6.28516 9.11911 6.28516 10.3261C6.28516 11.5331 7.10851 12.5116 8.12416 12.5116Z" fill="#3E4347"/>
<path d="M8.9521 9.85565C8.80885 9.96815 8.57335 9.91265 8.4226 9.72965C8.27185 9.54665 8.26435 9.3014 8.4076 9.1889C8.5501 9.07115 8.78635 9.12665 8.93635 9.30965C9.08785 9.4979 9.08935 9.73865 8.9521 9.85565Z" fill="#5A5F63"/>
<path d="M15.8781 12.5116C16.8937 12.5116 17.7171 11.5331 17.7171 10.3261C17.7171 9.11911 16.8937 8.14062 15.8781 8.14062C14.8624 8.14062 14.0391 9.11911 14.0391 10.3261C14.0391 11.5331 14.8624 12.5116 15.8781 12.5116Z" fill="#3E4347"/>
<path d="M16.706 9.85565C16.5628 9.96815 16.3273 9.91265 16.1765 9.72965C16.0258 9.54665 16.0183 9.3014 16.1615 9.1889C16.304 9.07115 16.5395 9.12665 16.6903 9.30965C16.8418 9.4979 16.8433 9.73865 16.706 9.85565Z" fill="#5A5F63"/>
</g>
<defs>
<clipPath id="clip0_483_13451">
<rect width="24" height="24" fill="white"/>
</clipPath>
</defs>
</svg>
