<svg width="24" height="24" viewBox="0 0 24 24" fill="none" xmlns="http://www.w3.org/2000/svg">
<g clip-path="url(#clip0_483_13462)">
<path d="M0 14.709V17.8832C0 19.1993 1.04516 20.1283 2.32258 20.1283H21.6774C22.9548 20.1283 24 19.1993 24 17.8832V14.709H0Z" fill="#DB2727"/>
<path d="M21.6774 3.87109H2.32258C1.04516 3.87109 0 4.80013 0 6.11626V9.29045H24V6.11626C24 4.80013 22.9548 3.87109 21.6774 3.87109Z" fill="#359846"/>
<path d="M0 9.29102H24V14.7104H0V9.29102Z" fill="white"/>
<path d="M21.5984 20.1283C22.8758 20.1283 23.9984 19.1993 23.9984 17.8832V14.709H15.25L21.5984 20.1283Z" fill="#C61A1A"/>
<path d="M21.6752 3.87109H2.32031L8.74612 9.29045H23.9977V6.11626C23.9977 4.80013 22.9526 3.87109 21.6752 3.87109Z" fill="#218930"/>
<path d="M15.2916 14.7104H24.0013V9.29102H8.71094L15.2916 14.7104Z" fill="#CFE5E2"/>
<path d="M21.6752 3.87109H2.32031L20.2429 9.29045H23.9977V6.11626C23.9977 4.80013 22.9526 3.87109 21.6752 3.87109Z" fill="#167221"/>
<path d="M23.9992 10.3749V9.29102H20.0508L23.9992 10.3749Z" fill="#BAD3CF"/>
<path d="M24 17.8453C24 19.2776 22.9548 20.1292 21.6774 20.1292H2.32258C1.04516 20.1292 0 19.1228 0 17.8066" fill="#B20B0B"/>
<path d="M0 6.11583V17.9223C0 18.2707 0.0774194 18.6191 0.232258 18.9287L4.25806 14.8642V9.13518L0.232258 5.10938C0.0774194 5.41905 0 5.76744 0 6.11583Z" fill="#383737"/>
<path d="M0 9.29066V9.25195V17.9229C0 18.2713 0.0774194 18.6197 0.232258 18.9294L4.25806 14.8649V9.29066" fill="#151515"/>
</g>
<defs>
<clipPath id="clip0_483_13462">
<rect width="24" height="24" fill="white"/>
</clipPath>
</defs>
</svg>
