<svg width="32" height="32" viewBox="0 0 32 32" fill="none" xmlns="http://www.w3.org/2000/svg">
<g filter="url(#filter0_d_483_12229)">
<circle cx="16" cy="15" r="14" fill="white"/>
</g>
<path fill-rule="evenodd" clip-rule="evenodd" d="M11.9299 8.46909C12.4296 8.29876 12.9528 8.25 13.4154 8.25C14.514 8.25 15.3422 8.71899 16.0011 9.18972C16.6652 8.71539 17.4879 8.24999 18.5994 8.25C19.0935 8.25 19.599 8.31907 20.0888 8.48202C23.0809 9.45123 24.0447 12.6727 23.2093 15.3189L23.2058 15.33L23.2019 15.3411C22.7396 16.6607 21.9836 17.866 20.9918 18.8521L20.9875 18.8563L20.9832 18.8605C19.5981 20.194 18.0427 21.3985 16.3868 22.3929L15.9959 22.6276L15.6075 22.3886C13.9552 21.3714 12.4292 20.1991 11.0273 18.8548L11.0215 18.8492L11.0158 18.8436C10.0325 17.8594 9.27655 16.663 8.80737 15.3446L8.80345 15.3335L8.79987 15.3224C7.94835 12.6704 8.917 9.45281 11.9299 8.46909ZM13.4154 9.75C13.0454 9.75 12.7 9.79076 12.4106 9.88998L12.405 9.89189L12.3994 9.89371C10.3833 10.5496 9.55749 12.7586 10.2245 14.8528C10.6187 15.9553 11.2512 16.9553 12.0713 17.7778C13.2822 18.9382 14.5922 19.9637 16.0049 20.8672C17.413 19.9827 18.742 18.9354 19.9384 17.7841C20.7629 16.9632 21.3944 15.9583 21.7823 14.8563C22.4401 12.7558 21.6089 10.5497 19.6242 9.90825L19.6175 9.90609L19.6175 9.90606C19.2998 9.80006 18.9559 9.75 18.5994 9.75C17.7813 9.74999 17.2157 10.1437 16.4544 10.7221L16 11.0673L15.5461 10.7214C14.7969 10.1504 14.2189 9.75 13.4154 9.75Z" fill="#333333"/>
<defs>
<filter id="filter0_d_483_12229" x="0" y="0" width="32" height="32" filterUnits="userSpaceOnUse" color-interpolation-filters="sRGB">
<feFlood flood-opacity="0" result="BackgroundImageFix"/>
<feColorMatrix in="SourceAlpha" type="matrix" values="0 0 0 0 0 0 0 0 0 0 0 0 0 0 0 0 0 0 127 0" result="hardAlpha"/>
<feOffset dy="1"/>
<feGaussianBlur stdDeviation="1"/>
<feComposite in2="hardAlpha" operator="out"/>
<feColorMatrix type="matrix" values="0 0 0 0 0 0 0 0 0 0 0 0 0 0 0 0 0 0 0.1 0"/>
<feBlend mode="normal" in2="BackgroundImageFix" result="effect1_dropShadow_483_12229"/>
<feBlend mode="normal" in="SourceGraphic" in2="effect1_dropShadow_483_12229" result="shape"/>
</filter>
</defs>
</svg>
