<svg width="20" height="20" viewBox="0 0 20 20" fill="none" xmlns="http://www.w3.org/2000/svg">
<path d="M10.001 16.2613C11.6313 14.8019 12.8789 13.402 13.7438 12.0617C14.6086 10.7215 15.041 9.54757 15.041 8.54008C15.041 7.02086 14.5584 5.77193 13.5931 4.79329C12.6278 3.81465 11.4305 3.32533 10.001 3.32533C8.57149 3.32533 7.37411 3.81465 6.40883 4.79329C5.44356 5.77193 4.96092 7.02086 4.96092 8.54008C4.96092 9.54757 5.39334 10.7215 6.25819 12.0617C7.12305 13.402 8.37065 14.8019 10.001 16.2613ZM10.001 17.4503C9.83859 17.4503 9.6762 17.4223 9.51381 17.3662C9.35142 17.3101 9.20452 17.2233 9.0731 17.1058C8.32526 16.4167 7.62548 15.707 6.97377 14.9768C6.32206 14.2466 5.75556 13.5166 5.27425 12.7869C4.79294 12.0572 4.41207 11.3339 4.13162 10.617C3.85117 9.90013 3.71094 9.20782 3.71094 8.54008C3.71094 6.61703 4.333 5.06015 5.57712 3.86944C6.82124 2.67873 8.29585 2.08337 10.001 2.08337C11.7061 2.08337 13.1807 2.67873 14.4248 3.86944C15.669 5.06015 16.291 6.61703 16.291 8.54008C16.291 9.20782 16.1508 9.8988 15.8703 10.613C15.5899 11.3272 15.2103 12.0505 14.7317 12.7829C14.2531 13.5153 13.6879 14.2452 13.0362 14.9728C12.3845 15.7003 11.6847 16.4087 10.9369 17.0978C10.8074 17.2153 10.6602 17.3034 10.4954 17.3622C10.3306 17.4209 10.1658 17.4503 10.001 17.4503ZM10.0024 9.88783C10.417 9.88783 10.7715 9.7402 11.0659 9.44492C11.3602 9.14964 11.5074 8.79467 11.5074 8.38002C11.5074 7.96537 11.3597 7.61088 11.0645 7.31654C10.7692 7.02221 10.4142 6.87504 9.99956 6.87504C9.58491 6.87504 9.23042 7.02268 8.93608 7.31796C8.64175 7.61324 8.49458 7.9682 8.49458 8.38285C8.49458 8.79751 8.64222 9.152 8.9375 9.44633C9.23278 9.74067 9.58774 9.88783 10.0024 9.88783Z" fill="#333333"/>
</svg>
