<svg width="66" height="80" viewBox="0 0 66 80" fill="none" xmlns="http://www.w3.org/2000/svg">
<path d="M33 80C51.2254 80 66 78.2091 66 76C66 73.7909 51.2254 72 33 72C14.7746 72 0 73.7909 0 76C0 78.2091 14.7746 80 33 80Z" fill="#EAF5F5"/>
<path d="M44.3966 9.55319C44.1774 9.25502 44.1625 8.95686 44.3966 8.65869V9.55319Z" fill="#F09541"/>
<path d="M60.7478 19.3454C60.7 19.3454 60.6538 19.3484 60.6076 19.3529C60.6374 19.0502 60.4839 18.7178 60.7478 18.4509V19.3454Z" fill="#F09541"/>
<g clip-path="url(#clip0_483_10079)">
<path d="M33.491 -0.000488281C30.1632 -0.000488281 26.9743 0.60045 24.0234 1.69745C26.3733 10.5726 28.8054 19.3061 31.2658 28.0934C40.4698 24.5048 49.617 20.8141 58.7841 17.1121C54.7561 7.09172 44.9371 -0.000488281 33.491 -0.000488281Z" fill="#87C5A5"/>
<path d="M6.23828 27.2515C6.23828 30.5311 6.83071 33.7739 7.97589 36.8211C15.8164 34.0262 23.5633 31.0952 31.2678 28.0905C28.8045 19.3032 26.3753 10.5669 24.0254 1.69458C13.6508 5.55249 6.23828 15.553 6.23828 27.2515Z" fill="#87C5A5"/>
<path d="M31.2684 28.0935C23.5612 31.0982 15.8171 34.0292 7.97656 36.8241C8.49529 38.2046 9.12457 39.5453 9.86724 40.8323C9.90692 40.9116 9.95228 40.991 10.0005 41.0675L10.0543 41.1526C10.2442 41.4729 10.4512 41.8045 10.6694 42.1362L16.7411 51.8674C24.2642 53.4633 31.7787 55.1471 39.2507 56.9641C38.2104 52.885 37.1106 48.8032 35.9229 44.7214C34.3695 39.123 32.8133 33.5983 31.2713 28.0963L31.2684 28.0935Z" fill="#87C5A5"/>
<path d="M58.7839 17.1123C49.6168 20.8143 40.4696 24.505 31.2656 28.0936C32.8076 33.5984 34.361 39.1202 35.9172 44.7186C37.1049 48.8005 38.2047 52.8823 39.245 56.9613C41.5042 57.5112 43.7634 58.0696 46.014 58.6451L56.3178 42.1334C56.5361 41.8018 56.743 41.4701 56.9329 41.1498L56.9868 41.0648C57.0349 40.9883 57.0775 40.9117 57.12 40.8324C59.4925 36.7108 60.7454 32.0195 60.7454 27.2546C60.7454 23.6716 60.0481 20.2502 58.7867 17.1151L58.7839 17.1123Z" fill="#87C5A5"/>
<path d="M46.0151 58.6449C43.7644 58.0695 41.5081 57.5111 39.2461 56.9612C40.0114 59.9574 40.7456 62.9536 41.4599 65.9441L46.0151 58.6449Z" fill="#87C5A5"/>
<path d="M39.2478 56.9614C31.7758 55.1444 24.2613 53.4635 16.7383 51.8647L30.9396 74.6182C31.4895 75.4998 32.4561 76.0355 33.4936 76.0355C34.531 76.0355 35.4976 75.4998 36.0476 74.6182L41.4616 65.9414C40.7473 62.9509 40.0132 59.9547 39.2478 56.9585V56.9614Z" fill="#87C5A5"/>
<g style="mix-blend-mode:multiply">
<path d="M36.5026 15.9614C29.9008 15.9614 24.3478 20.4344 22.6981 26.5147C22.375 27.7109 22.1992 28.9666 22.1992 30.2649C22.1992 38.165 28.6026 44.5683 36.5026 44.5683C42.0924 44.5683 46.9339 41.3596 49.2866 36.6825C50.2589 34.7521 50.8088 32.5723 50.8088 30.2649C50.8088 22.3648 44.4055 15.9614 36.5054 15.9614H36.5026Z" fill="#ECEDE1"/>
</g>
<path d="M47.7954 27.2517C47.7954 19.3516 41.392 12.9482 33.492 12.9482C26.8902 12.9482 21.3372 17.4213 19.6875 23.5015C28.7752 26.3503 37.6645 29.5733 46.2732 33.6693C47.2455 31.7389 47.7954 29.5591 47.7954 27.2517Z" fill="#F8EACD"/>
<path d="M19.7814 22.9602C19.4567 24.1622 19.2773 25.4241 19.2773 26.7287C19.2773 34.6672 25.7102 41.1017 33.6466 41.1017C39.265 41.1017 44.1259 37.8773 46.4895 33.1775C37.8383 29.0587 28.9109 25.8229 19.7814 22.9602Z" fill="#F8EACD"/>
<mask id="mask0_483_10079" style="mask-type:alpha" maskUnits="userSpaceOnUse" x="22" y="17" width="22" height="22">
<rect x="22.6836" y="17.2908" width="21.2595" height="21.2596" fill="#E4572E"/>
</mask>
<g mask="url(#mask0_483_10079)">
<path d="M33.3107 35.8927C32.8235 35.8927 32.4064 35.7192 32.0595 35.3723C31.7125 35.0253 31.5391 34.6083 31.5391 34.1211C31.5391 33.6339 31.7125 33.2168 32.0595 32.8699C32.4064 32.5229 32.8235 32.3494 33.3107 32.3494C33.7979 32.3494 34.215 32.5229 34.5619 32.8699C34.9088 33.2168 35.0823 33.6339 35.0823 34.1211C35.0823 34.6083 34.9088 35.0253 34.5619 35.3723C34.215 35.7192 33.7979 35.8927 33.3107 35.8927ZM31.5391 30.5778V19.948H35.0823V30.5778H31.5391Z" fill="#E4572E"/>
</g>
</g>
<defs>
<clipPath id="clip0_483_10079">
<rect width="54.5065" height="76.0357" fill="white" transform="translate(6.24219)"/>
</clipPath>
</defs>
</svg>
