<svg width="20" height="20" viewBox="0 0 20 20" fill="none" xmlns="http://www.w3.org/2000/svg">
<path d="M9.9987 16.6875C11.8459 15.0069 13.2105 13.4826 14.0924 12.1145C14.9744 10.7465 15.4154 9.54163 15.4154 8.49996C15.4154 6.86399 14.8925 5.52444 13.8468 4.48131C12.8011 3.43819 11.5184 2.91663 9.9987 2.91663C8.47902 2.91663 7.19632 3.43819 6.15061 4.48131C5.10489 5.52444 4.58203 6.86399 4.58203 8.49996C4.58203 9.54163 5.03342 10.7465 5.9362 12.1145C6.83898 13.4826 8.19314 15.0069 9.9987 16.6875ZM9.99349 17.9166C9.84418 17.9166 9.69661 17.8923 9.55078 17.8437C9.40495 17.7951 9.27648 17.7152 9.16536 17.6041C8.58203 17.0763 7.95009 16.4687 7.26953 15.7812C6.58898 15.0937 5.95703 14.3541 5.3737 13.5625C4.79036 12.7708 4.30425 11.9444 3.91536 11.0833C3.52648 10.2222 3.33203 9.36107 3.33203 8.49996C3.33203 6.41663 4.00217 4.7569 5.34245 3.52079C6.68273 2.28468 8.23481 1.66663 9.9987 1.66663C11.7626 1.66663 13.3147 2.28468 14.6549 3.52079C15.9952 4.7569 16.6654 6.41663 16.6654 8.49996C16.6654 9.36107 16.4709 10.2222 16.082 11.0833C15.6931 11.9444 15.207 12.7708 14.6237 13.5625C14.0404 14.3541 13.4084 15.0937 12.7279 15.7812C12.0473 16.4687 11.4154 17.0763 10.832 17.6041C10.7209 17.7152 10.5907 17.7951 10.4414 17.8437C10.2921 17.8923 10.1428 17.9166 9.99349 17.9166ZM10.0006 9.79163C10.4021 9.79163 10.7452 9.64865 11.0299 9.36269C11.3147 9.07674 11.457 8.73299 11.457 8.33144C11.457 7.9299 11.3141 7.58676 11.0281 7.30204C10.7421 7.01732 10.3984 6.87496 9.99684 6.87496C9.5953 6.87496 9.25217 7.01794 8.96745 7.3039C8.68273 7.58984 8.54036 7.93359 8.54036 8.33515C8.54036 8.73669 8.68334 9.07982 8.9693 9.36454C9.25525 9.64927 9.599 9.79163 10.0006 9.79163Z" fill="#333333"/>
</svg>
