<svg width="20" height="20" viewBox="0 0 20 20" fill="none" xmlns="http://www.w3.org/2000/svg">
<path fill-rule="evenodd" clip-rule="evenodd" d="M4.90433 13.4095C5.03658 13.8503 4.78643 14.3149 4.3456 14.4472C3.63491 14.6604 3.12049 14.8977 2.80235 15.1234C2.58353 15.2786 2.52061 15.3799 2.50355 15.4167C2.52061 15.4535 2.58352 15.5549 2.80235 15.7101C3.12049 15.9358 3.63491 16.1731 4.3456 16.3863C5.75636 16.8095 7.75525 17.0834 9.9987 17.0834C12.2422 17.0834 14.241 16.8095 15.6518 16.3863C16.3625 16.1731 16.8769 15.9358 17.195 15.7101C17.4139 15.5549 17.4768 15.4535 17.4938 15.4167C17.4768 15.3799 17.4139 15.2786 17.195 15.1234C16.8769 14.8977 16.3625 14.6604 15.6518 14.4472C15.211 14.3149 14.9608 13.8504 15.0931 13.4095C15.2253 12.9687 15.6899 12.7185 16.1307 12.8508C16.9281 13.09 17.634 13.3914 18.1593 13.7639C18.6628 14.1211 19.1654 14.6675 19.1654 15.4167C19.1654 16.1659 18.6629 16.7124 18.1593 17.0696C17.634 17.4421 16.9281 17.7435 16.1307 17.9827C14.5254 18.4643 12.3576 18.7501 9.9987 18.7501C7.63978 18.7501 5.472 18.4643 3.86668 17.9827C3.06933 17.7435 2.36336 17.4421 1.83813 17.0696C1.33454 16.7124 0.832031 16.1659 0.832031 15.4167C0.832031 14.6675 1.33455 14.1211 1.83813 13.7639C2.36336 13.3914 3.06933 13.09 3.86668 12.8508C4.30751 12.7185 4.77208 12.9687 4.90433 13.4095Z" fill="#E38E31"/>
<path fill-rule="evenodd" clip-rule="evenodd" d="M3.75 6.95042C3.75 3.55252 6.56781 0.833008 10 0.833008C13.4322 0.833008 16.25 3.55252 16.25 6.95042C16.25 9.33985 14.6912 11.4536 13.3066 12.8815C12.5957 13.6147 11.8878 14.2108 11.3587 14.6232C11.0934 14.8299 10.8714 14.9919 10.7141 15.1032C10.6353 15.1589 10.5727 15.202 10.5288 15.2318C10.5069 15.2467 10.4896 15.2582 10.4773 15.2664L10.4627 15.2761L10.4583 15.279L10.4569 15.2799C10.4566 15.2801 10.4559 15.2806 10 14.583C9.54411 15.2806 9.54391 15.2804 9.54369 15.2803L9.54167 15.279L9.53726 15.2761L9.52266 15.2664C9.5104 15.2582 9.49313 15.2467 9.47118 15.2318C9.42729 15.202 9.36465 15.1589 9.28595 15.1032C9.12862 14.9919 8.90658 14.8299 8.64134 14.6232C8.11222 14.2108 7.4043 13.6147 6.6934 12.8815C5.30883 11.4536 3.75 9.33985 3.75 6.95042ZM10 14.583L9.54369 15.2803C9.82066 15.4613 10.1789 15.4616 10.4559 15.2806L10 14.583ZM10 13.5626C10.0989 13.4893 10.2112 13.4045 10.334 13.3087C10.8206 12.9295 11.4668 12.3847 12.1101 11.7213C13.4338 10.3561 14.5833 8.65358 14.5833 6.95042C14.5833 4.51169 12.5509 2.49967 10 2.49967C7.44911 2.49967 5.41667 4.51169 5.41667 6.95042C5.41667 8.65358 6.56617 10.3561 7.88994 11.7213C8.5332 12.3847 9.17945 12.9295 9.66595 13.3087C9.78884 13.4045 9.90109 13.4893 10 13.5626Z" fill="#2A9DA0"/>
<path fill-rule="evenodd" clip-rule="evenodd" d="M7.5 7C7.5 5.6193 8.6193 4.5 10 4.5C11.3807 4.5 12.5 5.6193 12.5 7C12.5 8.3807 11.3807 9.5 10 9.5C8.6193 9.5 7.5 8.3807 7.5 7Z" fill="#2A9DA0"/>
</svg>
