<svg width="72" height="72" viewBox="0 0 72 72" fill="none" xmlns="http://www.w3.org/2000/svg">
<path d="M19 49.4793L23.6924 44.7869L27.2056 48.3L22.5131 52.9924L19 49.4793Z" fill="#3F5C6C"/>
<path d="M44.6894 54.6211C59.7726 54.6211 72 42.3937 72 27.3105C72 12.2273 59.7726 0 44.6894 0C29.6062 0 17.3789 12.2273 17.3789 27.3105C17.3789 42.3937 29.6062 54.6211 44.6894 54.6211Z" fill="#547580"/>
<path d="M67.0362 27.3106C67.033 33.2335 64.6769 38.9126 60.4864 43.0984C56.2959 47.2843 50.6142 49.634 44.6913 49.6307C38.7683 49.6274 33.0892 47.2714 28.9034 43.0809C24.7175 38.8904 22.3678 33.2087 22.3711 27.2857C22.3744 21.3628 24.7304 15.6837 28.9209 11.4979C33.1114 7.31202 38.7931 4.96229 44.7161 4.96558C50.639 4.96887 56.3181 7.32492 60.504 11.5154C64.6898 15.7059 67.0395 21.3876 67.0362 27.3106Z" fill="#94CECF"/>
<path d="M56.4814 16.7587C56.4798 20.532 55.5232 24.2435 53.7005 27.5474C51.8779 30.8513 49.2485 33.6401 46.0575 35.6538C42.8665 37.6676 39.2176 38.8408 35.4509 39.0642C31.6842 39.2875 27.9223 38.5538 24.5156 36.9312C22.5298 32.7615 21.8843 28.0791 22.6678 23.5276C23.4513 18.9761 25.6253 14.779 28.891 11.5133C32.1567 8.2476 36.3538 6.07357 40.9053 5.29009C45.4568 4.5066 50.1392 5.15213 54.3089 7.13793C55.7443 10.1417 56.4867 13.4296 56.4814 16.7587Z" fill="#BFE2E3"/>
<path d="M2.91055 70.5456L1.4544 69.0894C0.981012 68.616 0.608237 68.0518 0.358484 67.4307C0.108731 66.8095 -0.0128423 66.1443 0.00107285 65.475C0.014988 64.8057 0.164104 64.1461 0.439457 63.5359C0.71481 62.9256 1.11071 62.3774 1.60337 61.9241L16.3858 48.5283C16.6215 48.3115 16.9319 48.1942 17.2521 48.201C17.5723 48.2077 17.8775 48.3378 18.1039 48.5643L23.4419 53.9023C23.6683 54.1287 23.7985 54.4339 23.8052 54.7541C23.8119 55.0742 23.6946 55.3846 23.4779 55.6203L10.0758 70.3966C9.62254 70.8892 9.07431 71.2851 8.46409 71.5605C7.85387 71.8358 7.19428 71.985 6.52496 71.9989C5.85564 72.0128 5.19041 71.8912 4.56928 71.6415C3.94814 71.3917 3.38393 71.0189 2.91055 70.5456Z" fill="#F0C419"/>
<path d="M23.4727 55.6266L20.9403 58.4322L13.5664 51.0583L16.3719 48.5259C16.6095 48.3097 16.921 48.1929 17.2421 48.1999C17.5633 48.2068 17.8695 48.3368 18.0975 48.5631L23.4354 53.9011C23.9059 54.3741 23.9221 55.1338 23.4727 55.6266Z" fill="#F29C1F"/>
</svg>
