<svg width="62" height="72" viewBox="0 0 62 72" fill="none" xmlns="http://www.w3.org/2000/svg">
<path d="M58.4187 48.0811C56.4834 53.326 53.5565 57.8864 49.7185 61.6345C45.3498 65.9004 39.6292 69.2902 32.7155 71.7083C32.4863 71.7881 32.2519 71.8522 32.014 71.9C31.6999 71.962 31.3801 71.9956 31.0631 72H31.0011C30.6632 72 30.3237 71.966 29.9871 71.9002C29.7491 71.8523 29.5157 71.7874 29.29 71.7099C22.368 69.2958 16.6403 65.9076 12.2673 61.6416C8.42742 57.8936 5.50129 53.3358 3.56882 48.0909C0.0547415 38.5549 0.25471 28.0497 0.415726 19.6079L0.418539 19.4782C0.450882 18.7811 0.471695 18.0489 0.483226 17.2403C0.542007 13.2705 3.69834 9.98602 7.66889 9.76467C15.9471 9.30258 22.351 6.60272 27.8227 1.26951L27.8705 1.2255C28.7791 0.392151 29.9239 -0.0165055 31.0631 0.00051014C32.1618 0.0147133 33.256 0.422948 34.1321 1.22535L34.1788 1.26937C39.6517 6.60272 46.0557 9.30258 54.3339 9.76453C58.3043 9.98602 61.4608 13.2703 61.5194 17.2402C61.531 18.0544 61.5518 18.7855 61.5843 19.4782L61.586 19.5331C61.7463 27.991 61.9453 38.5169 58.4187 48.0811Z" fill="#00DD80"/>
<path d="M58.418 48.0811C56.4827 53.326 53.5559 57.8864 49.7178 61.6345C45.3492 65.9004 39.6285 69.2901 32.7148 71.7083C32.4857 71.7881 32.2513 71.8522 32.0134 71.9C31.6992 71.962 31.3795 71.9956 31.0625 72V0.00050354C32.1612 0.0147067 33.2554 0.422941 34.1315 1.22535L34.1782 1.26936C39.651 6.60271 46.0551 9.30257 54.3333 9.76453C58.3037 9.98601 61.4602 13.2703 61.5188 17.2402C61.5303 18.0544 61.5511 18.7855 61.5836 19.4782L61.5853 19.533C61.7456 27.9909 61.9446 38.5169 58.418 48.0811Z" fill="#00DD80"/>
<path d="M48.9432 36C48.9432 45.8728 40.927 53.9093 31.0623 53.9444H30.9992C21.1055 53.9444 13.0547 45.8942 13.0547 36C13.0547 26.1063 21.1055 18.0559 30.9992 18.0559H31.0624C40.927 18.0911 48.9432 26.1277 48.9432 36Z" fill="white"/>
<path d="M48.9434 36C48.9434 45.8728 40.9272 53.9093 31.0625 53.9444V18.0559C40.9272 18.0911 48.9434 26.1277 48.9434 36Z" fill="white"/>
<path d="M39.1432 33.416L31.0616 41.4987L29.3153 43.245C29.1193 43.4414 28.8864 43.5972 28.6299 43.7033C28.3735 43.8094 28.0987 43.8639 27.8212 43.8634C27.5436 43.8639 27.2686 43.8094 27.0121 43.7033C26.7556 43.5972 26.5226 43.4414 26.3265 43.245L22.5719 39.4887C21.7469 38.6636 21.7469 37.3271 22.5719 36.5014C23.396 35.6764 24.734 35.6764 25.5591 36.5014L27.8212 38.7635L36.156 30.4287C36.9811 29.6032 38.3193 29.6032 39.1432 30.4287C39.9682 31.2539 39.9682 32.5921 39.1432 33.416Z" fill="#2A9DA0"/>
<path d="M39.1441 33.416L31.0625 41.4987V35.5225L36.1569 30.4288C36.982 29.6032 38.3202 29.6032 39.1441 30.4288C39.9691 31.2539 39.9691 32.5921 39.1441 33.416Z" fill="#2A9DA0"/>
</svg>
