<svg width="24" height="24" viewBox="0 0 24 24" fill="none" xmlns="http://www.w3.org/2000/svg">
<path d="M21.054 11C20.8407 11.1927 20.6954 11.4492 20.6395 11.7311C20.5837 12.0131 20.6203 12.3055 20.744 12.565C20.8242 12.7317 20.8684 12.9134 20.8739 13.0983C20.8793 13.2833 20.8458 13.4672 20.7756 13.6384C20.7053 13.8095 20.5999 13.964 20.4661 14.0917C20.3323 14.2195 20.1732 14.3177 19.999 14.38C19.7154 14.4797 19.4738 14.6721 19.3132 14.9262C19.1525 15.1803 19.0824 15.4811 19.114 15.78C19.114 15.9693 19.0738 16.1564 18.9961 16.3289C18.9183 16.5015 18.8047 16.6555 18.6628 16.7808C18.521 16.9061 18.3541 16.9998 18.1733 17.0557C17.9925 17.1116 17.8018 17.1284 17.614 17.105C17.3407 17.1073 17.0748 17.1948 16.8535 17.3552C16.6322 17.5156 16.4663 17.741 16.379 18C16.3179 18.1764 16.2202 18.3378 16.0921 18.4736C15.9641 18.6094 15.8087 18.7165 15.6363 18.7879C15.4638 18.8592 15.2782 18.8932 15.0916 18.8875C14.9051 18.8819 14.7218 18.8367 14.554 18.755C14.297 18.6337 14.0082 18.597 13.729 18.65C12.914 18.785 12.944 19.5 11.999 19.5C11.054 19.5 11.084 18.785 10.269 18.64C9.98989 18.5852 9.70052 18.622 9.44402 18.745C9.27683 18.8269 9.09422 18.8725 8.90817 18.8788C8.72212 18.8851 8.53684 18.852 8.36449 18.7817C8.19214 18.7113 8.03662 18.6053 7.90814 18.4706C7.77966 18.3359 7.68113 18.1755 7.61901 18C7.52947 17.7412 7.36138 17.5169 7.13819 17.3582C6.915 17.1996 6.64785 17.1145 6.37401 17.115C6.17976 17.1395 5.98249 17.121 5.79619 17.0608C5.60989 17.0006 5.43912 16.9001 5.29598 16.7665C5.15285 16.6329 5.04085 16.4694 4.96792 16.2877C4.895 16.106 4.86294 15.9105 4.87401 15.715C4.89392 15.4275 4.81916 15.1413 4.66116 14.9003C4.50317 14.6592 4.27061 14.4765 3.99901 14.38C3.82215 14.3196 3.6602 14.2222 3.52394 14.0943C3.38768 13.9664 3.28025 13.8109 3.2088 13.6383C3.13736 13.4656 3.10355 13.2796 3.10962 13.0928C3.11569 12.9061 3.16151 12.7227 3.24401 12.555C3.36731 12.2979 3.4047 12.008 3.35069 11.728C3.29667 11.448 3.1541 11.1928 2.94401 11C2.80093 10.8756 2.68621 10.722 2.60759 10.5495C2.52897 10.377 2.48828 10.1896 2.48828 10C2.48828 9.81043 2.52897 9.62306 2.60759 9.45054C2.68621 9.27803 2.80093 9.1244 2.94401 9.00002C3.15728 8.8073 3.30266 8.55089 3.35851 8.26892C3.41436 7.98695 3.37771 7.69449 3.25401 7.43502C3.17384 7.26831 3.12959 7.08661 3.12416 6.9017C3.11872 6.71679 3.15221 6.5328 3.22245 6.36167C3.2927 6.19053 3.39813 6.03607 3.53191 5.90831C3.66569 5.78054 3.82483 5.68232 3.99901 5.62002C4.2826 5.52037 4.52426 5.32793 4.68487 5.07385C4.84548 4.81978 4.91565 4.51893 4.88401 4.22002C4.88398 4.03075 4.92419 3.84365 5.00198 3.67111C5.07976 3.49857 5.19335 3.34454 5.3352 3.21924C5.47705 3.09394 5.64392 3.00023 5.82474 2.94433C6.00556 2.88844 6.1962 2.87163 6.38402 2.89502C6.65736 2.8927 6.92318 2.80526 7.14453 2.64486C7.36587 2.48445 7.53172 2.25906 7.61901 2.00002C7.70928 1.74032 7.8781 1.51512 8.10207 1.35566C8.32604 1.19619 8.59407 1.11034 8.86902 1.11002C9.36902 1.11002 9.49401 1.37502 10.024 1.37502C11.039 1.38502 10.999 0.500019 11.999 0.500019C12.1877 0.499002 12.3745 0.538156 12.5469 0.614881C12.7193 0.691606 12.8734 0.804145 12.999 0.945019C13.1913 1.15898 13.4477 1.30484 13.7299 1.36073C14.012 1.41662 14.3047 1.37953 14.564 1.25502C14.7307 1.17484 14.9124 1.1306 15.0973 1.12516C15.2822 1.11972 15.4662 1.15321 15.6374 1.22346C15.8085 1.2937 15.963 1.39914 16.0907 1.53292C16.2185 1.6667 16.3167 1.82584 16.379 2.00002C16.4787 2.2836 16.6711 2.52526 16.9252 2.68587C17.1793 2.84649 17.4801 2.91665 17.779 2.88502C17.9683 2.88499 18.1554 2.9252 18.3279 3.00298C18.5005 3.08077 18.6545 3.19435 18.7798 3.3362C18.9051 3.47805 18.9988 3.64492 19.0547 3.82574C19.1106 4.00657 19.1274 4.19721 19.104 4.38502C19.1063 4.65836 19.1938 4.92419 19.3542 5.14553C19.5146 5.36687 19.74 5.53272 19.999 5.62002C20.2587 5.71028 20.4839 5.8791 20.6434 6.10307C20.8028 6.32704 20.8887 6.59508 20.889 6.87002C20.889 7.37002 20.624 7.49502 20.624 8.02502C20.614 9.04002 21.499 9.00002 21.499 10C21.5 10.1887 21.4609 10.3755 21.3842 10.5479C21.3074 10.7203 21.1949 10.8744 21.054 11Z" fill="#FFCC66"/>
<path d="M21.0563 11C20.843 11.1927 20.6977 11.4492 20.6418 11.7311C20.586 12.0131 20.6226 12.3056 20.7463 12.565C20.8265 12.7317 20.8707 12.9134 20.8762 13.0983C20.8816 13.2833 20.8481 13.4672 20.7779 13.6384C20.7076 13.8095 20.6022 13.964 20.4684 14.0917C20.3346 14.2195 20.1755 14.3177 20.0013 14.38C19.7457 14.4684 19.5236 14.6335 19.3652 14.8527C19.2069 15.0719 19.1199 15.3346 19.1163 15.605C17.4556 17.1502 15.2697 18.0064 13.0013 18C5.1363 18 1.10629 8.59002 6.3963 2.89502C6.66792 2.89064 6.93152 2.80225 7.15088 2.64199C7.37023 2.48173 7.53456 2.25746 7.6213 2.00002C7.71092 1.73991 7.87957 1.5143 8.10369 1.35473C8.3278 1.19516 8.59618 1.1096 8.8713 1.11002C9.3713 1.11002 9.4963 1.37502 10.0263 1.37502C11.0413 1.38502 11.0013 0.500019 12.0013 0.500019C12.19 0.499002 12.3768 0.538156 12.5492 0.614881C12.7216 0.691606 12.8757 0.804145 13.0013 0.945019C13.1936 1.15898 13.45 1.30484 13.7322 1.36073C14.0143 1.41662 14.307 1.37953 14.5663 1.25502C14.733 1.17484 14.9147 1.1306 15.0996 1.12516C15.2845 1.11972 15.4685 1.15321 15.6396 1.22346C15.8108 1.2937 15.9652 1.39914 16.093 1.53292C16.2208 1.6667 16.319 1.82584 16.3813 2.00002C16.4809 2.2836 16.6734 2.52526 16.9275 2.68587C17.1815 2.84649 17.4824 2.91665 17.7813 2.88502C17.9706 2.88499 18.1577 2.9252 18.3302 3.00298C18.5028 3.08077 18.6568 3.19435 18.7821 3.3362C18.9074 3.47805 19.0011 3.64492 19.057 3.82574C19.1129 4.00657 19.1297 4.19721 19.1063 4.38502C19.1086 4.65836 19.1961 4.92419 19.3565 5.14553C19.5169 5.36687 19.7423 5.53272 20.0013 5.62002C20.261 5.71028 20.4862 5.8791 20.6457 6.10307C20.8051 6.32704 20.891 6.59508 20.8913 6.87002C20.8913 7.37002 20.6263 7.49502 20.6263 8.02502C20.6163 9.04002 21.5013 9.00002 21.5013 10C21.5023 10.1887 21.4632 10.3755 21.3864 10.5479C21.3097 10.7203 21.1972 10.8744 21.0563 11Z" fill="#FFDE76"/>
<path d="M18.501 10.0008C18.501 10.8544 18.3329 11.6996 18.0063 12.4882C17.6796 13.2768 17.2008 13.9934 16.5972 14.597C15.9936 15.2005 15.2771 15.6793 14.4885 16.006C13.6999 16.3326 12.8546 16.5008 12.001 16.5008C5.88603 16.5008 3.15603 8.75076 7.93603 4.93576C8.89135 4.17012 10.0435 3.68984 11.2598 3.55022C12.476 3.4106 13.707 3.61732 14.811 4.14657C15.915 4.67583 16.847 5.5061 17.4998 6.54179C18.1526 7.57749 18.4997 8.77649 18.501 10.0008Z" fill="#FFBA55"/>
<path d="M18.4967 10.0008C18.4995 11.4804 17.9928 12.9158 17.0617 14.0658C15.8119 15.0535 14.2429 15.5479 12.6526 15.4551C11.0623 15.3623 9.56148 14.6888 8.43506 13.5624C7.30865 12.436 6.63509 10.9351 6.5423 9.34483C6.4495 7.75454 6.94392 6.18554 7.93168 4.93576C8.887 4.17012 10.0391 3.68984 11.2554 3.55022C12.4717 3.4106 13.7027 3.61732 14.8066 4.14657C15.9106 4.67583 16.8426 5.5061 17.4955 6.54179C18.1483 7.57748 18.4953 8.77649 18.4967 10.0008Z" fill="#FFCC66"/>
<path d="M10.27 18.6402L7.465 23.5002L6.465 21.2002L4 21.5002C5.17 19.4652 4.61 20.4402 6.53 17.1152C6.77654 17.1453 7.00961 17.2442 7.20243 17.4008C7.39524 17.5573 7.53997 17.7651 7.62 18.0002C7.6767 18.1652 7.76554 18.3174 7.8814 18.4478C7.99726 18.5783 8.13783 18.6845 8.29499 18.7603C8.45215 18.8361 8.62277 18.8799 8.79699 18.8894C8.97121 18.8988 9.14558 18.8736 9.31 18.8152C9.59913 18.6449 9.93937 18.5829 10.27 18.6402Z" fill="#207B7D"/>
<path d="M9.30906 18.8052L7.46406 22.0002L6.46406 19.7002L4.91406 19.8852L6.51406 17.1152C6.76328 17.1426 6.99955 17.2403 7.19524 17.3971C7.39093 17.5538 7.53794 17.763 7.61906 18.0002C7.67676 18.1643 7.76633 18.3154 7.88263 18.4448C7.99892 18.5742 8.13963 18.6793 8.29669 18.7541C8.45374 18.8289 8.62403 18.872 8.79777 18.8807C8.97151 18.8895 9.14527 18.8638 9.30906 18.8052Z" fill="#2A9DA0"/>
<path d="M20.0003 21.5L17.5003 21.2L16.5003 23.5L13.6953 18.64C14.2853 18.49 14.5503 18.88 15.0953 18.88C15.375 18.8878 15.6499 18.8068 15.8808 18.6487C16.1116 18.4906 16.2865 18.2636 16.3803 18C16.4619 17.7667 16.6073 17.5611 16.8 17.4064C16.9927 17.2517 17.2249 17.1542 17.4703 17.125L20.0003 21.5Z" fill="#207B7D"/>
<path d="M14.47 13.61L12 12.31L9.53 13.61L10 10.855L8 8.905L10.765 8.505L12 6L13.235 8.5L16 8.9L14 10.85C14.23 12.195 14.125 11.59 14.47 13.61Z" fill="#E38E31"/>
<path d="M14 10.855L14.185 11.935C13.6865 12.0348 13.1722 12.0247 12.6779 11.9056C12.1837 11.7864 11.7213 11.561 11.323 11.245C10.9247 10.929 10.6 10.5301 10.3715 10.0759C10.143 9.62168 10.0163 9.12316 10 8.615L10.765 8.5L12 6L13.235 8.5L16 8.9L14 10.855Z" fill="#E38E31"/>
<path d="M14.6875 18.8052L16.5325 22.0002L17.5325 19.7002L19.0825 19.8852L17.4825 17.1152C17.2333 17.1426 16.997 17.2403 16.8013 17.3971C16.6056 17.5538 16.4586 17.763 16.3775 18.0002C16.3198 18.1643 16.2302 18.3154 16.1139 18.4448C15.9976 18.5742 15.8569 18.6793 15.6999 18.7541C15.5428 18.8289 15.3725 18.872 15.1988 18.8807C15.0251 18.8895 14.8513 18.8638 14.6875 18.8052Z" fill="#2A9DA0"/>
</svg>
