<svg width="32" height="32" viewBox="0 0 32 32" fill="none" xmlns="http://www.w3.org/2000/svg">
<g filter="url(#filter0_d_483_12232)">
<circle cx="16" cy="15" r="14" fill="white"/>
</g>
<path d="M20.5 18.06C19.93 18.06 19.42 18.285 19.03 18.6375L13.6825 15.525C13.72 15.3525 13.75 15.18 13.75 15C13.75 14.82 13.72 14.6475 13.6825 14.475L18.97 11.3925C19.375 11.7675 19.9075 12 20.5 12C21.745 12 22.75 10.995 22.75 9.75C22.75 8.505 21.745 7.5 20.5 7.5C19.255 7.5 18.25 8.505 18.25 9.75C18.25 9.93 18.28 10.1025 18.3175 10.275L13.03 13.3575C12.625 12.9825 12.0925 12.75 11.5 12.75C10.255 12.75 9.25 13.755 9.25 15C9.25 16.245 10.255 17.25 11.5 17.25C12.0925 17.25 12.625 17.0175 13.03 16.6425L18.37 19.7625C18.3325 19.92 18.31 20.085 18.31 20.25C18.31 21.4575 19.2925 22.44 20.5 22.44C21.7075 22.44 22.69 21.4575 22.69 20.25C22.69 19.0425 21.7075 18.06 20.5 18.06Z" fill="#333333"/>
<defs>
<filter id="filter0_d_483_12232" x="0" y="0" width="32" height="32" filterUnits="userSpaceOnUse" color-interpolation-filters="sRGB">
<feFlood flood-opacity="0" result="BackgroundImageFix"/>
<feColorMatrix in="SourceAlpha" type="matrix" values="0 0 0 0 0 0 0 0 0 0 0 0 0 0 0 0 0 0 127 0" result="hardAlpha"/>
<feOffset dy="1"/>
<feGaussianBlur stdDeviation="1"/>
<feComposite in2="hardAlpha" operator="out"/>
<feColorMatrix type="matrix" values="0 0 0 0 0 0 0 0 0 0 0 0 0 0 0 0 0 0 0.1 0"/>
<feBlend mode="normal" in2="BackgroundImageFix" result="effect1_dropShadow_483_12232"/>
<feBlend mode="normal" in="SourceGraphic" in2="effect1_dropShadow_483_12232" result="shape"/>
</filter>
</defs>
</svg>
