<svg width="64" height="64" viewBox="0 0 64 64" fill="none" xmlns="http://www.w3.org/2000/svg">
<path d="M32 62C48.5685 62 62 48.5685 62 32C62 15.4315 48.5685 2 32 2C15.4315 2 2 15.4315 2 32C2 48.5685 15.4315 62 32 62Z" fill="#85CB33"/>
<path fill-rule="evenodd" clip-rule="evenodd" d="M32.0001 2C48.5686 2 62.0001 15.4315 62.0001 32C62.0001 48.5685 48.5686 62 32.0001 62C31.3701 62 30.7454 61.9782 30.125 61.94C45.8197 60.9717 58.25 47.9386 58.25 32C58.25 16.0614 45.8197 3.02825 30.125 2.06C30.7452 2.02175 31.3701 2 32.0001 2Z" fill="#82B725"/>
<path fill-rule="evenodd" clip-rule="evenodd" d="M17.9556 33.7811C16.6888 32.6154 16.6069 30.6436 17.7726 29.3768C18.9382 28.1101 20.9101 28.0282 22.1768 29.1938L28.5673 35.0626L41.7704 22.4213C43.0102 21.2287 44.9821 21.2669 46.1746 22.5067C47.3672 23.7464 47.3289 25.7183 46.0892 26.9109L30.8469 41.5044C29.6749 42.7133 27.7459 42.7743 26.4996 41.6274L17.9556 33.7811Z" fill="#F4F8F8"/>
</svg>
