<svg width="360" height="448" viewBox="0 0 360 448" fill="none" xmlns="http://www.w3.org/2000/svg">
<rect width="360" height="448" fill="url(#paint0_linear_483_19149)"/>
<path d="M309.396 239.294C316.216 234.682 320.706 226.823 320.706 217.894C320.706 203.689 309.341 192.178 295.317 192.178C281.293 192.178 269.929 203.689 269.929 217.894C269.929 220.542 270.329 223.106 271.058 225.514C267.606 225.117 264.1 224.886 260.54 224.886C258.254 224.886 255.987 224.997 253.746 225.163C238.083 190.425 200.847 166 157.401 166C102.808 166 58.0226 204.575 53.5058 253.684C52.404 253.564 51.2839 253.509 50.1547 253.509C32.3972 253.509 18 268.092 18 286.079C18 304.065 32.3972 318.649 50.1547 318.649C57.1393 318.649 62.429 335.932 67.7016 332.095C86.1148 359.232 120.055 357.749 157.401 357.749C171.516 357.749 184.975 355.167 197.25 350.49C212.558 366.715 235.224 377 260.54 377C306.627 377 344 342.945 344 300.939C344 275.563 330.35 253.103 309.396 239.285V239.294Z" fill="#EAF5F5"/>
<path d="M13.025 373.663C13.025 369.595 50.0014 366.3 95.6021 366.3C121.132 366.3 143.958 367.337 159.111 368.957C178.246 367.119 208.744 365.936 243.099 365.936C301.039 365.936 348 369.312 348 373.481C348 377.359 307.392 380.553 255.121 380.981C255.121 381.009 255.129 381.036 255.129 381.063C255.129 385.25 217.986 388.645 172.168 388.645C126.35 388.645 89.2069 385.25 89.2069 381.063C89.2069 381.045 89.2069 381.027 89.2069 381.009C46.5785 380.717 13 377.541 13 373.663H13.025Z" fill="#EAF5F5"/>
<path d="M65.0207 222.693H273.401C275.616 222.693 277.422 224.492 277.422 226.714V244.116H61V226.714C61 224.499 62.7985 222.693 65.0207 222.693Z" fill="#2A9DA0"/>
<path d="M277.421 244.116L283.99 360.216C284.164 363.223 281.768 365.757 278.747 365.757H262.574L277.414 244.116H277.421Z" fill="#D6C8B9"/>
<path d="M61 244.116H277.422V361.355C277.422 363.882 275.373 365.931 272.846 365.931H65.5762C63.0485 365.931 61 363.882 61 361.355V244.116Z" fill="white"/>
<path d="M74.86 240.144C71.8671 240.144 69.4297 237.707 69.4297 234.714C69.4297 231.721 71.8671 229.283 74.86 229.283C77.853 229.283 80.2904 231.721 80.2904 234.714C80.2904 237.707 77.853 240.144 74.86 240.144Z" fill="#14696C"/>
<path d="M79.0969 234.714C79.0969 237.054 77.2011 238.95 74.8609 238.95C72.5208 238.95 70.625 237.054 70.625 234.714C70.625 232.374 72.5208 230.478 74.8609 230.478C77.2011 230.478 79.0969 232.374 79.0969 234.714Z" fill="#1A6F72"/>
<path d="M74.8957 234.151C74.8957 234.151 74.854 234.151 74.8332 234.151C73.0347 234.137 71.625 232.589 71.625 230.797V219.888C71.625 218.096 73.0763 216.645 74.8679 216.645C76.6595 216.645 78.1109 218.096 78.1109 219.888V230.797C78.1109 232.596 76.7012 234.144 74.9026 234.151H74.8957Z" fill="white"/>
<path d="M103.792 235.956C104.479 233.036 102.669 230.113 99.75 229.426C96.8306 228.739 93.9072 230.549 93.2203 233.468C92.5334 236.387 94.3432 239.311 97.2626 239.998C100.182 240.685 103.105 238.875 103.792 235.956Z" fill="#14696C"/>
<path d="M102.741 234.714C102.741 237.054 100.846 238.95 98.5055 238.95C96.1653 238.95 94.2695 237.054 94.2695 234.714C94.2695 232.374 96.1653 230.478 98.5055 230.478C100.846 230.478 102.741 232.374 102.741 234.714Z" fill="#1A6F72"/>
<path d="M98.5324 234.151C98.5324 234.151 98.4908 234.151 98.4699 234.151C96.6714 234.137 95.2617 232.589 95.2617 230.797V219.888C95.2617 218.096 96.713 216.645 98.5046 216.645C100.296 216.645 101.748 218.096 101.748 219.888V230.797C101.748 232.596 100.338 234.144 98.5394 234.151H98.5324Z" fill="white"/>
<path d="M125.98 238.553C128.101 236.433 128.101 232.994 125.98 230.874C123.86 228.753 120.421 228.753 118.301 230.874C116.18 232.994 116.18 236.433 118.301 238.553C120.421 240.674 123.86 240.674 125.98 238.553Z" fill="#14696C"/>
<path d="M126.378 234.714C126.378 237.054 124.482 238.95 122.142 238.95C119.802 238.95 117.906 237.054 117.906 234.714C117.906 232.374 119.802 230.478 122.142 230.478C124.482 230.478 126.378 232.374 126.378 234.714Z" fill="#1A6F72"/>
<path d="M121.747 234.151C121.747 234.151 121.706 234.151 121.685 234.151C119.886 234.137 118.477 232.589 118.477 230.797V219.888C118.477 218.096 119.928 216.645 121.719 216.645C123.511 216.645 124.962 218.096 124.962 219.888V230.797C124.962 232.596 123.553 234.144 121.754 234.151H121.747Z" fill="white"/>
<path d="M145.782 240.144C148.781 240.144 151.212 237.713 151.212 234.714C151.212 231.715 148.781 229.283 145.782 229.283C142.783 229.283 140.352 231.715 140.352 234.714C140.352 237.713 142.783 240.144 145.782 240.144Z" fill="#14696C"/>
<path d="M150.027 234.714C150.027 237.054 148.131 238.95 145.791 238.95C143.45 238.95 141.555 237.054 141.555 234.714C141.555 232.374 143.45 230.478 145.791 230.478C148.131 230.478 150.027 232.374 150.027 234.714Z" fill="#1A6F72"/>
<path d="M145.818 234.151C145.818 234.151 145.776 234.151 145.755 234.151C143.957 234.137 142.547 232.589 142.547 230.797V219.888C142.547 218.096 143.998 216.645 145.79 216.645C147.581 216.645 149.033 218.096 149.033 219.888V230.797C149.033 232.596 147.623 234.144 145.825 234.151H145.818Z" fill="white"/>
<path d="M173.262 238.555C175.382 236.435 175.382 232.996 173.262 230.876C171.141 228.755 167.703 228.755 165.582 230.876C163.461 232.996 163.461 236.435 165.582 238.555C167.703 240.676 171.141 240.676 173.262 238.555Z" fill="#14696C"/>
<path d="M173.659 234.714C173.659 237.054 171.764 238.95 169.423 238.95C167.083 238.95 165.188 237.054 165.188 234.714C165.188 232.374 167.083 230.478 169.423 230.478C171.764 230.478 173.659 232.374 173.659 234.714Z" fill="#1A6F72"/>
<path d="M169.243 234.151C169.243 234.151 169.202 234.151 169.181 234.151C167.382 234.137 165.973 232.589 165.973 230.797V219.888C165.973 218.096 167.424 216.645 169.216 216.645C171.007 216.645 172.459 218.096 172.459 219.888V230.797C172.459 232.596 171.049 234.144 169.25 234.151H169.243Z" fill="white"/>
<path d="M193.063 240.144C196.062 240.144 198.493 237.713 198.493 234.714C198.493 231.715 196.062 229.283 193.063 229.283C190.064 229.283 187.633 231.715 187.633 234.714C187.633 237.713 190.064 240.144 193.063 240.144Z" fill="#14696C"/>
<path d="M197.3 234.714C197.3 237.054 195.404 238.95 193.064 238.95C190.724 238.95 188.828 237.054 188.828 234.714C188.828 232.374 190.724 230.478 193.064 230.478C195.404 230.478 197.3 232.374 197.3 234.714Z" fill="#1A6F72"/>
<path d="M193.099 234.151C193.099 234.151 193.057 234.151 193.036 234.151C191.238 234.137 189.828 232.589 189.828 230.797V219.888C189.828 218.096 191.279 216.645 193.071 216.645C194.863 216.645 196.314 218.096 196.314 219.888V230.797C196.314 232.596 194.904 234.144 193.106 234.151H193.099Z" fill="white"/>
<path d="M217.53 239.99C220.449 239.299 222.254 236.373 221.562 233.454C220.871 230.536 217.945 228.731 215.026 229.422C212.108 230.114 210.303 233.04 210.994 235.958C211.686 238.877 214.612 240.682 217.53 239.99Z" fill="#14696C"/>
<path d="M220.515 234.714C220.515 237.054 218.619 238.95 216.279 238.95C213.939 238.95 212.043 237.054 212.043 234.714C212.043 232.374 213.939 230.478 216.279 230.478C218.619 230.478 220.515 232.374 220.515 234.714Z" fill="#1A6F72"/>
<path d="M216.314 234.151C216.314 234.151 216.272 234.151 216.251 234.151C214.453 234.137 213.043 232.589 213.043 230.797V219.888C213.043 218.096 214.494 216.645 216.286 216.645C218.077 216.645 219.529 218.096 219.529 219.888V230.797C219.529 232.596 218.119 234.144 216.321 234.151H216.314Z" fill="white"/>
<path d="M242.851 239.282C245.377 237.664 246.114 234.306 244.497 231.78C242.879 229.254 239.521 228.518 236.995 230.135C234.469 231.752 233.733 235.111 235.35 237.636C236.967 240.162 240.326 240.899 242.851 239.282Z" fill="#14696C"/>
<path d="M244.159 234.714C244.159 237.054 242.264 238.95 239.923 238.95C237.583 238.95 235.688 237.054 235.688 234.714C235.688 232.374 237.583 230.478 239.923 230.478C242.264 230.478 244.159 232.374 244.159 234.714Z" fill="#1A6F72"/>
<path d="M239.958 234.151C239.958 234.151 239.917 234.151 239.896 234.151C238.097 234.137 236.688 232.589 236.688 230.797V219.888C236.688 218.096 238.139 216.645 239.93 216.645C241.722 216.645 243.173 218.096 243.173 219.888V230.797C243.173 232.596 241.764 234.144 239.965 234.151H239.958Z" fill="white"/>
<path d="M268.859 235.961C269.546 233.042 267.736 230.118 264.816 229.431C261.897 228.745 258.974 230.554 258.287 233.474C257.6 236.393 259.41 239.317 262.329 240.003C265.248 240.69 268.172 238.88 268.859 235.961Z" fill="#14696C"/>
<path d="M267.796 234.714C267.796 237.054 265.9 238.95 263.56 238.95C261.22 238.95 259.324 237.054 259.324 234.714C259.324 232.374 261.22 230.478 263.56 230.478C265.9 230.478 267.796 232.374 267.796 234.714Z" fill="#1A6F72"/>
<path d="M263.595 234.151C263.595 234.151 263.553 234.151 263.532 234.151C261.734 234.137 260.324 232.589 260.324 230.797V219.888C260.324 218.096 261.776 216.645 263.567 216.645C265.359 216.645 266.81 218.096 266.81 219.888V230.797C266.81 232.596 265.4 234.144 263.602 234.151H263.595Z" fill="white"/>
<path d="M155.463 294.635H128.957V314.808H155.463V294.635Z" fill="#85CB33"/>
<g clip-path="url(#clip0_483_19149)">
<path d="M144.45 304.82C142.232 308.727 141.042 312 141.042 312C138.476 307.516 134 305.83 134 305.83C137.754 305.695 140.477 307.642 140.477 307.642C143.014 303.085 147.078 298.553 150 297C150 297 146.575 301.079 144.451 304.82H144.45Z" fill="white"/>
</g>
<path d="M236.471 315.558H209.965V335.731H236.471V315.558Z" fill="white"/>
<path d="M101.455 335.925H74.9492V356.098H101.455V335.925Z" fill="white"/>
<path d="M101.621 274.289H74.7747C74.6567 274.289 74.5664 274.198 74.5664 274.08V253.991C74.5664 253.873 74.6567 253.782 74.7747 253.782H101.621C101.739 253.782 101.829 253.873 101.829 253.991V274.08C101.829 274.198 101.739 274.289 101.621 274.289ZM74.9831 273.872H101.413V254.199H74.9831V273.872Z" fill="#D8C29E"/>
<path d="M128.625 274.289H101.779C101.661 274.289 101.57 274.198 101.57 274.08V253.991C101.57 253.873 101.661 253.782 101.779 253.782H128.625C128.743 253.782 128.833 253.873 128.833 253.991V274.08C128.833 274.198 128.743 274.289 128.625 274.289ZM101.987 273.872H128.416V254.199H101.987V273.872Z" fill="#D8C29E"/>
<path d="M155.625 274.289H128.779C128.661 274.289 128.57 274.198 128.57 274.08V253.991C128.57 253.873 128.661 253.782 128.779 253.782H155.625C155.743 253.782 155.833 253.873 155.833 253.991V274.08C155.833 274.198 155.743 274.289 155.625 274.289ZM128.987 273.872H155.416V254.199H128.987V273.872Z" fill="#D8C29E"/>
<path d="M182.633 274.289H155.786C155.668 274.289 155.578 274.198 155.578 274.08V253.991C155.578 253.873 155.668 253.782 155.786 253.782H182.633C182.751 253.782 182.841 253.873 182.841 253.991V274.08C182.841 274.198 182.751 274.289 182.633 274.289ZM155.995 273.872H182.424V254.199H155.995V273.872Z" fill="#D8C29E"/>
<path d="M209.637 274.289H182.79C182.672 274.289 182.582 274.198 182.582 274.08V253.991C182.582 253.873 182.672 253.782 182.79 253.782H209.637C209.755 253.782 209.845 253.873 209.845 253.991V274.08C209.845 274.198 209.755 274.289 209.637 274.289ZM182.999 273.872H209.428V254.199H182.999V273.872Z" fill="#D8C29E"/>
<path d="M236.644 274.289H209.798C209.68 274.289 209.59 274.198 209.59 274.08V253.991C209.59 253.873 209.68 253.782 209.798 253.782H236.644C236.762 253.782 236.853 253.873 236.853 253.991V274.08C236.853 274.198 236.762 274.289 236.644 274.289ZM210.006 273.872H236.436V254.199H210.006V273.872Z" fill="#D8C29E"/>
<path d="M263.644 274.289H236.798C236.68 274.289 236.59 274.198 236.59 274.08V253.991C236.59 253.873 236.68 253.782 236.798 253.782H263.644C263.762 253.782 263.853 253.873 263.853 253.991V274.08C263.853 274.198 263.762 274.289 263.644 274.289ZM237.006 273.872H263.436V254.199H237.006V273.872Z" fill="#D8C29E"/>
<path d="M101.621 294.781H74.7747C74.6567 294.781 74.5664 294.691 74.5664 294.573V274.483C74.5664 274.365 74.6567 274.275 74.7747 274.275H101.621C101.739 274.275 101.829 274.365 101.829 274.483V294.573C101.829 294.691 101.739 294.781 101.621 294.781ZM74.9831 294.364H101.413V274.691H74.9831V294.364Z" fill="#D8C29E"/>
<path d="M128.625 294.781H101.779C101.661 294.781 101.57 294.691 101.57 294.573V274.483C101.57 274.365 101.661 274.275 101.779 274.275H128.625C128.743 274.275 128.833 274.365 128.833 274.483V294.573C128.833 294.691 128.743 294.781 128.625 294.781ZM101.987 294.364H128.416V274.691H101.987V294.364Z" fill="#D8C29E"/>
<path d="M155.625 294.781H128.779C128.661 294.781 128.57 294.691 128.57 294.573V274.483C128.57 274.365 128.661 274.275 128.779 274.275H155.625C155.743 274.275 155.833 274.365 155.833 274.483V294.573C155.833 294.691 155.743 294.781 155.625 294.781ZM128.987 294.364H155.416V274.691H128.987V294.364Z" fill="#D8C29E"/>
<path d="M182.633 294.781H155.786C155.668 294.781 155.578 294.691 155.578 294.573V274.483C155.578 274.365 155.668 274.275 155.786 274.275H182.633C182.751 274.275 182.841 274.365 182.841 274.483V294.573C182.841 294.691 182.751 294.781 182.633 294.781ZM155.995 294.364H182.424V274.691H155.995V294.364Z" fill="#D8C29E"/>
<path d="M209.637 294.781H182.79C182.672 294.781 182.582 294.691 182.582 294.573V274.483C182.582 274.365 182.672 274.275 182.79 274.275H209.637C209.755 274.275 209.845 274.365 209.845 274.483V294.573C209.845 294.691 209.755 294.781 209.637 294.781ZM182.999 294.364H209.428V274.691H182.999V294.364Z" fill="#D8C29E"/>
<path d="M236.644 294.781H209.798C209.68 294.781 209.59 294.691 209.59 294.573V274.483C209.59 274.365 209.68 274.275 209.798 274.275H236.644C236.762 274.275 236.853 274.365 236.853 274.483V294.573C236.853 294.691 236.762 294.781 236.644 294.781ZM210.006 294.364H236.436V274.691H210.006V294.364Z" fill="#D8C29E"/>
<path d="M263.644 294.781H236.798C236.68 294.781 236.59 294.691 236.59 294.573V274.483C236.59 274.365 236.68 274.275 236.798 274.275H263.644C263.762 274.275 263.853 274.365 263.853 274.483V294.573C263.853 294.691 263.762 294.781 263.644 294.781ZM237.006 294.364H263.436V274.691H237.006V294.364Z" fill="#D8C29E"/>
<path d="M101.621 315.28H74.7747C74.6567 315.28 74.5664 315.19 74.5664 315.072V294.982C74.5664 294.864 74.6567 294.774 74.7747 294.774H101.621C101.739 294.774 101.829 294.864 101.829 294.982V315.072C101.829 315.19 101.739 315.28 101.621 315.28ZM74.9831 314.863H101.413V295.191H74.9831V314.863Z" fill="#D8C29E"/>
<path d="M128.625 315.28H101.779C101.661 315.28 101.57 315.19 101.57 315.072V294.982C101.57 294.864 101.661 294.774 101.779 294.774H128.625C128.743 294.774 128.833 294.864 128.833 294.982V315.072C128.833 315.19 128.743 315.28 128.625 315.28ZM101.987 314.863H128.416V295.191H101.987V314.863Z" fill="#D8C29E"/>
<path d="M155.625 315.28H128.779C128.661 315.28 128.57 315.19 128.57 315.072V294.982C128.57 294.864 128.661 294.774 128.779 294.774H155.625C155.743 294.774 155.833 294.864 155.833 294.982V315.072C155.833 315.19 155.743 315.28 155.625 315.28ZM128.987 314.863H155.416V295.191H128.987V314.863Z" fill="#D8C29E"/>
<path d="M182.633 315.28H155.786C155.668 315.28 155.578 315.19 155.578 315.072V294.982C155.578 294.864 155.668 294.774 155.786 294.774H182.633C182.751 294.774 182.841 294.864 182.841 294.982V315.072C182.841 315.19 182.751 315.28 182.633 315.28ZM155.995 314.863H182.424V295.191H155.995V314.863Z" fill="#D8C29E"/>
<path d="M209.637 315.28H182.79C182.672 315.28 182.582 315.19 182.582 315.072V294.982C182.582 294.864 182.672 294.774 182.79 294.774H209.637C209.755 294.774 209.845 294.864 209.845 294.982V315.072C209.845 315.19 209.755 315.28 209.637 315.28ZM182.999 314.863H209.428V295.191H182.999V314.863Z" fill="#D8C29E"/>
<path d="M236.644 315.28H209.798C209.68 315.28 209.59 315.19 209.59 315.072V294.982C209.59 294.864 209.68 294.774 209.798 294.774H236.644C236.762 294.774 236.853 294.864 236.853 294.982V315.072C236.853 315.19 236.762 315.28 236.644 315.28ZM210.006 314.863H236.436V295.191H210.006V314.863Z" fill="#D8C29E"/>
<path d="M263.644 315.28H236.798C236.68 315.28 236.59 315.19 236.59 315.072V294.982C236.59 294.864 236.68 294.774 236.798 294.774H263.644C263.762 294.774 263.853 294.864 263.853 294.982V315.072C263.853 315.19 263.762 315.28 263.644 315.28ZM237.006 314.863H263.436V295.191H237.006V314.863Z" fill="#D8C29E"/>
<path d="M101.621 335.772H74.7747C74.6567 335.772 74.5664 335.682 74.5664 335.564V315.474C74.5664 315.356 74.6567 315.266 74.7747 315.266H101.621C101.739 315.266 101.829 315.356 101.829 315.474V335.564C101.829 335.682 101.739 335.772 101.621 335.772ZM74.9831 335.356H101.413V315.683H74.9831V335.356Z" fill="#D8C29E"/>
<path d="M128.625 335.772H101.779C101.661 335.772 101.57 335.682 101.57 335.564V315.474C101.57 315.356 101.661 315.266 101.779 315.266H128.625C128.743 315.266 128.833 315.356 128.833 315.474V335.564C128.833 335.682 128.743 335.772 128.625 335.772ZM101.987 335.356H128.416V315.683H101.987V335.356Z" fill="#D8C29E"/>
<path d="M155.625 335.772H128.779C128.661 335.772 128.57 335.682 128.57 335.564V315.474C128.57 315.356 128.661 315.266 128.779 315.266H155.625C155.743 315.266 155.833 315.356 155.833 315.474V335.564C155.833 335.682 155.743 335.772 155.625 335.772ZM128.987 335.356H155.416V315.683H128.987V335.356Z" fill="#D8C29E"/>
<path d="M182.633 335.772H155.786C155.668 335.772 155.578 335.682 155.578 335.564V315.474C155.578 315.356 155.668 315.266 155.786 315.266H182.633C182.751 315.266 182.841 315.356 182.841 315.474V335.564C182.841 335.682 182.751 335.772 182.633 335.772ZM155.995 335.356H182.424V315.683H155.995V335.356Z" fill="#D8C29E"/>
<path d="M209.637 335.772H182.79C182.672 335.772 182.582 335.682 182.582 335.564V315.474C182.582 315.356 182.672 315.266 182.79 315.266H209.637C209.755 315.266 209.845 315.356 209.845 315.474V335.564C209.845 335.682 209.755 335.772 209.637 335.772ZM182.999 335.356H209.428V315.683H182.999V335.356Z" fill="#D8C29E"/>
<path d="M236.644 335.772H209.798C209.68 335.772 209.59 335.682 209.59 335.564V315.474C209.59 315.356 209.68 315.266 209.798 315.266H236.644C236.762 315.266 236.853 315.356 236.853 315.474V335.564C236.853 335.682 236.762 335.772 236.644 335.772ZM210.006 335.356H236.436V315.683H210.006V335.356Z" fill="#D8C29E"/>
<path d="M263.644 335.772H236.798C236.68 335.772 236.59 335.682 236.59 335.564V315.474C236.59 315.356 236.68 315.266 236.798 315.266H263.644C263.762 315.266 263.853 315.356 263.853 315.474V335.564C263.853 335.682 263.762 335.772 263.644 335.772ZM237.006 335.356H263.436V315.683H237.006V335.356Z" fill="#D8C29E"/>
<path d="M101.621 356.265H74.7747C74.6567 356.265 74.5664 356.174 74.5664 356.056V335.967C74.5664 335.849 74.6567 335.758 74.7747 335.758H101.621C101.739 335.758 101.829 335.849 101.829 335.967V356.056C101.829 356.174 101.739 356.265 101.621 356.265ZM74.9831 355.848H101.413V336.175H74.9831V355.848Z" fill="#D8C29E"/>
<path d="M263.651 253.984H236.805V274.073H263.651V253.984Z" fill="white"/>
<path d="M128.625 356.265H101.779C101.661 356.265 101.57 356.174 101.57 356.056V335.967C101.57 335.849 101.661 335.758 101.779 335.758H128.625C128.743 335.758 128.833 335.849 128.833 335.967V356.056C128.833 356.174 128.743 356.265 128.625 356.265ZM101.987 355.848H128.416V336.175H101.987V355.848Z" fill="#D8C29E"/>
<path d="M155.625 356.265H128.779C128.661 356.265 128.57 356.174 128.57 356.056V335.967C128.57 335.849 128.661 335.758 128.779 335.758H155.625C155.743 335.758 155.833 335.849 155.833 335.967V356.056C155.833 356.174 155.743 356.265 155.625 356.265ZM128.987 355.848H155.416V336.175H128.987V355.848Z" fill="#D8C29E"/>
<path d="M182.633 356.265H155.786C155.668 356.265 155.578 356.174 155.578 356.056V335.967C155.578 335.849 155.668 335.758 155.786 335.758H182.633C182.751 335.758 182.841 335.849 182.841 335.967V356.056C182.841 356.174 182.751 356.265 182.633 356.265ZM155.995 355.848H182.424V336.175H155.995V355.848Z" fill="#D8C29E"/>
<path d="M209.637 356.265H182.79C182.672 356.265 182.582 356.174 182.582 356.056V335.967C182.582 335.849 182.672 335.758 182.79 335.758H209.637C209.755 335.758 209.845 335.849 209.845 335.967V356.056C209.845 356.174 209.755 356.265 209.637 356.265ZM182.999 355.848H209.428V336.175H182.999V355.848Z" fill="#D8C29E"/>
<path d="M236.644 356.265H209.798C209.68 356.265 209.59 356.174 209.59 356.056V335.967C209.59 335.849 209.68 335.758 209.798 335.758H236.644C236.762 335.758 236.853 335.849 236.853 335.967V356.056C236.853 356.174 236.762 356.265 236.644 356.265ZM210.006 355.848H236.436V336.175H210.006V355.848Z" fill="#D8C29E"/>
<path d="M263.644 356.265H236.798C236.68 356.265 236.59 356.174 236.59 356.056V335.967C236.59 335.849 236.68 335.758 236.798 335.758H263.644C263.762 335.758 263.853 335.849 263.853 335.967V356.056C263.853 356.174 263.762 356.265 263.644 356.265ZM237.006 355.848H263.436V336.175H237.006V355.848Z" fill="#D8C29E"/>
<path d="M101.784 250.519H74.5352V253.991H101.784V250.519Z" fill="#E38E31"/>
<path d="M128.788 250.519H101.539V253.991H128.788V250.519Z" fill="#E4572E"/>
<path d="M155.788 250.519H128.539V253.991H155.788V250.519Z" fill="#E38E31"/>
<path d="M182.796 250.519H155.547V253.991H182.796V250.519Z" fill="#E4572E"/>
<path d="M209.796 250.519H182.547V253.991H209.796V250.519Z" fill="#E38E31"/>
<path d="M236.8 250.519H209.551V253.991H236.8V250.519Z" fill="#E4572E"/>
<path d="M263.8 250.519H236.551V253.991H263.8V250.519Z" fill="#E38E31"/>
<path d="M34.0025 287.295C34.8907 288.424 34.9096 290.045 34.456 291.411C34.0072 292.777 33.1522 293.967 32.3963 295.191C29.9019 299.222 28.3429 304.066 29.2405 308.72C29.472 309.925 29.883 311.13 30.6483 312.089C31.4184 313.049 32.59 313.738 33.8183 313.701C35.0466 313.663 36.2654 312.784 36.4827 311.579C36.7 310.369 35.6843 309.027 34.4608 309.089C32.9065 309.169 32.1412 311.121 32.368 312.656C32.6089 314.277 33.5395 315.785 34.8859 316.72C36.6103 317.925 38.8165 318.138 40.9093 318.355C43.0021 318.568 45.2131 318.87 46.8524 320.189C48.4917 321.507 49.1956 324.21 47.7358 325.727" stroke="#1F1426" stroke-width="0.75" stroke-linecap="round" stroke-linejoin="round"/>
<path d="M33.9605 286.26L32.8078 287.668C32.4771 288.07 32.7086 288.684 33.1763 288.637L35.9069 288.363C36.3746 288.316 36.6061 287.659 36.2801 287.323L35.0376 286.048" fill="#65A380"/>
<path d="M33.9605 286.26L32.8078 287.668C32.4771 288.07 32.7086 288.684 33.1763 288.637L35.9069 288.363C36.3746 288.316 36.6061 287.659 36.2801 287.323L35.0376 286.048" fill="#65A380"/>
<path d="M43.9535 274.149C43.9394 280.793 36.9003 287.068 34.4484 287.13C31.1887 287.21 24.9859 282.693 25 276.049C25.0142 269.405 29.266 264.571 34.5004 264.046C39.7348 263.522 43.9677 267.505 43.9535 274.154V274.149Z" fill="#65A380"/>
<mask id="mask0_483_19149" style="mask-type:luminance" maskUnits="userSpaceOnUse" x="25" y="264" width="19" height="24">
<path d="M43.9535 274.149C43.9394 280.793 36.9003 287.068 34.4484 287.13C31.1887 287.21 24.9859 282.693 25 276.049C25.0142 269.405 29.266 264.571 34.5004 264.046C39.7348 263.522 43.9677 267.505 43.9535 274.154V274.149Z" fill="white"/>
</mask>
<g mask="url(#mask0_483_19149)">
<path d="M29.2313 289.899L29.2738 288.944C29.3022 288.944 32.3162 288.784 36.2751 286.596C39.9269 284.583 45.1613 280.377 49.3564 271.801L50.0887 272.202C45.7613 281.053 40.3332 285.391 36.5444 287.475C32.4201 289.738 29.3541 289.894 29.2266 289.899H29.2313Z" fill="#D15F1B"/>
</g>
<path d="M40.1075 272.864C38.0336 271.054 37.4761 269.367 36.1722 267.009C36.0163 266.716 36.1439 266.347 36.4462 266.21C38.1753 265.407 40.2351 266.484 41.1279 268.011C42.0208 269.551 42.1342 271.352 41.0145 272.85C40.7878 273.147 40.3484 273.133 40.1075 272.859V272.864Z" fill="white"/>
<path d="M308.483 324.671C307.717 326.127 306.943 327.596 306.536 329.194C306.13 330.786 306.125 332.539 306.858 334.014C307.59 335.488 309.168 336.594 310.807 336.471C312.446 336.343 313.92 334.755 313.651 333.13C313.533 332.426 313.065 331.745 312.376 331.556C311.469 331.311 310.557 331.977 309.985 332.724C308.095 335.185 308.313 339.022 310.467 341.258C311.506 342.335 312.881 343.03 313.982 344.046C315.078 345.062 315.9 346.649 315.347 348.039" stroke="#1F1426" stroke-width="0.75" stroke-linecap="round" stroke-linejoin="round"/>
<path d="M308.345 323.552L307.348 324.445C307.065 324.7 307.155 325.229 307.499 325.281L309.498 325.583C309.838 325.635 310.088 325.163 309.89 324.832L309.148 323.589" fill="#D15F1B"/>
<path d="M308.345 323.552L307.348 324.445C307.065 324.7 307.155 325.229 307.499 325.281L309.498 325.583C309.838 325.635 310.088 325.163 309.89 324.832L309.148 323.589" fill="#E38E31"/>
<path d="M316.986 315.877C316.183 321.132 310.367 324.752 308.596 324.331C306.238 323.774 302.303 319.015 303.106 313.756C303.909 308.501 307.547 305.486 311.378 306.072C315.21 306.658 317.784 310.618 316.986 315.873V315.877Z" fill="#D15F1B"/>
<path d="M316.986 315.877C316.183 321.132 310.367 324.752 308.596 324.331C306.238 323.774 302.303 319.015 303.106 313.756C303.909 308.501 307.547 305.486 311.378 306.072C315.21 306.658 317.784 310.618 316.986 315.873V315.877Z" fill="#E38E31"/>
<path d="M314.025 313.968C312.216 312.296 311.706 310.854 311.181 308.482C311.115 308.17 311.304 307.863 311.611 307.783C312.844 307.462 314.011 307.972 314.833 308.837C316.137 310.287 316.406 312.593 314.899 314.058C314.639 314.313 314.242 314.233 314.025 313.968Z" fill="white"/>
<path d="M130.083 196.482C128.666 194.109 127.05 191.841 125.435 189.682L124.216 188.089C123.8 187.565 123.195 186.846 122.766 186.331C121.906 185.297 120.692 184.663 119.822 183.68L119.794 185.722C119.704 186.09 119.619 186.468 119.52 186.837L119.199 187.924L118.561 190.102L118.405 190.646L118.216 191.175L117.843 192.229L117.101 194.341L116.246 196.382C115.717 197.767 114.753 198.882 114.125 200.2C116.667 199.889 119.629 199.605 122.203 198.925C123.512 198.594 124.835 198.23 126.172 197.828C127.466 197.412 128.765 196.964 130.079 196.482H130.083Z" fill="#B6AEE5"/>
<path d="M113.118 221.295C113.066 219.872 112.976 218.478 112.853 217.122C112.712 215.752 112.49 214.362 112.253 213.039C111.814 210.417 111.096 207.926 110.274 205.521C109.376 206.622 108.498 207.648 107.487 208.654C106.995 209.169 106.532 209.713 106.022 210.209L104.449 211.664L103.665 212.397L102.819 213.072L101.133 214.424C100.561 214.863 99.942 215.256 99.3468 215.676L98.4492 216.3C98.1516 216.513 98.0712 216.815 97.75 216.995C98.3641 217.269 98.7374 217.415 99.3421 217.647C99.9468 217.883 100.561 218.114 101.184 218.337C102.427 218.781 103.726 219.225 105.021 219.593C106.306 219.948 107.628 220.269 108.989 220.567C109.669 220.713 110.354 220.855 111.053 220.987C111.734 221.101 112.419 221.195 113.118 221.285V221.295Z" fill="#D15F1B"/>
<path d="M86.5311 237.106L87.1878 235.164L87.8114 233.188C88.2129 231.87 88.5909 230.561 88.9452 229.262L89.4601 227.32C89.6207 226.663 89.7672 225.996 89.9089 225.344C90.1924 224.031 90.3388 222.433 90.5703 221.148C87.835 222.429 85.128 223.856 82.199 224.9C80.725 225.396 79.2511 225.963 77.7819 226.379C76.3126 226.828 74.8434 227.305 73.3789 227.646C75.3914 229.389 77.5126 230.977 79.7188 232.56C81.9392 234.167 84.1926 235.622 86.5311 237.106Z" fill="#65A380"/>
<path d="M55.6395 241.694L56.367 240.938L57.0757 240.135C57.5386 239.596 57.9921 239.062 58.4315 238.523C58.8709 237.985 59.296 237.451 59.707 236.912C60.118 236.378 60.5149 235.844 60.9023 235.263C62.4423 232.976 63.5384 231.27 64.7052 228.874C63.2549 229.125 61.8329 229.172 60.4393 228.983C60.0802 229.021 59.9243 228.817 59.57 228.813L58.5071 228.803H57.4441H56.915L56.3906 228.756C54.9876 228.624 53.5797 228.567 52.1955 228.283C51.5011 228.156 50.8019 228.085 50.1122 227.92L48.043 227.409C48.4587 228.619 48.9217 229.848 49.4366 231.09C49.9515 232.324 50.5373 233.472 51.1657 234.682C52.4223 237.134 53.9293 239.379 55.6489 241.694H55.6395Z" fill="#D15F1B"/>
<path d="M26.6652 232.239C29.2587 231.26 31.8098 230.159 34.2286 229.04C36.6852 227.853 39.0331 226.578 41.2488 225.236C39.9024 224.602 38.556 223.964 37.2143 223.293C35.8868 222.547 34.5499 221.852 33.2318 221.077C31.9232 220.264 30.6051 219.48 29.3013 218.644L25.418 216.035C25.4794 218.677 25.6022 221.356 25.7817 224.078C25.9801 226.771 26.2919 229.47 26.6652 232.239Z" fill="#B6AEE5"/>
<path d="M20 210.87C60.4581 252.213 119.128 214.126 119.851 183" stroke="#1F1426" stroke-width="0.75" stroke-linecap="round" stroke-linejoin="round"/>
<path d="M227 196.855C228.455 194.417 230.113 192.087 231.776 189.871L233.028 188.236C233.458 187.697 234.077 186.96 234.516 186.431C235.4 185.367 236.642 184.72 237.54 183.709L237.568 185.807C237.663 186.19 237.748 186.572 237.847 186.95L238.177 188.066L238.829 190.301L238.99 190.858L239.184 191.402L239.566 192.484L240.327 194.653L241.206 196.746C241.749 198.169 242.736 199.317 243.388 200.664C240.776 200.342 237.733 200.054 235.093 199.355C233.751 199.014 232.39 198.641 231.02 198.23C229.688 197.805 228.356 197.342 227.005 196.85L227 196.855Z" fill="#B6AEE5"/>
<path d="M244.422 222.339C244.474 220.879 244.564 219.447 244.696 218.053C244.838 216.645 245.069 215.218 245.31 213.862C245.759 211.168 246.501 208.612 247.341 206.14C248.267 207.274 249.165 208.323 250.204 209.358C250.71 209.888 251.182 210.445 251.707 210.955L253.322 212.453L254.13 213.205L254.999 213.895L256.733 215.284C257.324 215.733 257.957 216.139 258.566 216.574L259.487 217.212C259.79 217.429 259.875 217.741 260.205 217.925C259.577 218.209 259.19 218.36 258.571 218.596C257.947 218.837 257.319 219.074 256.676 219.305C255.401 219.759 254.064 220.217 252.736 220.595C251.414 220.959 250.058 221.29 248.664 221.592C247.965 221.744 247.261 221.885 246.543 222.022C245.844 222.136 245.14 222.235 244.422 222.329V222.339Z" fill="#D15F1B"/>
<path d="M271.731 238.575L271.055 236.581L270.417 234.549C270.002 233.198 269.614 231.851 269.251 230.519L268.721 228.524C268.556 227.849 268.41 227.168 268.258 226.493C267.966 225.146 267.814 223.501 267.578 222.183C270.389 223.497 273.167 224.966 276.176 226.034C277.688 226.545 279.204 227.126 280.711 227.556C282.223 228.014 283.73 228.506 285.232 228.855C283.168 230.646 280.985 232.276 278.723 233.902C276.441 235.556 274.126 237.044 271.726 238.571L271.731 238.575Z" fill="#65A380"/>
<path d="M303.458 243.287L302.712 242.512L301.984 241.689C301.507 241.137 301.044 240.588 300.595 240.036C300.147 239.483 299.707 238.93 299.287 238.382C298.866 237.834 298.455 237.285 298.063 236.69C296.481 234.341 295.356 232.588 294.156 230.131C295.644 230.391 297.109 230.438 298.536 230.245C298.904 230.282 299.065 230.079 299.428 230.07L300.52 230.06H301.611H302.154L302.693 230.013C304.134 229.876 305.579 229.819 307.001 229.526C307.715 229.394 308.433 229.323 309.141 229.153L311.267 228.628C310.842 229.871 310.365 231.133 309.836 232.409C309.307 233.675 308.707 234.857 308.06 236.099C306.77 238.618 305.22 240.924 303.453 243.301L303.458 243.287Z" fill="#D15F1B"/>
<path d="M333.215 233.576C330.555 232.569 327.928 231.44 325.444 230.292C322.921 229.077 320.507 227.764 318.234 226.384C319.614 225.732 320.998 225.075 322.377 224.39C323.738 223.624 325.113 222.911 326.469 222.112C327.815 221.276 329.171 220.472 330.508 219.612L334.5 216.933C334.438 219.645 334.311 222.4 334.127 225.198C333.923 227.967 333.602 230.736 333.22 233.581L333.215 233.576Z" fill="#B6AEE5"/>
<path d="M340.064 211.626C298.51 254.089 238.253 214.967 237.516 183" stroke="#1F1426" stroke-width="0.75" stroke-linecap="round" stroke-linejoin="round"/>
<path d="M62.8721 359.423L69.5191 365.127C69.5522 365.155 69.5522 365.202 69.5191 365.235L68.3947 366.346C68.3617 366.374 68.3144 366.374 68.2861 366.341L62.7635 359.527C62.7068 359.456 62.8013 359.366 62.8674 359.428L62.8721 359.423Z" fill="#65A380"/>
<path d="M64.2269 359.045C65.8143 360.061 70.6613 363.161 71.3416 363.586C71.3841 363.61 71.4361 363.591 71.4502 363.544L72.0691 361.597C72.0833 361.559 72.0597 361.516 72.0219 361.507L64.2883 358.913C64.208 358.884 64.1513 358.998 64.2269 359.045Z" fill="#D15F1B"/>
<path d="M62.7761 357.713L70.7978 357.911C70.845 357.911 70.8828 357.868 70.8686 357.821L70.4293 356.134C70.4198 356.096 70.382 356.073 70.3442 356.082L62.7619 357.575C62.6769 357.594 62.6863 357.717 62.7761 357.722V357.713Z" fill="#1F1426"/>
<path d="M62.0086 355.926L65.4526 348.649C65.4715 348.607 65.4526 348.555 65.4053 348.545L63.0621 348.002C63.0196 347.992 62.9771 348.021 62.9724 348.063L61.8717 355.884C61.8622 355.969 61.9756 356.002 62.0086 355.926Z" fill="#D15F1B"/>
<path d="M64.5739 355.246L68.9343 350.218C68.9626 350.185 69.0099 350.185 69.043 350.218L70.3846 351.579C70.4177 351.612 70.413 351.669 70.3705 351.692L64.6683 355.355C64.5975 355.402 64.5172 355.307 64.5739 355.246Z" fill="#B6AEE5"/>
<path d="M60.0919 357.386L54.0449 352.037C54.0118 352.009 53.9599 352.014 53.9362 352.051L52.9111 353.583C52.8875 353.62 52.8969 353.668 52.9394 353.686L60.0116 357.505C60.0872 357.547 60.158 357.443 60.0966 357.386H60.0919Z" fill="#B6AEE5"/>
<path d="M60.1484 354.948L58.0036 348.46C57.9894 348.418 57.9374 348.399 57.8996 348.418L56.5769 349.141C56.5391 349.16 56.5296 349.207 56.5485 349.245L60.0161 355.01C60.0633 355.085 60.1767 355.033 60.1484 354.948Z" fill="#65A380"/>
<path d="M61.4436 360.359L61.6279 369.323C61.6279 369.37 61.5854 369.403 61.5428 369.398L59.4689 369.016C59.4264 369.006 59.4028 368.968 59.4122 368.926L61.3019 360.345C61.3208 360.26 61.4436 360.274 61.4484 360.359H61.4436Z" fill="#B6AEE5"/>
<path d="M63.3766 362.518L65.3891 368.529C65.4033 368.571 65.375 368.614 65.3324 368.623L63.8679 368.883C63.8254 368.893 63.7876 368.86 63.7829 368.817L63.2349 362.547C63.2254 362.462 63.3483 362.433 63.3766 362.518Z" fill="#1F1426"/>
<path d="M59.972 359.896L55.9375 366.039C55.9139 366.076 55.8572 366.081 55.8241 366.048L54.7517 364.895C54.7234 364.867 54.7234 364.82 54.7517 364.791L59.8586 359.806C59.92 359.744 60.0192 359.825 59.972 359.9V359.896Z" fill="#65A380"/>
<path d="M58.23 358.341L50.3737 356.257C50.3311 356.248 50.2886 356.271 50.2839 356.319L50.0005 358.143C49.9957 358.185 50.0288 358.223 50.0713 358.228L58.2111 358.492C58.2962 358.492 58.315 358.369 58.23 358.346V358.341Z" fill="#1F1426"/>
<path d="M57.2132 360.198L51.5252 361.729C51.478 361.739 51.4544 361.791 51.478 361.833L52.2859 363.345C52.3048 363.383 52.3567 363.397 52.3945 363.369L57.2699 360.326C57.336 360.278 57.2841 360.174 57.2085 360.193L57.2132 360.198Z" fill="#D15F1B"/>
<path d="M328.217 270.737L328.586 273.057C328.633 273.341 328.813 273.586 329.073 273.709L331.194 274.721C331.846 275.032 331.86 275.959 331.217 276.289L329.124 277.357C328.869 277.49 328.695 277.735 328.657 278.024L328.354 280.353C328.26 281.071 327.381 281.369 326.871 280.859L325.208 279.2C325.005 278.997 324.712 278.907 324.429 278.959L322.119 279.389C321.405 279.522 320.852 278.78 321.178 278.132L322.241 276.039C322.374 275.784 322.369 275.477 322.232 275.226L321.108 273.161C320.763 272.523 321.297 271.767 322.01 271.881L324.329 272.244C324.613 272.287 324.901 272.192 325.099 271.98L326.715 270.274C327.211 269.749 328.099 270.019 328.213 270.737H328.217Z" fill="#D15F1B"/>
<path d="M299.213 365.737L299.581 368.057C299.628 368.341 299.808 368.586 300.068 368.709L302.189 369.721C302.841 370.032 302.855 370.959 302.213 371.289L300.12 372.357C299.865 372.49 299.69 372.735 299.652 373.024L299.35 375.353C299.255 376.071 298.377 376.369 297.866 375.859L296.203 374.2C296 373.997 295.707 373.907 295.429 373.959L293.119 374.389C292.405 374.522 291.852 373.78 292.178 373.132L293.241 371.039C293.374 370.784 293.369 370.477 293.232 370.226L292.108 368.161C291.763 367.523 292.296 366.767 293.01 366.881L295.329 367.244C295.613 367.287 295.901 367.192 296.099 366.98L297.715 365.274C298.211 364.749 299.099 365.019 299.213 365.737Z" fill="#D15F1B"/>
<path d="M55.7961 270.347L56.1456 271.585C56.1882 271.736 56.3015 271.859 56.4527 271.906L57.6668 272.322C58.04 272.45 58.1062 272.951 57.7802 273.173L56.7125 273.886C56.5803 273.971 56.5 274.118 56.5 274.278L56.4811 275.564C56.4763 275.961 56.0181 276.178 55.7063 275.932L54.7 275.138C54.5772 275.039 54.4119 275.011 54.2607 275.058L53.0324 275.436C52.6545 275.554 52.3049 275.186 52.4419 274.812L52.8859 273.607C52.9426 273.461 52.919 273.295 52.8292 273.163L52.0875 272.114C51.8608 271.788 52.1017 271.344 52.4986 271.363L53.7835 271.415C53.9394 271.419 54.0906 271.349 54.1851 271.221L54.9551 270.191C55.1914 269.874 55.6921 269.969 55.7961 270.347Z" fill="#65A380"/>
<path d="M120.796 88.3468L121.146 89.5849C121.188 89.7361 121.302 89.859 121.453 89.9062L122.667 90.322C123.04 90.4496 123.106 90.9505 122.78 91.1726L121.713 91.8861C121.58 91.9712 121.5 92.1177 121.5 92.2784L121.481 93.5637C121.476 93.9606 121.018 94.178 120.706 93.9322L119.7 93.1384C119.577 93.0392 119.412 93.0108 119.261 93.0581L118.032 93.4361C117.654 93.5542 117.305 93.1856 117.442 92.8123L117.886 91.6074C117.943 91.4609 117.919 91.2955 117.829 91.1632L117.088 90.1141C116.861 89.7881 117.102 89.3439 117.499 89.3628L118.784 89.4148C118.939 89.4195 119.091 89.3486 119.185 89.221L119.955 88.1909C120.191 87.8743 120.692 87.9688 120.796 88.3468Z" fill="#65A380"/>
<path d="M289.796 252.347L290.146 253.585C290.188 253.736 290.302 253.859 290.453 253.906L291.667 254.322C292.04 254.45 292.106 254.951 291.78 255.173L290.713 255.886C290.58 255.971 290.5 256.118 290.5 256.278L290.481 257.564C290.476 257.961 290.018 258.178 289.706 257.932L288.7 257.138C288.577 257.039 288.412 257.011 288.261 257.058L287.032 257.436C286.654 257.554 286.305 257.186 286.442 256.812L286.886 255.607C286.943 255.461 286.919 255.295 286.829 255.163L286.088 254.114C285.861 253.788 286.102 253.344 286.499 253.363L287.784 253.415C287.939 253.419 288.091 253.349 288.185 253.221L288.955 252.191C289.191 251.874 289.692 251.969 289.796 252.347Z" fill="#65A380"/>
<path d="M27.9871 326.137L29.324 327.149C29.4893 327.272 29.7019 327.309 29.9004 327.243L31.516 326.714C32.0121 326.553 32.475 327.021 32.3003 327.513L31.7239 329.096C31.653 329.289 31.6814 329.507 31.8042 329.672L32.7916 331.024C33.0939 331.439 32.7821 332.03 32.2577 332.016L30.5665 331.983C30.3586 331.983 30.1602 332.077 30.0374 332.243L29.0311 333.604C28.7193 334.024 28.0626 333.915 27.9162 333.419L27.4438 331.813C27.3871 331.614 27.2359 331.463 27.0375 331.397L25.4313 330.886C24.9352 330.731 24.8455 330.074 25.2754 329.781L26.6784 328.822C26.8485 328.703 26.9524 328.51 26.9572 328.306L26.9713 326.629C26.9713 326.109 27.576 325.816 27.9871 326.128V326.137Z" fill="#65A380"/>
<defs>
<linearGradient id="paint0_linear_483_19149" x1="180" y1="0" x2="180" y2="448" gradientUnits="userSpaceOnUse">
<stop stop-color="#EAF5F5"/>
<stop offset="1" stop-color="#EAF5F5" stop-opacity="0"/>
</linearGradient>
<clipPath id="clip0_483_19149">
<rect width="16" height="15" fill="white" transform="translate(134 297)"/>
</clipPath>
</defs>
</svg>
