<svg width="32" height="32" viewBox="0 0 32 32" fill="none" xmlns="http://www.w3.org/2000/svg">
<circle cx="16" cy="16" r="16" fill="#EAF5F5"/>
<g clip-path="url(#clip0_483_14526)">
<g filter="url(#filter0_f_483_14526)">
<path d="M12.2248 21.7729L12.4799 21.9238C13.5514 22.5584 14.7799 22.8942 16.0328 22.8948H16.0354C19.8829 22.8948 23.0141 19.7702 23.0157 15.9299C23.0164 14.0689 22.291 12.3189 20.9731 11.0024C20.3267 10.3532 19.5577 9.83841 18.7106 9.48782C17.8635 9.13723 16.9551 8.95782 16.0381 8.95997C12.1877 8.95997 9.05634 12.0842 9.05497 15.9243C9.05307 17.2356 9.42304 18.5206 10.1221 19.6309L10.2882 19.8943L9.58289 22.4642L12.2248 21.7729ZM7.56641 24.4552L8.75796 20.113C8.0231 18.8423 7.63649 17.4007 7.63695 15.9237C7.63889 11.3033 11.4061 7.54443 16.0355 7.54443C18.282 7.54557 20.3906 8.41814 21.9764 10.0021C23.5622 11.586 24.4347 13.6913 24.4339 15.9304C24.4319 20.5505 20.6641 24.3101 16.0354 24.3101H16.0317C14.6263 24.3095 13.2452 23.9576 12.0185 23.29L7.56641 24.4552Z" fill="#B3B3B3"/>
</g>
<path d="M7.48047 24.3702L8.67203 20.0281C7.9359 18.7543 7.54923 17.3093 7.55101 15.8388C7.55295 11.2184 11.3202 7.45947 15.9496 7.45947C18.196 7.46061 20.3046 8.33317 21.8905 9.91709C23.4763 11.501 24.3488 13.6064 24.348 15.8455C24.3459 20.4655 20.5781 24.2251 15.9494 24.2251H15.9458C14.5403 24.2245 13.1593 23.8726 11.9326 23.205L7.48047 24.3702Z" fill="white"/>
<path d="M15.9519 8.87404C12.1015 8.87404 8.97013 11.9982 8.96876 15.8384C8.96686 17.1497 9.33683 18.4347 10.0359 19.545L10.202 19.8085L9.49668 22.3784L12.1387 21.687L12.3938 21.8378C13.4653 22.4725 14.6938 22.8081 15.9467 22.8088H15.9493C19.7968 22.8088 22.9281 19.6843 22.9296 15.8439C22.9325 14.9286 22.7534 14.0218 22.4028 13.176C22.0522 12.3302 21.537 11.5622 20.887 10.9165C20.2405 10.2673 19.4715 9.75247 18.6244 9.40187C17.7773 9.05128 16.869 8.87188 15.9519 8.87404Z" fill="url(#paint0_linear_483_14526)"/>
<path fill-rule="evenodd" clip-rule="evenodd" d="M13.8482 12.335C13.6909 11.9863 13.5254 11.9792 13.376 11.9732L12.9737 11.9683C12.8338 11.9683 12.6064 12.0207 12.4142 12.2303C12.222 12.4399 11.6797 12.9465 11.6797 13.977C11.6797 15.0075 12.4317 16.0032 12.5365 16.1431C12.6412 16.283 13.9882 18.465 16.1212 19.3045C17.8937 20.0022 18.2544 19.8635 18.6393 19.8286C19.0242 19.7937 19.8809 19.322 20.0556 18.8329C20.2304 18.3438 20.2305 17.9248 20.1781 17.8372C20.1257 17.7496 19.9858 17.6975 19.7758 17.5927C19.5657 17.4879 18.5342 16.9812 18.3419 16.9113C18.1495 16.8413 18.0097 16.8066 17.8696 17.0162C17.7296 17.2258 17.3279 17.6974 17.2054 17.8372C17.083 17.977 16.9607 17.9945 16.7507 17.8898C16.5407 17.7851 15.8649 17.5639 15.0632 16.8503C14.4394 16.2952 14.0183 15.6096 13.8957 15.4001C13.7731 15.1906 13.8827 15.0771 13.9879 14.9727C14.0821 14.8789 14.1977 14.7281 14.3028 14.6059C14.408 14.4836 14.4426 14.3963 14.5124 14.2567C14.5823 14.1171 14.5475 13.9946 14.495 13.8899C14.4424 13.7852 14.0347 12.7493 13.8482 12.3351" fill="white"/>
</g>
<defs>
<filter id="filter0_f_483_14526" x="6.76186" y="6.73989" width="18.4763" height="18.5197" filterUnits="userSpaceOnUse" color-interpolation-filters="sRGB">
<feFlood flood-opacity="0" result="BackgroundImageFix"/>
<feBlend mode="normal" in="SourceGraphic" in2="BackgroundImageFix" result="shape"/>
<feGaussianBlur stdDeviation="0.402274" result="effect1_foregroundBlur_483_14526"/>
</filter>
<linearGradient id="paint0_linear_483_14526" x1="15.8071" y1="9.71026" x2="15.8776" y2="21.6184" gradientUnits="userSpaceOnUse">
<stop stop-color="#57D163"/>
<stop offset="1" stop-color="#23B33A"/>
</linearGradient>
<clipPath id="clip0_483_14526">
<rect width="20" height="20" fill="white" transform="translate(6 6)"/>
</clipPath>
</defs>
</svg>
