<svg width="20" height="20" viewBox="0 0 20 20" fill="none" xmlns="http://www.w3.org/2000/svg">
<path fill-rule="evenodd" clip-rule="evenodd" d="M9.16797 3.33341C5.94631 3.33341 3.33464 5.94509 3.33464 9.16675C3.33464 12.3884 5.94631 15.0001 9.16797 15.0001C12.3896 15.0001 15.0013 12.3884 15.0013 9.16675C15.0013 5.94509 12.3896 3.33341 9.16797 3.33341ZM1.66797 9.16675C1.66797 5.02461 5.02583 1.66675 9.16797 1.66675C13.3101 1.66675 16.668 5.02461 16.668 9.16675C16.668 13.3089 13.3101 16.6667 9.16797 16.6667C5.02583 16.6667 1.66797 13.3089 1.66797 9.16675Z" fill="#333333"/>
<path fill-rule="evenodd" clip-rule="evenodd" d="M13.58 13.5776C13.9055 13.2521 14.4331 13.2521 14.7585 13.5776L18.0919 16.9109C18.4173 17.2363 18.4173 17.764 18.0919 18.0894C17.7664 18.4149 17.2388 18.4149 16.9133 18.0894L13.58 14.7561C13.2546 14.4306 13.2546 13.903 13.58 13.5776Z" fill="#333333"/>
</svg>
