<svg width="20" height="20" viewBox="0 0 20 20" fill="none" xmlns="http://www.w3.org/2000/svg">
<path fill-rule="evenodd" clip-rule="evenodd" d="M1.66797 5.83341C1.66797 3.53223 3.53345 1.66675 5.83464 1.66675H14.168C16.4692 1.66675 18.3346 3.53223 18.3346 5.83341V14.1667C18.3346 16.4679 16.4692 18.3334 14.168 18.3334H5.83464C3.53345 18.3334 1.66797 16.4679 1.66797 14.1667V5.83341ZM5.83464 3.33341C4.45392 3.33341 3.33464 4.4527 3.33464 5.83341V14.1667C3.33464 15.5475 4.45392 16.6667 5.83464 16.6667H14.168C15.5487 16.6667 16.668 15.5475 16.668 14.1667V5.83341C16.668 4.4527 15.5487 3.33341 14.168 3.33341H5.83464Z" fill="#2A9DA0"/>
<path fill-rule="evenodd" clip-rule="evenodd" d="M8.92885 5.99681C9.41467 5.18954 10.585 5.18954 11.0709 5.99681L11.9033 7.38007L13.4761 7.74433C14.394 7.95691 14.7557 9.07 14.138 9.78151L13.0797 11.0007L13.2193 12.609C13.3008 13.5477 12.3539 14.2356 11.4864 13.8681L9.99986 13.2383L8.51334 13.8681C7.64579 14.2356 6.69894 13.5477 6.78041 12.609L6.91999 11.0007L5.86168 9.78151C5.24405 9.07 5.60571 7.95691 6.5236 7.74433L8.0964 7.38007L8.92885 5.99681ZM9.99986 7.44942L9.43339 8.3907C9.25886 8.68072 8.97417 8.88755 8.64442 8.96393L7.57416 9.2118L8.29432 10.0414C8.51621 10.297 8.62495 10.6317 8.59568 10.9689L8.50069 12.0634L9.51225 11.6348C9.82392 11.5028 10.1758 11.5028 10.4875 11.6348L11.499 12.0634L11.404 10.9689C11.3748 10.6317 11.4835 10.297 11.7054 10.0414L12.4256 9.2118L11.3553 8.96393C11.0256 8.88755 10.7409 8.68072 10.5663 8.3907L9.99986 7.44942Z" fill="#2A9DA0"/>
</svg>
