<svg width="328" height="156" viewBox="0 0 328 156" fill="none" xmlns="http://www.w3.org/2000/svg">
<path d="M164 80C193.271 80 217 78.2091 217 76C217 73.7909 193.271 72 164 72C134.729 72 111 73.7909 111 76C111 78.2091 134.729 80 164 80Z" fill="#EAF5F5"/>
<path d="M158.454 14.434C158.929 11.6796 159.897 9.12524 161.583 6.87627C164.41 3.10794 168.166 0.881534 172.817 0.157954C172.957 0.136894 173.127 0.185032 173.201 0H177.111C179.405 0.108311 181.481 0.911621 183.472 1.99323C186.201 3.47499 188.318 5.58857 189.863 8.26175C190.625 9.58105 191.227 10.9801 191.635 12.4648C191.829 13.1674 191.761 13.9015 191.997 14.5874V14.8883C191.874 15.1892 191.874 15.49 191.997 15.7909V17.8955C191.835 18.1888 191.96 18.5062 191.919 18.8086C191.839 22.0835 190.477 24.8725 188.524 27.3832C185.878 30.7845 182.373 32.853 178.129 33.6036C172.96 34.5182 168.334 33.223 164.286 29.9346C160.575 26.9184 158.627 22.9214 158.158 18.2068C158.033 16.9568 157.902 15.6555 158.452 14.434H158.454Z" fill="#E66E54"/>
<path d="M115.003 6.46541C115.611 5.1055 116.709 4.758 118.115 4.7926C120.668 4.85728 123.226 4.84074 125.78 4.78959C126.431 4.77605 126.616 5.02276 126.762 5.58086C129.198 14.8911 131.651 24.1954 134.102 33.5011C135.534 38.9393 136.98 44.3744 138.383 49.82C138.537 50.4158 138.791 50.5361 139.354 50.5361C155.936 50.5211 172.519 50.5331 189.102 50.509C190.513 50.5075 191.521 50.9438 191.999 52.3278V53.6816C191.39 55.0386 190.29 55.356 188.885 55.353C171.123 55.3259 153.362 55.3304 135.6 55.353C134.931 55.353 134.674 55.1785 134.501 54.515C131.075 41.4064 127.621 28.3052 124.172 15.204C123.733 13.5357 123.266 11.875 122.859 10.1991C122.746 9.73581 122.552 9.60343 122.096 9.61246C120.769 9.63953 119.438 9.56883 118.114 9.63652C116.707 9.70873 115.608 9.32814 115 7.96823V6.4639L115.003 6.46541Z" fill="#2A9DA0"/>
<path d="M140.982 40.9149C139.918 36.9059 138.849 32.8969 137.794 28.8848C136.586 24.2891 135.392 19.6904 134.187 15.0947C134.093 14.7367 133.941 14.4253 134.561 14.4268C140.926 14.4478 147.291 14.4523 153.656 14.4599C153.853 14.6675 153.812 14.9157 153.791 15.1684C153.487 18.863 154.108 22.3997 155.646 25.7709C156.302 27.209 157.066 28.59 158.056 29.8295C158.405 30.2658 158.527 30.7442 158.524 31.2933C158.513 32.8698 158.501 34.4478 158.527 36.0244C158.563 38.2147 160.603 38.6178 161.811 38.0131C162.614 37.6099 162.846 36.8984 162.907 36.0951C163.02 34.6088 163.001 34.6238 164.311 35.3685C167.022 36.9089 169.911 37.8521 173.034 38.171C175.954 38.4704 178.775 38.1229 181.559 37.3015C182.191 37.115 182.667 37.1345 183.184 37.64C183.906 38.3455 184.815 38.4538 185.764 38.0567C186.656 37.6821 186.982 36.9164 186.949 36.059C186.912 35.0962 187.268 34.4794 188.043 33.9424C189.302 33.0699 190.382 31.9867 191.348 30.7938C191.511 30.5922 191.652 30.3109 191.998 30.3756V32.4802C191.932 34.1274 191.378 35.5971 190.412 36.9254C188.418 39.6648 185.725 41.1165 182.342 41.124C170.67 41.1511 158.996 41.1345 147.324 41.1345C145.57 41.1345 143.817 41.1361 142.063 41.1345C141.689 41.1345 141.307 41.1616 140.98 40.9164L140.982 40.9149Z" fill="#FFCF74"/>
<path d="M192 30.3745C190.655 31.9856 189.197 33.4794 187.452 34.6633C187.162 34.8604 187.192 35.1146 187.186 35.3869C187.175 35.9089 187.196 36.4234 187.045 36.9454C186.765 37.9036 186.053 38.3143 185.181 38.4647C184.298 38.6167 183.467 38.3639 182.885 37.6584C182.607 37.3199 182.387 37.2688 181.997 37.3906C179.506 38.1714 176.963 38.6107 174.342 38.4933C170.686 38.3293 167.269 37.3455 164.108 35.4937C163.812 35.3207 163.512 35.1522 163.187 34.9672C163.02 35.6005 163.219 36.2022 163.022 36.7859C162.626 37.9593 161.588 38.6543 160.385 38.4873C159.154 38.3173 158.331 37.4012 158.318 36.1315C158.3 34.4542 158.306 32.7754 158.318 31.0966C158.321 30.7039 158.22 30.4016 157.972 30.0751C155.648 27.0093 154.195 23.5614 153.682 19.7539C153.445 18.0029 153.355 16.2263 153.655 14.4602C155.255 14.4512 156.854 14.4422 158.455 14.4316C158.491 15.2079 158.294 15.9661 158.301 16.7468C158.351 21.6253 160.108 25.7833 163.642 29.1214C166.289 31.6231 169.469 33.1093 173.12 33.5426C177.661 34.0796 181.766 32.9634 185.376 30.206C189.128 27.3403 191.297 23.5133 191.857 18.8032C191.9 18.731 191.947 18.725 191.998 18.7957V30.3745H192Z" fill="#F9AB43"/>
<path d="M140.981 40.9147C147.77 40.9102 154.561 40.9042 161.35 40.9027C168.265 40.9012 175.181 40.859 182.095 40.9177C186.353 40.9538 190.129 38.3212 191.539 34.2671C191.742 33.6819 191.703 33.0395 191.999 32.4814V37.5946C191.709 38.0429 191.712 38.58 191.551 39.0689C190.254 43.0177 186.567 45.7135 182.415 45.7135C169.267 45.7135 156.119 45.709 142.972 45.7315C142.317 45.7315 142.065 45.533 141.935 44.9162C141.654 43.5743 141.303 42.2475 140.981 40.9147Z" fill="#F9AB43"/>
<path d="M146.133 76.9927C145.076 76.5925 143.977 76.3187 142.999 75.6989C139.881 73.7208 138.321 69.79 139.381 66.4699C139.856 66.0186 139.869 66.6068 139.939 66.7723C140.257 67.5124 140.64 68.2059 141.128 68.8467C144.819 73.6982 152.505 72.7279 154.87 67.1107C154.966 66.8806 155.044 66.6399 155.196 66.4383C155.337 66.2503 155.476 66.2443 155.589 66.4699C157.003 70.9001 153.746 76.0871 149.073 76.8437C148.937 76.8663 148.764 76.8076 148.688 76.9927H146.133Z" fill="#333333"/>
<path d="M184.463 66.4689C185.877 70.8992 182.62 76.0861 177.947 76.8428C177.811 76.8653 177.638 76.8067 177.562 76.9917H175.007C173.951 76.5915 172.851 76.3177 171.873 75.698C168.755 73.7198 167.195 69.789 168.255 66.4689C168.73 66.0161 168.743 66.6058 168.813 66.7713C169.131 67.5114 169.514 68.2049 170.002 68.8458C173.693 73.6972 181.379 72.7269 183.744 67.1098C183.84 66.8796 183.918 66.6389 184.07 66.4373C184.212 66.2493 184.35 66.2433 184.463 66.4689Z" fill="#333333"/>
<path d="M175.5 8.91529C175.279 8.61443 175.263 8.31356 175.5 8.0127V8.91529Z" fill="#F09541"/>
<path d="M191.998 18.7961C191.95 18.7961 191.903 18.7992 191.857 18.8037C191.887 18.4983 191.732 18.1628 191.998 17.8936V18.7961Z" fill="#F09541"/>
<path d="M155.587 66.4683C155.091 66.3149 155.226 66.7963 155.154 66.9663C154.115 69.4168 152.328 71.0249 149.803 71.8418C146.434 72.9324 142.297 71.3514 140.496 68.2946C140.177 67.753 139.902 67.1979 139.691 66.6113C139.619 66.4112 139.545 66.3826 139.38 66.4683C139.905 63.6252 142.601 61.0076 145.697 60.3352C150.006 59.3995 154.378 62.0125 155.58 66.2472C155.6 66.3164 155.586 66.3946 155.587 66.4699V66.4683Z" fill="#595959"/>
<path d="M184.462 66.4683C183.966 66.3149 184.101 66.7963 184.029 66.9663C182.99 69.4168 181.203 71.0249 178.678 71.8418C175.309 72.9324 171.172 71.3514 169.371 68.2946C169.052 67.753 168.777 67.1979 168.566 66.6113C168.494 66.4112 168.42 66.3826 168.255 66.4683C168.78 63.6252 171.476 61.0076 174.572 60.3352C178.881 59.3995 183.253 62.0125 184.455 66.2472C184.475 66.3164 184.461 66.3946 184.462 66.4699V66.4683Z" fill="#595959"/>
<path d="M146.282 28.8106C146.282 26.4804 146.273 24.1487 146.286 21.8185C146.291 20.9415 146.479 20.1231 147.318 19.6327C148.305 19.055 149.297 19.1212 150.226 19.7305C150.858 20.1457 151.079 20.8542 151.082 21.5642C151.103 26.4262 151.103 31.2882 151.088 36.1502C151.084 37.5296 150.073 38.4894 148.702 38.4969C147.297 38.5029 146.295 37.5312 146.286 36.1051C146.271 33.6741 146.282 31.2431 146.282 28.8121V28.8106Z" fill="#F9AB43"/>
<mask id="mask0_382_3407" style="mask-type:alpha" maskUnits="userSpaceOnUse" x="165" y="7" width="20" height="20">
<rect x="165" y="7" width="20" height="20" fill="#D9D9D9"/>
</mask>
<g mask="url(#mask0_382_3407)">
<path d="M174.997 24.5C174.538 24.5 174.146 24.3368 173.82 24.0104C173.493 23.684 173.33 23.2917 173.33 22.8333C173.33 22.375 173.493 21.9826 173.82 21.6562C174.146 21.3299 174.538 21.1667 174.997 21.1667C175.455 21.1667 175.847 21.3299 176.174 21.6562C176.5 21.9826 176.663 22.375 176.663 22.8333C176.663 23.2917 176.5 23.684 176.174 24.0104C175.847 24.3368 175.455 24.5 174.997 24.5ZM173.33 19.5V9.5H176.663V19.5H173.33Z" fill="white"/>
</g>
<path d="M71.1983 118V117.76L71.9183 117.568C72.4783 117.408 72.7583 117.008 72.7583 116.368V111.808L68.7983 103.744C68.6543 103.424 68.5183 103.184 68.3903 103.024C68.2783 102.864 68.1023 102.728 67.8623 102.616L67.4303 102.4V102.16H73.8623V102.4L73.4303 102.568C73.0783 102.712 72.8863 102.912 72.8543 103.168C72.8223 103.408 72.8863 103.712 73.0463 104.08L75.8783 110.368L79.0463 103.84C79.1743 103.584 79.2223 103.32 79.1903 103.048C79.1743 102.776 79.0063 102.6 78.6863 102.52L78.3503 102.4V102.16H81.2303V102.4L80.7743 102.568C80.4703 102.68 80.2463 102.84 80.1023 103.048C79.9583 103.24 79.8143 103.488 79.6703 103.792L76.3823 110.704V116.368C76.3823 116.688 76.4383 116.952 76.5503 117.16C76.6783 117.352 76.8943 117.488 77.1983 117.568L77.9423 117.76V118H71.1983ZM85.5793 118.36C84.3633 118.36 83.3073 118.112 82.4113 117.616C81.5153 117.104 80.8193 116.384 80.3233 115.456C79.8433 114.528 79.6033 113.44 79.6033 112.192C79.6033 110.944 79.8593 109.864 80.3713 108.952C80.8993 108.04 81.6113 107.336 82.5073 106.84C83.4193 106.344 84.4433 106.096 85.5793 106.096C86.7153 106.096 87.7313 106.344 88.6273 106.84C89.5233 107.32 90.2273 108.016 90.7393 108.928C91.2673 109.84 91.5313 110.928 91.5313 112.192C91.5313 113.456 91.2833 114.552 90.7873 115.48C90.3073 116.392 89.6193 117.104 88.7233 117.616C87.8433 118.112 86.7953 118.36 85.5793 118.36ZM85.5793 117.88C86.1393 117.88 86.5873 117.72 86.9233 117.4C87.2593 117.08 87.4993 116.512 87.6433 115.696C87.8033 114.88 87.8833 113.728 87.8833 112.24C87.8833 110.736 87.8033 109.576 87.6433 108.76C87.4993 107.944 87.2593 107.376 86.9233 107.056C86.5873 106.736 86.1393 106.576 85.5793 106.576C85.0193 106.576 84.5633 106.736 84.2113 107.056C83.8753 107.376 83.6273 107.944 83.4673 108.76C83.3233 109.576 83.2513 110.736 83.2513 112.24C83.2513 113.728 83.3233 114.88 83.4673 115.696C83.6273 116.512 83.8753 117.08 84.2113 117.4C84.5633 117.72 85.0193 117.88 85.5793 117.88ZM96.8357 118.36C96.2117 118.36 95.6357 118.24 95.1077 118C94.5957 117.76 94.1877 117.376 93.8837 116.848C93.5957 116.304 93.4597 115.592 93.4757 114.712L93.5477 108.544C93.5477 108.176 93.4837 107.912 93.3557 107.752C93.2277 107.592 93.0277 107.48 92.7557 107.416L92.4677 107.32V107.08L96.7637 106.24L97.0037 106.48L96.8837 109.888V115.672C96.8837 116.184 97.0277 116.56 97.3157 116.8C97.6197 117.04 97.9957 117.16 98.4437 117.16C98.8917 117.16 99.2917 117.096 99.6437 116.968C99.9957 116.84 100.348 116.648 100.7 116.392L100.796 108.568C100.796 108.2 100.74 107.944 100.628 107.8C100.516 107.64 100.308 107.528 100.004 107.464L99.7637 107.392V107.152L103.964 106.24L104.204 106.48L104.132 109.888V116.392C104.132 116.744 104.18 117.016 104.276 117.208C104.372 117.4 104.58 117.56 104.9 117.688L105.14 117.76V118L100.94 118.24L100.724 116.824C100.196 117.256 99.6197 117.624 98.9957 117.928C98.3877 118.216 97.6677 118.36 96.8357 118.36ZM106.109 118V117.76L106.469 117.664C106.789 117.568 107.005 117.424 107.117 117.232C107.245 117.04 107.309 116.792 107.309 116.488V108.976C107.309 108.624 107.245 108.368 107.117 108.208C107.005 108.032 106.789 107.912 106.469 107.848L106.109 107.752V107.512L110.237 106.12L110.477 106.36L110.693 108.424V108.616C110.917 108.168 111.205 107.76 111.557 107.392C111.925 107.008 112.325 106.696 112.757 106.456C113.205 106.216 113.645 106.096 114.077 106.096C114.685 106.096 115.149 106.264 115.469 106.6C115.789 106.936 115.949 107.36 115.949 107.872C115.949 108.416 115.789 108.84 115.469 109.144C115.165 109.432 114.797 109.576 114.365 109.576C113.693 109.576 113.101 109.24 112.589 108.568L112.541 108.52C112.381 108.296 112.197 108.176 111.989 108.16C111.781 108.128 111.589 108.224 111.413 108.448C111.253 108.592 111.117 108.768 111.005 108.976C110.909 109.168 110.813 109.392 110.717 109.648V116.344C110.717 116.984 110.997 117.384 111.557 117.544L112.325 117.76V118H106.109ZM127.881 118.36C126.793 118.36 125.801 118.128 124.905 117.664C124.025 117.184 123.321 116.496 122.793 115.6C122.281 114.688 122.025 113.576 122.025 112.264C122.025 110.968 122.305 109.864 122.865 108.952C123.441 108.024 124.201 107.32 125.145 106.84C126.105 106.344 127.153 106.096 128.289 106.096C129.217 106.096 130.001 106.248 130.641 106.552C131.281 106.856 131.769 107.256 132.105 107.752C132.441 108.232 132.609 108.736 132.609 109.264C132.609 109.712 132.473 110.064 132.201 110.32C131.929 110.56 131.577 110.68 131.145 110.68C130.681 110.68 130.305 110.512 130.017 110.176C129.729 109.84 129.561 109.4 129.513 108.856C129.497 108.504 129.505 108.208 129.537 107.968C129.569 107.712 129.569 107.456 129.537 107.2C129.473 106.928 129.369 106.752 129.225 106.672C129.097 106.576 128.913 106.528 128.673 106.528C127.697 106.528 126.937 106.952 126.393 107.8C125.865 108.648 125.601 110 125.601 111.856C125.601 113.472 125.897 114.712 126.489 115.576C127.097 116.424 128.025 116.848 129.273 116.848C130.025 116.848 130.633 116.712 131.097 116.44C131.561 116.168 132.009 115.76 132.441 115.216L132.681 115.408C132.281 116.352 131.665 117.08 130.833 117.592C130.001 118.104 129.017 118.36 127.881 118.36ZM137.152 118.36C136.224 118.36 135.44 118.096 134.8 117.568C134.176 117.04 133.864 116.28 133.864 115.288C133.864 114.536 134.248 113.848 135.016 113.224C135.784 112.584 136.992 112.104 138.64 111.784C138.896 111.736 139.184 111.688 139.504 111.64C139.824 111.576 140.16 111.512 140.512 111.448V109.552C140.512 108.464 140.376 107.704 140.104 107.272C139.848 106.824 139.44 106.6 138.88 106.6C138.496 106.6 138.192 106.728 137.968 106.984C137.744 107.224 137.6 107.648 137.536 108.256L137.488 108.52C137.456 109.208 137.288 109.712 136.984 110.032C136.68 110.352 136.304 110.512 135.856 110.512C135.44 110.512 135.096 110.384 134.824 110.128C134.552 109.872 134.416 109.528 134.416 109.096C134.416 108.44 134.64 107.888 135.088 107.44C135.552 106.992 136.16 106.656 136.912 106.432C137.664 106.208 138.48 106.096 139.36 106.096C140.784 106.096 141.88 106.448 142.648 107.152C143.432 107.84 143.824 108.968 143.824 110.536V115.84C143.824 116.56 144.16 116.92 144.832 116.92H145.36L145.576 117.112C145.272 117.496 144.936 117.792 144.568 118C144.216 118.208 143.712 118.312 143.056 118.312C142.352 118.312 141.792 118.152 141.376 117.832C140.976 117.496 140.712 117.056 140.584 116.512C140.104 117.024 139.608 117.464 139.096 117.832C138.6 118.184 137.952 118.36 137.152 118.36ZM138.616 116.896C138.936 116.896 139.232 116.824 139.504 116.68C139.792 116.52 140.128 116.28 140.512 115.96V111.928C140.352 111.96 140.192 111.992 140.032 112.024C139.872 112.056 139.688 112.088 139.48 112.12C138.744 112.312 138.152 112.64 137.704 113.104C137.272 113.552 137.056 114.16 137.056 114.928C137.056 115.584 137.208 116.08 137.512 116.416C137.816 116.736 138.184 116.896 138.616 116.896ZM146.023 118V117.76L146.383 117.664C146.703 117.568 146.919 117.424 147.031 117.232C147.159 117.04 147.223 116.792 147.223 116.488V108.976C147.223 108.624 147.159 108.368 147.031 108.208C146.919 108.032 146.703 107.912 146.383 107.848L146.023 107.752V107.512L150.151 106.12L150.391 106.36L150.607 108.424V108.616C150.831 108.168 151.119 107.76 151.471 107.392C151.839 107.008 152.239 106.696 152.671 106.456C153.119 106.216 153.559 106.096 153.991 106.096C154.599 106.096 155.063 106.264 155.383 106.6C155.703 106.936 155.863 107.36 155.863 107.872C155.863 108.416 155.703 108.84 155.383 109.144C155.079 109.432 154.711 109.576 154.279 109.576C153.607 109.576 153.015 109.24 152.503 108.568L152.455 108.52C152.295 108.296 152.111 108.176 151.903 108.16C151.695 108.128 151.503 108.224 151.327 108.448C151.167 108.592 151.031 108.768 150.919 108.976C150.823 109.168 150.727 109.392 150.631 109.648V116.344C150.631 116.984 150.911 117.384 151.471 117.544L152.239 117.76V118H146.023ZM161.388 118.36C160.364 118.36 159.564 118.104 158.988 117.592C158.428 117.08 158.148 116.264 158.148 115.144V106.936H156.492V106.696L157.068 106.6C157.564 106.488 157.988 106.328 158.34 106.12C158.708 105.912 159.068 105.632 159.42 105.28L161.388 103.096H161.628L161.556 106.456H164.244V106.936H161.532V115.576C161.532 116.136 161.652 116.56 161.892 116.848C162.148 117.136 162.468 117.28 162.852 117.28C163.188 117.28 163.484 117.2 163.74 117.04C163.996 116.864 164.252 116.632 164.508 116.344L164.748 116.584C164.428 117.128 163.988 117.56 163.428 117.88C162.868 118.2 162.188 118.36 161.388 118.36ZM173.606 104.848C173.062 104.848 172.598 104.68 172.214 104.344C171.846 103.992 171.662 103.552 171.662 103.024C171.662 102.48 171.846 102.04 172.214 101.704C172.598 101.368 173.062 101.2 173.606 101.2C174.15 101.2 174.606 101.368 174.974 101.704C175.342 102.04 175.526 102.48 175.526 103.024C175.526 103.552 175.342 103.992 174.974 104.344C174.606 104.68 174.15 104.848 173.606 104.848ZM170.774 118V117.76L171.11 117.664C171.43 117.568 171.646 117.424 171.758 117.232C171.886 117.04 171.95 116.784 171.95 116.464V108.952C171.95 108.616 171.886 108.368 171.758 108.208C171.646 108.032 171.43 107.912 171.11 107.848L170.774 107.776V107.536L175.166 106.12L175.406 106.36L175.334 109.768V116.488C175.334 116.808 175.39 117.064 175.502 117.256C175.63 117.448 175.846 117.592 176.15 117.688L176.39 117.76V118H170.774ZM181.605 118.36C180.821 118.36 180.117 118.264 179.493 118.072C178.869 117.896 178.293 117.672 177.765 117.4L177.789 114.544H178.029L178.845 115.984C179.197 116.624 179.581 117.104 179.997 117.424C180.429 117.728 180.973 117.88 181.629 117.88C182.397 117.88 183.013 117.712 183.477 117.376C183.957 117.024 184.197 116.56 184.197 115.984C184.197 115.456 184.029 115.024 183.693 114.688C183.357 114.352 182.733 114.048 181.821 113.776L180.813 113.464C179.837 113.176 179.069 112.728 178.509 112.12C177.949 111.512 177.669 110.768 177.669 109.888C177.669 108.832 178.085 107.936 178.917 107.2C179.749 106.464 180.941 106.096 182.493 106.096C183.117 106.096 183.701 106.168 184.245 106.312C184.805 106.44 185.341 106.64 185.853 106.912L185.709 109.504H185.469L184.629 108.016C184.325 107.488 184.021 107.12 183.717 106.912C183.429 106.688 182.989 106.576 182.397 106.576C181.853 106.576 181.341 106.728 180.861 107.032C180.381 107.336 180.141 107.768 180.141 108.328C180.141 108.872 180.341 109.304 180.741 109.624C181.157 109.944 181.765 110.24 182.565 110.512L183.645 110.824C184.797 111.176 185.621 111.664 186.117 112.288C186.613 112.896 186.861 113.632 186.861 114.496C186.861 115.664 186.397 116.6 185.469 117.304C184.557 118.008 183.269 118.36 181.605 118.36ZM199.156 106.096C200.196 106.096 201.084 106.312 201.82 106.744C202.556 107.16 203.116 107.736 203.5 108.472C203.9 109.192 204.1 110.016 204.1 110.944C204.1 111.12 204.092 111.304 204.076 111.496C204.06 111.672 204.028 111.832 203.98 111.976H196.828C196.844 113.704 197.148 114.952 197.74 115.72C198.348 116.472 199.244 116.848 200.428 116.848C201.228 116.848 201.876 116.72 202.372 116.464C202.868 116.208 203.332 115.832 203.764 115.336L204.004 115.552C203.508 116.432 202.844 117.12 202.012 117.616C201.196 118.112 200.212 118.36 199.06 118.36C197.924 118.36 196.916 118.12 196.036 117.64C195.156 117.144 194.468 116.44 193.972 115.528C193.476 114.616 193.228 113.528 193.228 112.264C193.228 110.952 193.516 109.84 194.092 108.928C194.668 108 195.404 107.296 196.3 106.816C197.212 106.336 198.164 106.096 199.156 106.096ZM199.084 106.576C198.62 106.576 198.22 106.72 197.884 107.008C197.564 107.28 197.308 107.776 197.116 108.496C196.94 109.2 196.844 110.2 196.828 111.496H200.932C201.092 109.752 201.028 108.496 200.74 107.728C200.452 106.96 199.9 106.576 199.084 106.576ZM205.296 118V117.76L205.632 117.664C205.936 117.584 206.144 117.448 206.256 117.256C206.384 117.064 206.456 116.808 206.472 116.488V108.976C206.472 108.624 206.416 108.368 206.304 108.208C206.192 108.032 205.976 107.912 205.656 107.848L205.296 107.752V107.512L209.4 106.12L209.64 106.36L209.832 107.992C210.36 107.464 210.96 107.016 211.632 106.648C212.32 106.28 213.032 106.096 213.768 106.096C214.536 106.096 215.152 106.256 215.616 106.576C216.08 106.88 216.432 107.36 216.672 108.016C217.296 107.424 217.968 106.96 218.688 106.624C219.424 106.272 220.136 106.096 220.824 106.096C221.96 106.096 222.792 106.368 223.32 106.912C223.864 107.456 224.136 108.312 224.136 109.48V116.512C224.136 117.136 224.424 117.528 225 117.688L225.264 117.76V118H219.72V117.76L219.96 117.688C220.264 117.592 220.472 117.448 220.584 117.256C220.712 117.064 220.776 116.808 220.776 116.488V109.144C220.776 108.472 220.656 108.016 220.416 107.776C220.176 107.52 219.792 107.392 219.264 107.392C218.848 107.392 218.44 107.488 218.04 107.68C217.656 107.856 217.248 108.128 216.816 108.496C216.896 108.752 216.944 109.032 216.96 109.336C216.992 109.64 217.008 109.96 217.008 110.296V116.512C217.024 117.136 217.312 117.528 217.872 117.688L218.088 117.76V118H212.52V117.76L212.856 117.664C213.16 117.568 213.368 117.432 213.48 117.256C213.608 117.064 213.672 116.808 213.672 116.488V109.168C213.672 108.528 213.552 108.072 213.312 107.8C213.088 107.528 212.696 107.392 212.136 107.392C211.768 107.392 211.4 107.488 211.032 107.68C210.664 107.856 210.28 108.12 209.88 108.472V116.512C209.88 117.136 210.16 117.528 210.72 117.688L210.936 117.76V118H205.296ZM225.851 123.52V123.28L226.139 123.184C226.731 123.024 227.027 122.64 227.027 122.032V108.976C227.027 108.624 226.963 108.36 226.835 108.184C226.723 108.008 226.507 107.888 226.187 107.824L225.851 107.752V107.512L229.931 106.12L230.171 106.36L230.387 107.104C230.915 106.784 231.499 106.536 232.139 106.36C232.795 106.184 233.467 106.096 234.155 106.096C235.531 106.096 236.619 106.624 237.419 107.68C238.235 108.72 238.643 110.216 238.643 112.168C238.643 114.088 238.195 115.6 237.299 116.704C236.419 117.808 235.171 118.36 233.555 118.36C232.291 118.36 231.227 118.176 230.363 117.808V121.96C230.363 122.6 230.651 123 231.227 123.16L231.683 123.28V123.52H225.851ZM232.403 117.664C233.203 117.664 233.835 117.248 234.299 116.416C234.779 115.584 235.019 114.2 235.019 112.264C235.019 110.328 234.795 108.976 234.347 108.208C233.899 107.424 233.251 107.032 232.403 107.032C231.811 107.032 231.155 107.224 230.435 107.608V117.28C231.043 117.536 231.699 117.664 232.403 117.664ZM244.192 118.36C243.168 118.36 242.368 118.104 241.792 117.592C241.232 117.08 240.952 116.264 240.952 115.144V106.936H239.296V106.696L239.872 106.6C240.368 106.488 240.792 106.328 241.144 106.12C241.512 105.912 241.872 105.632 242.224 105.28L244.192 103.096H244.432L244.36 106.456H247.048V106.936H244.336V115.576C244.336 116.136 244.456 116.56 244.696 116.848C244.952 117.136 245.272 117.28 245.656 117.28C245.992 117.28 246.288 117.2 246.544 117.04C246.8 116.864 247.056 116.632 247.312 116.344L247.552 116.584C247.232 117.128 246.792 117.56 246.232 117.88C245.672 118.2 244.992 118.36 244.192 118.36ZM250.583 123.76C249.943 123.76 249.431 123.6 249.047 123.28C248.679 122.96 248.495 122.552 248.495 122.056C248.495 121.608 248.655 121.248 248.975 120.976C249.295 120.704 249.655 120.568 250.055 120.568C250.455 120.568 250.791 120.648 251.063 120.808C251.335 120.984 251.575 121.232 251.783 121.552L251.951 121.744C252.303 122.224 252.655 122.216 253.007 121.72C253.151 121.48 253.311 121.16 253.487 120.76C253.679 120.376 253.895 119.856 254.135 119.2L249.479 108.064C249.367 107.76 249.247 107.52 249.119 107.344C248.991 107.152 248.783 106.992 248.495 106.864L248.063 106.696V106.456H254.039V106.672L253.559 106.864C253.207 106.976 253.023 107.16 253.007 107.416C253.007 107.656 253.071 107.96 253.199 108.328L255.695 114.808L258.071 108.256C258.199 107.888 258.247 107.584 258.215 107.344C258.183 107.088 257.983 106.912 257.615 106.816L257.111 106.696V106.456H260.447V106.696L259.919 106.864C259.551 106.976 259.295 107.136 259.151 107.344C259.007 107.552 258.871 107.84 258.743 108.208L254.879 118.744C254.255 120.424 253.631 121.68 253.007 122.512C252.383 123.344 251.575 123.76 250.583 123.76Z" fill="#333333"/>
<path d="M80.2875 149.964H83.7035V151H79.0135V141.242H80.2875V149.964ZM92.0565 146.87C92.0565 147.113 92.0425 147.369 92.0145 147.64H85.8825C85.9292 148.396 86.1858 148.989 86.6525 149.418C87.1285 149.838 87.7025 150.048 88.3745 150.048C88.9252 150.048 89.3825 149.922 89.7465 149.67C90.1198 149.409 90.3812 149.063 90.5305 148.634H91.9025C91.6972 149.371 91.2865 149.973 90.6705 150.44C90.0545 150.897 89.2892 151.126 88.3745 151.126C87.6465 151.126 86.9932 150.963 86.4145 150.636C85.8452 150.309 85.3972 149.847 85.0705 149.25C84.7438 148.643 84.5805 147.943 84.5805 147.15C84.5805 146.357 84.7392 145.661 85.0565 145.064C85.3738 144.467 85.8172 144.009 86.3865 143.692C86.9652 143.365 87.6278 143.202 88.3745 143.202C89.1025 143.202 89.7465 143.361 90.3065 143.678C90.8665 143.995 91.2958 144.434 91.5945 144.994C91.9025 145.545 92.0565 146.17 92.0565 146.87ZM90.7405 146.604C90.7405 146.119 90.6332 145.703 90.4185 145.358C90.2038 145.003 89.9098 144.737 89.5365 144.56C89.1725 144.373 88.7665 144.28 88.3185 144.28C87.6745 144.28 87.1238 144.485 86.6665 144.896C86.2185 145.307 85.9618 145.876 85.8965 146.604H90.7405ZM95.2922 144.378V148.9C95.2922 149.273 95.3715 149.539 95.5302 149.698C95.6888 149.847 95.9642 149.922 96.3562 149.922H97.2942V151H96.1462C95.4368 151 94.9048 150.837 94.5502 150.51C94.1955 150.183 94.0182 149.647 94.0182 148.9V144.378H93.0242V143.328H94.0182V141.396H95.2922V143.328H97.2942V144.378H95.2922ZM99.0338 141.242H100.448L99.1038 144.42H98.2078L99.0338 141.242ZM104.616 151.126C104.028 151.126 103.501 151.028 103.034 150.832C102.568 150.627 102.199 150.347 101.928 149.992C101.658 149.628 101.508 149.213 101.48 148.746H102.796C102.834 149.129 103.011 149.441 103.328 149.684C103.655 149.927 104.08 150.048 104.602 150.048C105.088 150.048 105.47 149.941 105.75 149.726C106.03 149.511 106.17 149.241 106.17 148.914C106.17 148.578 106.021 148.331 105.722 148.172C105.424 148.004 104.962 147.841 104.336 147.682C103.767 147.533 103.3 147.383 102.936 147.234C102.582 147.075 102.274 146.847 102.012 146.548C101.76 146.24 101.634 145.839 101.634 145.344C101.634 144.952 101.751 144.593 101.984 144.266C102.218 143.939 102.549 143.683 102.978 143.496C103.408 143.3 103.898 143.202 104.448 143.202C105.298 143.202 105.984 143.417 106.506 143.846C107.029 144.275 107.309 144.863 107.346 145.61H106.072C106.044 145.209 105.881 144.887 105.582 144.644C105.293 144.401 104.901 144.28 104.406 144.28C103.949 144.28 103.585 144.378 103.314 144.574C103.044 144.77 102.908 145.027 102.908 145.344C102.908 145.596 102.988 145.806 103.146 145.974C103.314 146.133 103.52 146.263 103.762 146.366C104.014 146.459 104.36 146.567 104.798 146.688C105.349 146.837 105.797 146.987 106.142 147.136C106.488 147.276 106.782 147.491 107.024 147.78C107.276 148.069 107.407 148.447 107.416 148.914C107.416 149.334 107.3 149.712 107.066 150.048C106.833 150.384 106.502 150.65 106.072 150.846C105.652 151.033 105.167 151.126 104.616 151.126ZM112.471 147.136C112.471 146.352 112.63 145.666 112.947 145.078C113.264 144.481 113.698 144.019 114.249 143.692C114.809 143.365 115.43 143.202 116.111 143.202C116.783 143.202 117.366 143.347 117.861 143.636C118.356 143.925 118.724 144.289 118.967 144.728V143.328H120.255V151H118.967V149.572C118.715 150.02 118.337 150.393 117.833 150.692C117.338 150.981 116.76 151.126 116.097 151.126C115.416 151.126 114.8 150.958 114.249 150.622C113.698 150.286 113.264 149.815 112.947 149.208C112.63 148.601 112.471 147.911 112.471 147.136ZM118.967 147.15C118.967 146.571 118.85 146.067 118.617 145.638C118.384 145.209 118.066 144.882 117.665 144.658C117.273 144.425 116.839 144.308 116.363 144.308C115.887 144.308 115.453 144.42 115.061 144.644C114.669 144.868 114.356 145.195 114.123 145.624C113.89 146.053 113.773 146.557 113.773 147.136C113.773 147.724 113.89 148.237 114.123 148.676C114.356 149.105 114.669 149.437 115.061 149.67C115.453 149.894 115.887 150.006 116.363 150.006C116.839 150.006 117.273 149.894 117.665 149.67C118.066 149.437 118.384 149.105 118.617 148.676C118.85 148.237 118.967 147.729 118.967 147.15ZM121.932 147.136C121.932 146.352 122.091 145.666 122.408 145.078C122.725 144.481 123.159 144.019 123.71 143.692C124.27 143.365 124.895 143.202 125.586 143.202C126.183 143.202 126.739 143.342 127.252 143.622C127.765 143.893 128.157 144.252 128.428 144.7V140.64H129.716V151H128.428V149.558C128.176 150.015 127.803 150.393 127.308 150.692C126.813 150.981 126.235 151.126 125.572 151.126C124.891 151.126 124.27 150.958 123.71 150.622C123.159 150.286 122.725 149.815 122.408 149.208C122.091 148.601 121.932 147.911 121.932 147.136ZM128.428 147.15C128.428 146.571 128.311 146.067 128.078 145.638C127.845 145.209 127.527 144.882 127.126 144.658C126.734 144.425 126.3 144.308 125.824 144.308C125.348 144.308 124.914 144.42 124.522 144.644C124.13 144.868 123.817 145.195 123.584 145.624C123.351 146.053 123.234 146.557 123.234 147.136C123.234 147.724 123.351 148.237 123.584 148.676C123.817 149.105 124.13 149.437 124.522 149.67C124.914 149.894 125.348 150.006 125.824 150.006C126.3 150.006 126.734 149.894 127.126 149.67C127.527 149.437 127.845 149.105 128.078 148.676C128.311 148.237 128.428 147.729 128.428 147.15ZM131.393 147.136C131.393 146.352 131.552 145.666 131.869 145.078C132.186 144.481 132.62 144.019 133.171 143.692C133.731 143.365 134.356 143.202 135.047 143.202C135.644 143.202 136.2 143.342 136.713 143.622C137.226 143.893 137.618 144.252 137.889 144.7V140.64H139.177V151H137.889V149.558C137.637 150.015 137.264 150.393 136.769 150.692C136.274 150.981 135.696 151.126 135.033 151.126C134.352 151.126 133.731 150.958 133.171 150.622C132.62 150.286 132.186 149.815 131.869 149.208C131.552 148.601 131.393 147.911 131.393 147.136ZM137.889 147.15C137.889 146.571 137.772 146.067 137.539 145.638C137.306 145.209 136.988 144.882 136.587 144.658C136.195 144.425 135.761 144.308 135.285 144.308C134.809 144.308 134.375 144.42 133.983 144.644C133.591 144.868 133.278 145.195 133.045 145.624C132.812 146.053 132.695 146.557 132.695 147.136C132.695 147.724 132.812 148.237 133.045 148.676C133.278 149.105 133.591 149.437 133.983 149.67C134.375 149.894 134.809 150.006 135.285 150.006C135.761 150.006 136.195 149.894 136.587 149.67C136.988 149.437 137.306 149.105 137.539 148.676C137.772 148.237 137.889 147.729 137.889 147.15ZM147.778 151.126C147.19 151.126 146.663 151.028 146.196 150.832C145.73 150.627 145.361 150.347 145.09 149.992C144.82 149.628 144.67 149.213 144.642 148.746H145.958C145.996 149.129 146.173 149.441 146.49 149.684C146.817 149.927 147.242 150.048 147.764 150.048C148.25 150.048 148.632 149.941 148.912 149.726C149.192 149.511 149.332 149.241 149.332 148.914C149.332 148.578 149.183 148.331 148.884 148.172C148.586 148.004 148.124 147.841 147.498 147.682C146.929 147.533 146.462 147.383 146.098 147.234C145.744 147.075 145.436 146.847 145.174 146.548C144.922 146.24 144.796 145.839 144.796 145.344C144.796 144.952 144.913 144.593 145.146 144.266C145.38 143.939 145.711 143.683 146.14 143.496C146.57 143.3 147.06 143.202 147.61 143.202C148.46 143.202 149.146 143.417 149.668 143.846C150.191 144.275 150.471 144.863 150.508 145.61H149.234C149.206 145.209 149.043 144.887 148.744 144.644C148.455 144.401 148.063 144.28 147.568 144.28C147.111 144.28 146.747 144.378 146.476 144.574C146.206 144.77 146.07 145.027 146.07 145.344C146.07 145.596 146.15 145.806 146.308 145.974C146.476 146.133 146.682 146.263 146.924 146.366C147.176 146.459 147.522 146.567 147.96 146.688C148.511 146.837 148.959 146.987 149.304 147.136C149.65 147.276 149.944 147.491 150.186 147.78C150.438 148.069 150.569 148.447 150.578 148.914C150.578 149.334 150.462 149.712 150.228 150.048C149.995 150.384 149.664 150.65 149.234 150.846C148.814 151.033 148.329 151.126 147.778 151.126ZM155.723 151.126C155.004 151.126 154.351 150.963 153.763 150.636C153.184 150.309 152.727 149.847 152.391 149.25C152.064 148.643 151.901 147.943 151.901 147.15C151.901 146.366 152.069 145.675 152.405 145.078C152.75 144.471 153.217 144.009 153.805 143.692C154.393 143.365 155.051 143.202 155.779 143.202C156.507 143.202 157.165 143.365 157.753 143.692C158.341 144.009 158.803 144.467 159.139 145.064C159.484 145.661 159.657 146.357 159.657 147.15C159.657 147.943 159.479 148.643 159.125 149.25C158.779 149.847 158.308 150.309 157.711 150.636C157.113 150.963 156.451 151.126 155.723 151.126ZM155.723 150.006C156.18 150.006 156.609 149.899 157.011 149.684C157.412 149.469 157.734 149.147 157.977 148.718C158.229 148.289 158.355 147.766 158.355 147.15C158.355 146.534 158.233 146.011 157.991 145.582C157.748 145.153 157.431 144.835 157.039 144.63C156.647 144.415 156.222 144.308 155.765 144.308C155.298 144.308 154.869 144.415 154.477 144.63C154.094 144.835 153.786 145.153 153.553 145.582C153.319 146.011 153.203 146.534 153.203 147.15C153.203 147.775 153.315 148.303 153.539 148.732C153.772 149.161 154.08 149.483 154.463 149.698C154.845 149.903 155.265 150.006 155.723 150.006ZM170.558 143.188C171.155 143.188 171.687 143.314 172.154 143.566C172.621 143.809 172.989 144.177 173.26 144.672C173.531 145.167 173.666 145.769 173.666 146.478V151H172.406V146.66C172.406 145.895 172.215 145.311 171.832 144.91C171.459 144.499 170.95 144.294 170.306 144.294C169.643 144.294 169.116 144.509 168.724 144.938C168.332 145.358 168.136 145.969 168.136 146.772V151H166.876V146.66C166.876 145.895 166.685 145.311 166.302 144.91C165.929 144.499 165.42 144.294 164.776 144.294C164.113 144.294 163.586 144.509 163.194 144.938C162.802 145.358 162.606 145.969 162.606 146.772V151H161.332V143.328H162.606V144.434C162.858 144.033 163.194 143.725 163.614 143.51C164.043 143.295 164.515 143.188 165.028 143.188C165.672 143.188 166.241 143.333 166.736 143.622C167.231 143.911 167.599 144.336 167.842 144.896C168.057 144.355 168.411 143.935 168.906 143.636C169.401 143.337 169.951 143.188 170.558 143.188ZM182.756 146.87C182.756 147.113 182.742 147.369 182.714 147.64H176.582C176.628 148.396 176.885 148.989 177.352 149.418C177.828 149.838 178.402 150.048 179.074 150.048C179.624 150.048 180.082 149.922 180.446 149.67C180.819 149.409 181.08 149.063 181.23 148.634H182.602C182.396 149.371 181.986 149.973 181.37 150.44C180.754 150.897 179.988 151.126 179.074 151.126C178.346 151.126 177.692 150.963 177.114 150.636C176.544 150.309 176.096 149.847 175.77 149.25C175.443 148.643 175.28 147.943 175.28 147.15C175.28 146.357 175.438 145.661 175.756 145.064C176.073 144.467 176.516 144.009 177.086 143.692C177.664 143.365 178.327 143.202 179.074 143.202C179.802 143.202 180.446 143.361 181.006 143.678C181.566 143.995 181.995 144.434 182.294 144.994C182.602 145.545 182.756 146.17 182.756 146.87ZM181.44 146.604C181.44 146.119 181.332 145.703 181.118 145.358C180.903 145.003 180.609 144.737 180.236 144.56C179.872 144.373 179.466 144.28 179.018 144.28C178.374 144.28 177.823 144.485 177.366 144.896C176.918 145.307 176.661 145.876 176.596 146.604H181.44ZM189.444 144.742C189.696 144.303 190.069 143.939 190.564 143.65C191.068 143.351 191.651 143.202 192.314 143.202C192.995 143.202 193.611 143.365 194.162 143.692C194.722 144.019 195.16 144.481 195.478 145.078C195.795 145.666 195.954 146.352 195.954 147.136C195.954 147.911 195.795 148.601 195.478 149.208C195.16 149.815 194.722 150.286 194.162 150.622C193.611 150.958 192.995 151.126 192.314 151.126C191.66 151.126 191.082 150.981 190.578 150.692C190.083 150.393 189.705 150.025 189.444 149.586V154.64H188.17V143.328H189.444V144.742ZM194.652 147.136C194.652 146.557 194.535 146.053 194.302 145.624C194.068 145.195 193.751 144.868 193.35 144.644C192.958 144.42 192.524 144.308 192.048 144.308C191.581 144.308 191.147 144.425 190.746 144.658C190.354 144.882 190.036 145.213 189.794 145.652C189.56 146.081 189.444 146.581 189.444 147.15C189.444 147.729 189.56 148.237 189.794 148.676C190.036 149.105 190.354 149.437 190.746 149.67C191.147 149.894 191.581 150.006 192.048 150.006C192.524 150.006 192.958 149.894 193.35 149.67C193.751 149.437 194.068 149.105 194.302 148.676C194.535 148.237 194.652 147.724 194.652 147.136ZM198.905 144.574C199.129 144.135 199.446 143.795 199.857 143.552C200.277 143.309 200.785 143.188 201.383 143.188V144.504H201.047C199.619 144.504 198.905 145.279 198.905 146.828V151H197.631V143.328H198.905V144.574ZM206.199 151.126C205.481 151.126 204.827 150.963 204.239 150.636C203.661 150.309 203.203 149.847 202.867 149.25C202.541 148.643 202.377 147.943 202.377 147.15C202.377 146.366 202.545 145.675 202.881 145.078C203.227 144.471 203.693 144.009 204.281 143.692C204.869 143.365 205.527 143.202 206.255 143.202C206.983 143.202 207.641 143.365 208.229 143.692C208.817 144.009 209.279 144.467 209.615 145.064C209.961 145.661 210.133 146.357 210.133 147.15C210.133 147.943 209.956 148.643 209.601 149.25C209.256 149.847 208.785 150.309 208.187 150.636C207.59 150.963 206.927 151.126 206.199 151.126ZM206.199 150.006C206.657 150.006 207.086 149.899 207.487 149.684C207.889 149.469 208.211 149.147 208.453 148.718C208.705 148.289 208.831 147.766 208.831 147.15C208.831 146.534 208.71 146.011 208.467 145.582C208.225 145.153 207.907 144.835 207.515 144.63C207.123 144.415 206.699 144.308 206.241 144.308C205.775 144.308 205.345 144.415 204.953 144.63C204.571 144.835 204.263 145.153 204.029 145.582C203.796 146.011 203.679 146.534 203.679 147.15C203.679 147.775 203.791 148.303 204.015 148.732C204.249 149.161 204.557 149.483 204.939 149.698C205.322 149.903 205.742 150.006 206.199 150.006ZM211.332 147.136C211.332 146.352 211.491 145.666 211.808 145.078C212.126 144.481 212.56 144.019 213.11 143.692C213.67 143.365 214.296 143.202 214.986 143.202C215.584 143.202 216.139 143.342 216.652 143.622C217.166 143.893 217.558 144.252 217.828 144.7V140.64H219.116V151H217.828V149.558C217.576 150.015 217.203 150.393 216.708 150.692C216.214 150.981 215.635 151.126 214.972 151.126C214.291 151.126 213.67 150.958 213.11 150.622C212.56 150.286 212.126 149.815 211.808 149.208C211.491 148.601 211.332 147.911 211.332 147.136ZM217.828 147.15C217.828 146.571 217.712 146.067 217.478 145.638C217.245 145.209 216.928 144.882 216.526 144.658C216.134 144.425 215.7 144.308 215.224 144.308C214.748 144.308 214.314 144.42 213.922 144.644C213.53 144.868 213.218 145.195 212.984 145.624C212.751 146.053 212.634 146.557 212.634 147.136C212.634 147.724 212.751 148.237 212.984 148.676C213.218 149.105 213.53 149.437 213.922 149.67C214.314 149.894 214.748 150.006 215.224 150.006C215.7 150.006 216.134 149.894 216.526 149.67C216.928 149.437 217.245 149.105 217.478 148.676C217.712 148.237 217.828 147.729 217.828 147.15ZM228.073 143.328V151H226.799V149.866C226.557 150.258 226.216 150.566 225.777 150.79C225.348 151.005 224.872 151.112 224.349 151.112C223.752 151.112 223.215 150.991 222.739 150.748C222.263 150.496 221.885 150.123 221.605 149.628C221.335 149.133 221.199 148.531 221.199 147.822V143.328H222.459V147.654C222.459 148.41 222.651 148.993 223.033 149.404C223.416 149.805 223.939 150.006 224.601 150.006C225.283 150.006 225.819 149.796 226.211 149.376C226.603 148.956 226.799 148.345 226.799 147.542V143.328H228.073ZM229.748 147.15C229.748 146.357 229.907 145.666 230.224 145.078C230.542 144.481 230.98 144.019 231.54 143.692C232.11 143.365 232.758 143.202 233.486 143.202C234.429 143.202 235.204 143.431 235.81 143.888C236.426 144.345 236.832 144.98 237.028 145.792H235.656C235.526 145.325 235.269 144.957 234.886 144.686C234.513 144.415 234.046 144.28 233.486 144.28C232.758 144.28 232.17 144.532 231.722 145.036C231.274 145.531 231.05 146.235 231.05 147.15C231.05 148.074 231.274 148.788 231.722 149.292C232.17 149.796 232.758 150.048 233.486 150.048C234.046 150.048 234.513 149.917 234.886 149.656C235.26 149.395 235.516 149.021 235.656 148.536H237.028C236.823 149.32 236.412 149.95 235.796 150.426C235.18 150.893 234.41 151.126 233.486 151.126C232.758 151.126 232.11 150.963 231.54 150.636C230.98 150.309 230.542 149.847 230.224 149.25C229.907 148.653 229.748 147.953 229.748 147.15ZM240.282 144.378V148.9C240.282 149.273 240.362 149.539 240.52 149.698C240.679 149.847 240.954 149.922 241.346 149.922H242.284V151H241.136C240.427 151 239.895 150.837 239.54 150.51C239.186 150.183 239.008 149.647 239.008 148.9V144.378H238.014V143.328H239.008V141.396H240.282V143.328H242.284V144.378H240.282ZM246.544 151.126C245.956 151.126 245.429 151.028 244.962 150.832C244.495 150.627 244.127 150.347 243.856 149.992C243.585 149.628 243.436 149.213 243.408 148.746H244.724C244.761 149.129 244.939 149.441 245.256 149.684C245.583 149.927 246.007 150.048 246.53 150.048C247.015 150.048 247.398 149.941 247.678 149.726C247.958 149.511 248.098 149.241 248.098 148.914C248.098 148.578 247.949 148.331 247.65 148.172C247.351 148.004 246.889 147.841 246.264 147.682C245.695 147.533 245.228 147.383 244.864 147.234C244.509 147.075 244.201 146.847 243.94 146.548C243.688 146.24 243.562 145.839 243.562 145.344C243.562 144.952 243.679 144.593 243.912 144.266C244.145 143.939 244.477 143.683 244.906 143.496C245.335 143.3 245.825 143.202 246.376 143.202C247.225 143.202 247.911 143.417 248.434 143.846C248.957 144.275 249.237 144.863 249.274 145.61H248C247.972 145.209 247.809 144.887 247.51 144.644C247.221 144.401 246.829 144.28 246.334 144.28C245.877 144.28 245.513 144.378 245.242 144.574C244.971 144.77 244.836 145.027 244.836 145.344C244.836 145.596 244.915 145.806 245.074 145.974C245.242 146.133 245.447 146.263 245.69 146.366C245.942 146.459 246.287 146.567 246.726 146.688C247.277 146.837 247.725 146.987 248.07 147.136C248.415 147.276 248.709 147.491 248.952 147.78C249.204 148.069 249.335 148.447 249.344 148.914C249.344 149.334 249.227 149.712 248.994 150.048C248.761 150.384 248.429 150.65 248 150.846C247.58 151.033 247.095 151.126 246.544 151.126Z" fill="#595959"/>
</svg>
