<svg width="129" height="50" viewBox="0 0 129 50" fill="none" xmlns="http://www.w3.org/2000/svg">
<g id="Isolation_Mode" opacity="0.05">
<path id="Vector" d="M11.8504 6.98639C20.7233 16.4396 30.8296 23.4218 41.7791 28.0598C52.7035 32.7103 64.3453 34.9533 76.0374 34.9913C87.7295 34.9533 99.3839 32.7103 110.296 28.0598C121.233 23.4218 131.352 16.4396 140.224 6.98639C140.589 6.59356 141.194 6.58089 141.571 6.9357C141.848 7.20181 141.936 7.60731 141.81 7.94946C137.393 20.6594 127.689 31.5825 115.896 38.8562C104.053 46.1932 89.995 49.9821 76.0248 49.9948C62.0547 49.9948 47.9965 46.1932 36.1533 38.8562C24.3731 31.5825 14.6821 20.672 10.252 7.94946C10.0758 7.45525 10.3401 6.89769 10.8309 6.73295C11.1959 6.60623 11.5861 6.70761 11.8378 6.97372L11.8504 6.98639Z" fill="#2A9DA0"/>
<path id="Vector_2" d="M0.0574921 12.7394C-0.194222 10.4331 0.397306 8.27893 1.50485 6.30211C2.62497 4.35064 4.33663 2.61459 6.41327 1.55015C8.47732 0.485709 10.7805 -0.10987 12.983 0.0168487C14.0905 -0.00849511 15.1477 0.320974 16.1798 0.523725C17.1992 0.865866 18.1683 1.28404 19.0745 1.82893C19.5527 2.10771 19.7038 2.72864 19.4143 3.1975C19.2884 3.40025 19.0997 3.55231 18.8983 3.62834L18.7598 3.67903C17.7782 4.03384 16.872 4.17323 16.0036 4.38865C15.1477 4.66744 14.2919 4.79415 13.5242 5.08561C11.9258 5.51645 10.5666 6.17539 9.27022 6.83433C7.9739 7.53128 6.79084 8.41832 5.58261 9.47008C4.37439 10.5092 3.19133 11.8144 1.86983 13.1703L1.73139 13.3097C1.35382 13.7025 0.73712 13.7025 0.346963 13.3097C0.183349 13.1449 0.0826635 12.9295 0.0574921 12.7141V12.7394Z" fill="#2A9DA0"/>
</g>
</svg>
