<svg width="156" height="110" viewBox="0 0 156 110" fill="none" xmlns="http://www.w3.org/2000/svg">
<path d="M78.5707 110C121.334 110 156.001 107.003 156.001 103.305C156.001 99.6077 121.334 96.6104 78.5707 96.6104C35.8073 96.6104 1.14062 99.6077 1.14062 103.305C1.14062 107.003 35.8073 110 78.5707 110Z" fill="#EAF5F5"/>
<path d="M116.087 98.0628C115.778 100.103 113.732 101.772 111.533 101.772H46.5573C44.3621 101.772 42.2889 100.106 41.9535 98.0705L31.1948 32.7996C30.8594 30.7637 32.38 29.0977 34.5791 29.0977H122.516C124.712 29.0977 126.259 30.7676 125.95 32.8073L116.091 98.0628H116.087Z" fill="#F9AB43"/>
<path d="M84.9211 51.4926C83.1947 51.4926 81.3692 50.1468 80.8585 48.4959L78.3508 40.3638C77.8439 38.7129 76.0146 37.3633 74.2882 37.3633H29.7212C27.9947 37.3633 26.8323 38.7549 27.1334 40.4514L38.0141 101.78C38.3152 103.48 39.973 104.868 41.6994 104.868H118.909C120.635 104.868 122.266 103.473 122.537 101.769L130.022 54.5197C130.292 52.8155 129.099 51.424 127.377 51.424L84.9249 51.485L84.9211 51.4926Z" fill="#FFCF74"/>
<path opacity="0.1" d="M127.375 51.4316L122.546 51.4393C122.653 52.5525 122.71 53.6734 122.71 54.8057C122.71 80.1325 95.613 100.667 62.1858 100.667C53.2298 100.667 44.731 99.1914 37.0859 96.5493L38.0158 101.788C38.3169 103.488 39.9748 104.876 41.7012 104.876H118.91C120.637 104.876 122.268 103.481 122.538 101.776L130.023 54.5274C130.294 52.8232 129.101 51.4316 127.379 51.4316H127.375Z" fill="#0046A0"/>
<g opacity="0.3">
<path d="M34.6209 46.4676C34.8496 48.0079 35.0783 49.5482 35.3107 51.0846C35.8557 54.7485 36.4045 58.4124 36.9495 62.0762C37.6126 66.5369 38.2796 70.9976 38.9465 75.4583C39.5182 79.2899 40.0899 83.1177 40.6577 86.9493C40.8483 88.2227 41.0388 89.4961 41.2256 90.7656C41.3132 91.3642 41.3666 91.9818 41.4962 92.5728C41.5 92.5995 41.5038 92.6262 41.5076 92.649C41.5876 93.1752 42.2469 93.4611 42.7119 93.3353C43.2721 93.1828 43.4741 92.6567 43.3979 92.1305C43.1692 90.5903 42.9406 89.05 42.7081 87.5135C42.1631 83.8497 41.6143 80.1858 41.0693 76.522C40.4024 72.0613 39.7392 67.6006 39.0723 63.1399C38.5006 59.3083 37.929 55.4805 37.3611 51.6489C37.1706 50.3755 36.98 49.1021 36.7933 47.8325C36.7056 47.234 36.6522 46.6163 36.5227 46.0254C36.5189 45.9987 36.515 45.972 36.5112 45.9491C36.4312 45.423 35.7719 45.1371 35.3069 45.2629C34.7467 45.4154 34.5447 45.9415 34.6209 46.4676Z" fill="white"/>
</g>
<path d="M72.4059 69.202C72.4059 71.2014 71.214 72.8239 69.7381 72.8239C68.2621 72.8239 67.0703 71.2014 67.0703 69.202C67.0703 67.2026 68.2621 65.5801 69.7381 65.5801C71.214 65.5801 72.4059 67.2026 72.4059 69.202Z" fill="white"/>
<path d="M89.5543 69.202C89.5543 71.2014 88.3625 72.8239 86.8865 72.8239C85.4106 72.8239 84.2188 71.2014 84.2188 69.202C84.2188 67.2026 85.4106 65.5801 86.8865 65.5801C88.3625 65.5801 89.5543 67.2026 89.5543 69.202Z" fill="white"/>
<path d="M69.2128 86.9824C70.6062 85.4655 72.5401 84.2712 74.462 83.5904C79.3388 81.8467 84.0474 83.674 87.7591 86.9824C88.7561 87.8662 90.2215 86.4091 89.2246 85.5253C85.1045 81.8467 79.7712 79.6849 74.2938 81.4645C71.8914 82.2408 69.453 83.6501 67.7353 85.5253C66.8344 86.5046 68.2999 87.9737 69.2008 86.9824H69.2128Z" fill="white"/>
<path d="M44.0939 21.1866V19.5952H43.0344V21.1866H41.4414V22.245H43.0344V23.8363H44.0939V22.245H45.687V21.1866H44.0939Z" fill="#A7CDDB"/>
<path d="M31.8114 10.6599V8.47461H30.3555V10.6599H28.168V12.1104H30.3555V14.2957H31.8114V12.1104H33.999V10.6599H31.8114Z" fill="#A7CDDB"/>
<path opacity="0.5" d="M103.662 15.1219C103.662 15.5826 103.288 15.9519 102.831 15.9519C102.373 15.9519 102 15.5788 102 15.1219C102 14.6651 102.373 14.292 102.831 14.292C103.288 14.292 103.662 14.6651 103.662 15.1219Z" fill="#CCCCCC"/>
<path opacity="0.5" d="M107.068 0.829951C107.068 1.29061 106.694 1.6599 106.237 1.6599C105.78 1.6599 105.406 1.28681 105.406 0.829951C105.406 0.373097 105.78 0 106.237 0C106.694 0 107.068 0.373097 107.068 0.829951Z" fill="#CCCCCC"/>
<path opacity="0.5" d="M123.324 9.23599C124.193 9.23599 124.898 8.53203 124.898 7.66365C124.898 6.79527 124.193 6.09131 123.324 6.09131C122.455 6.09131 121.75 6.79527 121.75 7.66365C121.75 8.53203 122.455 9.23599 123.324 9.23599Z" fill="#CCCCCC"/>
<path opacity="0.5" d="M140.001 66.7845C140.001 67.2452 139.628 67.6145 139.171 67.6145C138.713 67.6145 138.34 67.2414 138.34 66.7845C138.34 66.3277 138.713 65.9546 139.171 65.9546C139.628 65.9546 140.001 66.3277 140.001 66.7845Z" fill="#CCCCCC"/>
<path opacity="0.5" d="M145.337 92.7377C145.337 93.1983 144.964 93.5676 144.507 93.5676C144.049 93.5676 143.676 93.1945 143.676 92.7377C143.676 92.2808 144.049 91.9077 144.507 91.9077C144.964 91.9077 145.337 92.2808 145.337 92.7377Z" fill="#CCCCCC"/>
<path opacity="0.5" d="M24.5249 61.7435C24.5249 62.2042 24.1514 62.5735 23.6941 62.5735C23.2368 62.5735 22.8633 62.2004 22.8633 61.7435C22.8633 61.2867 23.2368 60.9136 23.6941 60.9136C24.1514 60.9136 24.5249 61.2867 24.5249 61.7435Z" fill="#CCCCCC"/>
<path opacity="0.5" d="M14.5193 14.4479C15.3886 14.4479 16.0933 13.7439 16.0933 12.8756C16.0933 12.0072 15.3886 11.3032 14.5193 11.3032C13.65 11.3032 12.9453 12.0072 12.9453 12.8756C12.9453 13.7439 13.65 14.4479 14.5193 14.4479Z" fill="#CCCCCC"/>
<path opacity="0.5" d="M45.5874 3.99743C45.5874 4.45809 45.2139 4.82738 44.7566 4.82738C44.2993 4.82738 43.9258 4.45429 43.9258 3.99743C43.9258 3.54058 44.2993 3.16748 44.7566 3.16748C45.2139 3.16748 45.5874 3.54058 45.5874 3.99743Z" fill="#CCCCCC"/>
<path opacity="0.5" d="M1.66164 53.8402C1.66164 54.3009 1.28815 54.6702 0.83082 54.6702C0.373488 54.6702 0 54.2971 0 53.8402C0 53.3833 0.373488 53.0103 0.83082 53.0103C1.28815 53.0103 1.66164 53.3833 1.66164 53.8402Z" fill="#CCCCCC"/>
<path opacity="0.5" d="M1.66164 98.1356C1.66164 98.5963 1.28815 98.9656 0.83082 98.9656C0.373488 98.9656 0 98.5925 0 98.1356C0 97.6788 0.373488 97.3057 0.83082 97.3057C1.28815 97.3057 1.66164 97.6788 1.66164 98.1356Z" fill="#CCCCCC"/>
</svg>
