<svg width="20" height="20" viewBox="0 0 20 20" fill="none" xmlns="http://www.w3.org/2000/svg">
<path fill-rule="evenodd" clip-rule="evenodd" d="M5.47849 2.74343C6.03376 2.55418 6.61507 2.5 7.12911 2.5C8.34972 2.5 9.27 3.02111 10.0021 3.54414C10.7399 3.0171 11.6541 2.49999 12.8891 2.5C13.4381 2.5 13.9997 2.57674 14.544 2.7578C17.8685 3.8347 18.9394 7.41409 18.0112 10.3543L18.0073 10.3667L18.003 10.379C17.4893 11.8453 16.6493 13.1845 15.5473 14.2801L15.5426 14.2848L15.5377 14.2894C13.9988 15.7711 12.2706 17.1095 10.4306 18.2143L9.99626 18.4751L9.56478 18.2095C7.72887 17.0793 6.03327 15.7768 4.4756 14.2831L4.46918 14.2769L4.46288 14.2706C3.3703 13.1771 2.53037 11.8478 2.00906 10.3828L2.0047 10.3706L2.00072 10.3582C1.05459 7.41157 2.13087 3.83646 5.47849 2.74343ZM7.12911 4.16667C6.71801 4.16667 6.33421 4.21195 6.01262 4.3222L6.00642 4.32432L6.0002 4.32635C3.76007 5.05516 2.84252 7.50961 3.58368 9.83646C4.02169 11.0615 4.72438 12.1725 5.63569 13.0864C6.98112 14.3758 8.43662 15.5153 10.0063 16.5191C11.5709 15.5364 13.0476 14.3727 14.3769 13.0935C15.293 12.1813 15.9947 11.0647 16.4257 9.84037C17.1566 7.50643 16.2329 5.05526 14.0277 4.3425L14.0203 4.3401L14.0203 4.34007C13.6673 4.22229 13.2852 4.16667 12.889 4.16667C11.98 4.16666 11.3516 4.60415 10.5058 5.24677L10.0008 5.63037L9.4965 5.24598C8.66406 4.61151 8.02189 4.16667 7.12911 4.16667Z" fill="#333333"/>
</svg>
