<svg width="20" height="20" viewBox="0 0 20 20" fill="none" xmlns="http://www.w3.org/2000/svg">
<path fill-rule="evenodd" clip-rule="evenodd" d="M4.14163 4.34628C6.15679 3.67413 8.19317 4.93643 8.75881 6.98013C9.14424 8.37275 8.77921 9.83302 7.88911 10.8329C8.07141 11.069 8.27061 11.296 8.48686 11.5125C8.70206 11.7278 8.9277 11.9263 9.16233 12.108C10.1619 11.2108 11.6266 10.8417 13.0232 11.2288C15.0665 11.7952 16.3265 13.8331 15.6553 15.8482C15.215 17.1704 14.394 17.9736 13.2989 18.2381C12.2814 18.4838 11.1844 18.2226 10.2168 17.8204C8.26795 17.0102 6.34364 15.4145 5.4648 14.535C4.56522 13.6348 2.97638 11.7077 2.17361 9.76253C1.77497 8.79661 1.51829 7.70362 1.76456 6.69079C2.0295 5.60113 2.82872 4.78418 4.14163 4.34628ZM7.15253 7.4247C6.80862 6.18213 5.66593 5.59479 4.66898 5.92732C3.79265 6.2196 3.4887 6.65409 3.38404 7.08455C3.26069 7.59185 3.36795 8.28767 3.71423 9.1267C4.40128 10.7915 5.82619 12.5388 6.64375 13.3569C7.44153 14.1553 9.18699 15.5873 10.8565 16.2814C11.6981 16.6312 12.3973 16.7412 12.9077 16.618C13.3405 16.5134 13.7789 16.2077 14.0741 15.3216C14.4069 14.3223 13.8186 13.1788 12.578 12.8349C11.6548 12.579 10.7056 12.8755 10.1407 13.4805C9.77588 13.8712 9.08052 14.0939 8.4889 13.6809C8.07263 13.3904 7.6773 13.0602 7.30791 12.6905C6.93794 12.3203 6.60761 11.924 6.317 11.5068C5.90665 10.9177 6.12561 10.225 6.51345 9.85939C7.11398 9.29325 7.40754 8.34611 7.15253 7.4247Z" fill="#333333"/>
</svg>
