<svg width="20" height="20" viewBox="0 0 20 20" fill="none" xmlns="http://www.w3.org/2000/svg">
<path fill-rule="evenodd" clip-rule="evenodd" d="M9.9987 3.33317C8.61799 3.33317 7.4987 4.45246 7.4987 5.83317C7.4987 7.21388 8.61799 8.33317 9.9987 8.33317C11.3794 8.33317 12.4987 7.21388 12.4987 5.83317C12.4987 4.45246 11.3794 3.33317 9.9987 3.33317ZM5.83203 5.83317C5.83203 3.53198 7.69751 1.6665 9.9987 1.6665C12.2999 1.6665 14.1654 3.53198 14.1654 5.83317C14.1654 8.13436 12.2999 9.99984 9.9987 9.99984C7.69751 9.99984 5.83203 8.13436 5.83203 5.83317Z" fill="#333333"/>
<path fill-rule="evenodd" clip-rule="evenodd" d="M10.0018 12.5002C7.13313 12.5002 5.6251 13.5166 4.87278 14.7482C4.61097 15.1768 4.67682 15.5811 4.99646 15.9525C5.34515 16.3577 5.97566 16.6668 6.6685 16.6668H13.3352C14.028 16.6668 14.6585 16.3577 15.0072 15.9525C15.3269 15.5811 15.3927 15.1768 15.1309 14.7482C14.3786 13.5166 12.8705 12.5002 10.0018 12.5002ZM3.45049 13.8794C4.57491 12.0387 6.6992 10.8335 10.0018 10.8335C13.3045 10.8335 15.4288 12.0387 16.5532 13.8794C17.2511 15.0218 16.9839 16.2107 16.2705 17.0397C15.586 17.835 14.4833 18.3335 13.3352 18.3335H6.6685C5.5204 18.3335 4.41764 17.835 3.7332 17.0397C3.01973 16.2107 2.75262 15.0218 3.45049 13.8794Z" fill="#333333"/>
</svg>
