<svg width="32" height="32" viewBox="0 0 32 32" fill="none" xmlns="http://www.w3.org/2000/svg">
<circle cx="16" cy="16" r="16" fill="#EAF5F5"/>
<path fill-rule="evenodd" clip-rule="evenodd" d="M11.1416 10.3463C13.1568 9.67413 15.1932 10.9364 15.7588 12.9801C16.1442 14.3728 15.7792 15.833 14.8891 16.8329C15.0714 17.069 15.2706 17.296 15.4869 17.5124C15.7021 17.7278 15.9277 17.9263 16.1623 18.108C17.1619 17.2108 18.6266 16.8417 20.0232 17.2288C22.0665 17.7952 23.3265 19.8331 22.6553 21.8482C22.215 23.1703 21.394 23.9736 20.2989 24.2381C19.2814 24.4838 18.1844 24.2226 17.2168 23.8204C15.268 23.0102 13.3436 21.4145 12.4648 20.535C11.5652 19.6348 9.97638 17.7077 9.17361 15.7625C8.77497 14.7966 8.51829 13.7036 8.76456 12.6908C9.0295 11.6011 9.82872 10.7842 11.1416 10.3463ZM14.1525 13.4247C13.8086 12.1821 12.6659 11.5948 11.669 11.9273C10.7927 12.2196 10.4887 12.6541 10.384 13.0846C10.2607 13.5918 10.368 14.2877 10.7142 15.1267C11.4013 16.7915 12.8262 18.5388 13.6437 19.3569C14.4415 20.1553 16.187 21.5873 17.8565 22.2814C18.6981 22.6312 19.3973 22.7412 19.9077 22.618C20.3405 22.5134 20.7789 22.2077 21.0741 21.3216C21.4069 20.3223 20.8186 19.1788 19.578 18.8349C18.6548 18.579 17.7056 18.8755 17.1407 19.4805C16.7759 19.8712 16.0805 20.0939 15.4889 19.6809C15.0726 19.3904 14.6773 19.0602 14.3079 18.6905C13.9379 18.3203 13.6076 17.924 13.317 17.5068C12.9066 16.9177 13.1256 16.225 13.5135 15.8594C14.114 15.2932 14.4075 14.3461 14.1525 13.4247Z" fill="#2A9DA0"/>
</svg>
