<svg width="12" height="12" viewBox="0 0 12 12" fill="none" xmlns="http://www.w3.org/2000/svg">
<g id="Group 33504">
<path id="Vector 11 (Stroke)" fill-rule="evenodd" clip-rule="evenodd" d="M0.78347 0.78347C1.08721 0.479729 1.57967 0.479729 1.88341 0.78347L11.2167 10.1168C11.5205 10.4205 11.5205 10.913 11.2167 11.2167C10.913 11.5205 10.4205 11.5205 10.1168 11.2167L0.78347 1.88341C0.479729 1.57967 0.479729 1.08721 0.78347 0.78347Z" fill="#595959"/>
<path id="Vector 12 (Stroke)" fill-rule="evenodd" clip-rule="evenodd" d="M11.2165 0.78347C10.9128 0.479729 10.4203 0.479729 10.1166 0.78347L0.783253 10.1168C0.479512 10.4205 0.479512 10.913 0.783253 11.2167C1.08699 11.5205 1.57946 11.5205 1.8832 11.2167L11.2165 1.88341C11.5203 1.57967 11.5203 1.08721 11.2165 0.78347Z" fill="#595959"/>
</g>
</svg>
