<svg width="48" height="48" viewBox="0 0 48 48" fill="none" xmlns="http://www.w3.org/2000/svg">
<circle cx="24" cy="24" r="24" fill="#FCF4EA"/>
<path d="M37.0344 31.2413H36.0689C35.9108 31.2413 35.7551 31.2801 35.6154 31.3541C35.4757 31.4282 35.3562 31.5353 35.2675 31.6662C35.1594 31.8256 35.1021 32.0142 35.1034 32.2069V33.1724L34.4082 32.6896C34.2251 32.5632 34.011 32.4892 33.7889 32.4756C33.5669 32.4619 33.3453 32.5092 33.1482 32.6124L28.8275 20.1379V17.2413H28.3447V13.8621H29.3102L24 10L18.6897 13.8621H19.6552V17.2414H19.1724V20.1379L14.8565 32.6124H14.8517C14.6772 32.5215 14.4836 32.4735 14.2869 32.4724C14.0383 32.4716 13.7956 32.5474 13.5917 32.6896L12.8965 33.1724V32.2069C12.8954 32.0145 12.8384 31.8267 12.7324 31.6662C12.6437 31.5353 12.5242 31.4281 12.3845 31.3541C12.2448 31.28 12.0891 31.2413 11.931 31.2413H10.9655C10.4329 31.2429 10.0015 31.6743 10 32.2069V37.0344C10.0016 37.567 10.4329 37.9984 10.9655 37.9999H12.8965V37.9275C13.2159 37.9773 13.5388 38.0015 13.862 37.9999H34.1379C34.4609 38.0008 34.7836 37.9782 35.1034 37.9324V37.9999H37.0344C37.567 37.9984 37.9984 37.567 37.9999 37.0344V32.2069C37.9984 31.6743 37.567 31.2429 37.0344 31.2413Z" fill="#B0D3F0"/>
<path d="M24.0018 10V13.8621H18.6914L24.0018 10Z" fill="#F29C1F"/>
<path d="M29.3103 13.8621H24V10L29.3103 13.8621Z" fill="#E57E25"/>
<path d="M19.6562 13.8621H28.3459V17.2414H19.6562V13.8621Z" fill="#F0C419"/>
<path d="M19.1719 17.2415H28.8271V20.138H19.1719V17.2415Z" fill="#E57E25"/>
<path d="M22.5507 20.1379L20.2527 32.5497C20.1204 32.498 19.9796 32.4718 19.8376 32.4724C19.8051 32.4709 19.7725 32.4741 19.741 32.4821C19.5258 32.4929 19.3181 32.565 19.1424 32.6897L18.7658 32.8635L18.4472 32.9069C18.1989 32.9063 17.9565 32.8305 17.752 32.6897C17.5487 32.5483 17.3069 32.4724 17.0592 32.4724C16.8116 32.4724 16.5698 32.5483 16.3665 32.6897C16.1623 32.8312 15.9198 32.907 15.6713 32.907C15.4229 32.907 15.1804 32.8312 14.9762 32.6897C14.9378 32.6612 14.8974 32.6354 14.8555 32.6125L19.1714 20.138H22.5507V20.1379ZM33.1472 32.6124C33.1036 32.6353 33.0617 32.6612 33.0217 32.6897C32.8175 32.8311 32.5749 32.9069 32.3265 32.9069C32.0781 32.9069 31.8356 32.8311 31.6314 32.6897C31.428 32.5482 31.1863 32.4724 30.9386 32.4724C30.6909 32.4724 30.4492 32.5482 30.2458 32.6897C30.0416 32.8311 29.7991 32.9069 29.5507 32.9069C29.3023 32.9069 29.0597 32.8311 28.8555 32.6897L28.6624 32.5786C28.4983 32.54 28.3873 32.5159 28.3196 32.4965C28.2675 32.4833 28.2141 32.4752 28.1603 32.4724C28.0117 32.473 27.8645 32.5009 27.7258 32.5545L24.9645 20.1379H28.8265L33.1472 32.6124Z" fill="#90BAE1"/>
<path d="M27.727 32.5545C27.6365 32.5889 27.5505 32.6343 27.4711 32.6896C27.2669 32.8311 27.0243 32.9069 26.7759 32.9069C26.5275 32.9069 26.285 32.8311 26.0808 32.6896C25.8774 32.5482 25.6357 32.4724 25.388 32.4724C25.1403 32.4724 24.8986 32.5482 24.6952 32.6896C24.491 32.8311 24.2485 32.9069 24.0001 32.9069C23.7517 32.9069 23.5091 32.8311 23.3049 32.6896C23.1016 32.5482 22.8599 32.4724 22.6122 32.4724C22.3645 32.4724 22.1227 32.5482 21.9194 32.6896C21.7152 32.8311 21.4727 32.9069 21.2243 32.9069C20.9758 32.9069 20.7333 32.8311 20.5291 32.6896C20.4436 32.6316 20.3511 32.5846 20.2539 32.5496L22.5518 20.1379H24.9656L27.727 32.5545Z" fill="#4482C3"/>
<path d="M12.8965 32.207V38.0001H10.9655C10.4329 37.9985 10.0015 37.5671 10 37.0345V32.207C10.0015 31.6744 10.4329 31.243 10.9655 31.2415H11.931C12.252 31.2415 12.5522 31.4005 12.7324 31.6663C12.8384 31.8268 12.8954 32.0146 12.8965 32.207ZM37.9999 32.207V37.0345C37.9984 37.5671 37.567 37.9985 37.0344 38.0001H35.1034V32.207C35.1022 32.0143 35.1594 31.8258 35.2675 31.6663C35.3562 31.5354 35.4756 31.4282 35.6153 31.3542C35.755 31.2801 35.9108 31.2414 36.0689 31.2415H37.0344C37.567 31.243 37.9984 31.6744 37.9999 32.207Z" fill="#F0C419"/>
<path d="M35.1053 36.0688V37.9323C34.7856 37.9781 34.4629 38.0007 34.1398 37.9999H13.8639C13.5407 38.0014 13.2178 37.9772 12.8984 37.9275V36.0688H35.1053Z" fill="#F0C419"/>
<path d="M35.1053 33.1724V36.0689H12.8984V33.1724L13.5936 32.6896C13.7975 32.5474 14.0403 32.4715 14.2888 32.4724C14.4855 32.4735 14.6792 32.5215 14.8536 32.6124H14.8584C14.9004 32.6353 14.9407 32.6611 14.9791 32.6896C15.1833 32.831 15.4259 32.9068 15.6743 32.9068C15.9227 32.9068 16.1652 32.831 16.3695 32.6896C16.5728 32.5481 16.8145 32.4723 17.0622 32.4723C17.3099 32.4723 17.5516 32.5481 17.755 32.6896C17.9595 32.8305 18.2018 32.9062 18.4501 32.9068L18.7688 32.8634L19.1453 32.6896C19.3211 32.5648 19.5287 32.4928 19.7439 32.482C19.7755 32.474 19.808 32.4707 19.8405 32.4723C19.9825 32.4717 20.1234 32.4979 20.2557 32.5495C20.3529 32.5845 20.4454 32.6315 20.5309 32.6895C20.7351 32.831 20.9776 32.9068 21.2261 32.9068C21.4745 32.9068 21.717 32.831 21.9212 32.6895C22.1245 32.5481 22.3663 32.4723 22.614 32.4723C22.8617 32.4723 23.1034 32.5481 23.3067 32.6895C23.5109 32.831 23.7535 32.9068 24.0019 32.9068C24.2503 32.9068 24.4928 32.831 24.697 32.6895C24.9004 32.5481 25.1421 32.4723 25.3898 32.4723C25.6375 32.4723 25.8792 32.5481 26.0826 32.6895C26.2868 32.831 26.5293 32.9068 26.7777 32.9068C27.0261 32.9068 27.2687 32.831 27.4729 32.6895C27.5523 32.6342 27.6383 32.5888 27.7288 32.5543C27.8674 32.5007 28.0146 32.4729 28.1632 32.4723C28.217 32.475 28.2704 32.4831 28.3226 32.4964C28.3901 32.5157 28.5012 32.5398 28.6653 32.5785L28.8584 32.6895C29.0627 32.8309 29.3052 32.9067 29.5536 32.9067C29.802 32.9067 30.0445 32.8309 30.2488 32.6895C30.4521 32.548 30.6938 32.4722 30.9415 32.4722C31.1892 32.4722 31.4309 32.548 31.6343 32.6895C31.8385 32.8309 32.081 32.9067 32.3294 32.9067C32.5779 32.9067 32.8204 32.8309 33.0246 32.6895C33.0646 32.6609 33.1066 32.6351 33.1501 32.6123C33.3472 32.5092 33.5688 32.4619 33.7908 32.4755C34.0129 32.4891 34.227 32.5631 34.4101 32.6895L35.1053 33.1724Z" fill="#2FA8CC"/>
</svg>
