<svg width="64" height="64" viewBox="0 0 64 64" fill="none" xmlns="http://www.w3.org/2000/svg">
<circle cx="32" cy="32" r="32" fill="white"/>
<path d="M45.406 41.0669L36.2685 44.2669H17.6018C17.0152 44.2669 16.5352 43.7869 16.5352 43.2002V42.1335C16.5352 41.5469 17.0152 41.0669 17.6018 41.0669H18.1352C18.1352 33.4082 24.3432 27.2002 32.0018 27.2002C39.6605 27.2002 45.8685 33.4082 45.8685 41.0669H45.406Z" fill="#B0D3F0"/>
<path d="M36.2685 44.2669H17.6018C17.0152 44.2669 16.5352 43.7869 16.5352 43.2002V42.1336C16.5352 41.5469 17.0152 41.0669 17.6018 41.0669H44.9685L36.2685 44.2669Z" fill="#4482C3"/>
<path d="M27.7354 44.2669H46.4021C46.9887 44.2669 47.4688 43.7869 47.4688 43.2002V42.1336C47.4688 41.5469 46.9887 41.0669 46.4021 41.0669H18.4104L27.7354 44.2669Z" fill="#4482C3"/>
<path d="M20.877 37.8665C20.7924 37.8664 20.709 37.8462 20.6338 37.8075C20.5585 37.7689 20.4935 37.7129 20.4441 37.6442C20.3947 37.5755 20.3624 37.496 20.3497 37.4124C20.3371 37.3287 20.3445 37.2432 20.3714 37.163C21.3837 34.1534 23.5901 31.595 26.4247 30.1422C26.5506 30.0777 26.697 30.0659 26.8316 30.1093C26.9662 30.1527 27.0781 30.2478 27.1426 30.3737C27.2071 30.4996 27.219 30.6459 27.1755 30.7805C27.1321 30.9152 27.037 31.027 26.9111 31.0915C24.3218 32.4185 22.3069 34.7555 21.3821 37.5027C21.3069 37.7257 21.0994 37.8665 20.8765 37.8665H20.877ZM28.8013 30.3097C28.6721 30.3105 28.547 30.2643 28.4493 30.1798C28.3515 30.0952 28.2879 29.978 28.2702 29.85C28.2524 29.7221 28.2818 29.592 28.3528 29.484C28.4238 29.3761 28.5316 29.2976 28.6562 29.2633C29.7447 28.9551 30.8706 28.7992 32.0018 28.7998C32.1433 28.7998 32.2789 28.856 32.3789 28.956C32.4789 29.056 32.5351 29.1917 32.5351 29.3331C32.5351 29.4746 32.4789 29.6102 32.3789 29.7103C32.2789 29.8103 32.1433 29.8665 32.0018 29.8665C30.965 29.8665 29.9373 30.0089 28.9474 30.2894C28.9001 30.3029 28.8505 30.3097 28.8013 30.3097Z" fill="white"/>
<path d="M32.0023 27.2C32.886 27.2 33.6023 26.4837 33.6023 25.6C33.6023 24.7163 32.886 24 32.0023 24C31.1187 24 30.4023 24.7163 30.4023 25.6C30.4023 26.4837 31.1187 27.2 32.0023 27.2Z" fill="#90BAE1"/>
</svg>
