<svg width="48" height="48" viewBox="0 0 48 48" fill="none" xmlns="http://www.w3.org/2000/svg">
<circle cx="24" cy="24" r="24" fill="#FCF4EA"/>
<g clip-path="url(#clip0_483_7432)">
<path d="M35.4504 12.5513C34.4786 11.5784 33.2458 10.9079 31.901 10.6208C30.5563 10.3336 29.1571 10.4422 27.8727 10.9333C26.5884 11.4244 25.4737 12.277 24.6636 13.3881C23.8535 14.4992 23.3825 15.8211 23.3077 17.1941L22.8172 16.7041C22.6422 16.5292 22.4048 16.4309 22.1574 16.4309C21.9099 16.4309 21.6725 16.5292 21.4975 16.7041L18.5948 19.6068C18.4199 19.7818 18.3216 20.0192 18.3216 20.2667C18.3216 20.5142 18.4199 20.7515 18.5948 20.9265L19.7176 22.0493L10.8794 33.0202C10.5918 33.3787 10.4465 33.8308 10.4715 34.2898C10.4965 34.7487 10.6899 35.1823 11.0148 35.5075L12.4941 36.9869C12.8193 37.3117 13.2529 37.5052 13.7119 37.5301C14.1709 37.5551 14.6229 37.4099 14.9814 37.1222L25.9523 28.284L27.0751 29.4068C27.2501 29.5818 27.4875 29.6801 27.735 29.6801C27.9824 29.6801 28.2198 29.5818 28.3948 29.4068L31.2975 26.5041C31.4725 26.3291 31.5708 26.0918 31.5708 25.8443C31.5708 25.5968 31.4725 25.3594 31.2975 25.1844L30.8075 24.6939C32.1805 24.6191 33.5025 24.1482 34.6136 23.338C35.7246 22.5279 36.5773 21.4133 37.0684 20.1289C37.5595 18.8445 37.668 17.4454 37.3809 16.1006C37.0937 14.7559 36.4232 13.5231 35.4504 12.5513Z" fill="#547580"/>
<path d="M31.2961 25.1814L22.8162 16.7015C22.4517 16.337 21.8608 16.337 21.4963 16.7015L18.5938 19.604C18.2293 19.9685 18.2293 20.5594 18.5938 20.9239L27.0737 29.4038C27.4381 29.7683 28.0291 29.7683 28.3936 29.4038L31.2961 26.5013C31.6606 26.1368 31.6606 25.5459 31.2961 25.1814Z" fill="#3B97D3"/>
<path d="M19.7176 22.0493L10.8794 33.0202C10.5918 33.3787 10.4465 33.8308 10.4715 34.2897C10.4965 34.7487 10.6899 35.1823 11.0148 35.5075L12.4941 36.9868C12.8193 37.3117 13.2529 37.5051 13.7119 37.5301C14.1709 37.5551 14.6229 37.4098 14.9814 37.1222L25.9523 28.284L19.7176 22.0493Z" fill="#2980BA"/>
<path d="M33.7714 14.6965C34.0291 14.6965 34.238 14.4876 34.238 14.2299C34.238 13.9721 34.0291 13.7632 33.7714 13.7632C33.5136 13.7632 33.3047 13.9721 33.3047 14.2299C33.3047 14.4876 33.5136 14.6965 33.7714 14.6965Z" fill="#3F5C6C"/>
<path d="M32.4276 13.354C32.6853 13.354 32.8943 13.1451 32.8943 12.8873C32.8943 12.6296 32.6853 12.4207 32.4276 12.4207C32.1699 12.4207 31.9609 12.6296 31.9609 12.8873C31.9609 13.1451 32.1699 13.354 32.4276 13.354Z" fill="#3F5C6C"/>
<path d="M35.1151 16.0395C35.3728 16.0395 35.5818 15.8306 35.5818 15.5729C35.5818 15.3151 35.3728 15.1062 35.1151 15.1062C34.8574 15.1062 34.6484 15.3151 34.6484 15.5729C34.6484 15.8306 34.8574 16.0395 35.1151 16.0395Z" fill="#3F5C6C"/>
<path d="M28.4003 20.0679C28.658 20.0679 28.8669 19.8589 28.8669 19.6012C28.8669 19.3435 28.658 19.1345 28.4003 19.1345C28.1425 19.1345 27.9336 19.3435 27.9336 19.6012C27.9336 19.8589 28.1425 20.0679 28.4003 20.0679Z" fill="#3F5C6C"/>
<path d="M27.0565 18.7253C27.3142 18.7253 27.5232 18.5164 27.5232 18.2587C27.5232 18.0009 27.3142 17.792 27.0565 17.792C26.7988 17.792 26.5898 18.0009 26.5898 18.2587C26.5898 18.5164 26.7988 18.7253 27.0565 18.7253Z" fill="#3F5C6C"/>
<path d="M29.7401 21.4109C29.9978 21.4109 30.2068 21.2019 30.2068 20.9442C30.2068 20.6865 29.9978 20.4775 29.7401 20.4775C29.4824 20.4775 29.2734 20.6865 29.2734 20.9442C29.2734 21.2019 29.4824 21.4109 29.7401 21.4109Z" fill="#3F5C6C"/>
<path d="M31.0839 14.6965C31.3416 14.6965 31.5505 14.4876 31.5505 14.2299C31.5505 13.9721 31.3416 13.7632 31.0839 13.7632C30.8261 13.7632 30.6172 13.9721 30.6172 14.2299C30.6172 14.4876 30.8261 14.6965 31.0839 14.6965Z" fill="#3F5C6C"/>
<path d="M29.7401 13.354C29.9978 13.354 30.2068 13.1451 30.2068 12.8873C30.2068 12.6296 29.9978 12.4207 29.7401 12.4207C29.4824 12.4207 29.2734 12.6296 29.2734 12.8873C29.2734 13.1451 29.4824 13.354 29.7401 13.354Z" fill="#3F5C6C"/>
<path d="M35.1151 18.7253C35.3728 18.7253 35.5818 18.5164 35.5818 18.2587C35.5818 18.0009 35.3728 17.792 35.1151 17.792C34.8574 17.792 34.6484 18.0009 34.6484 18.2587C34.6484 18.5164 34.8574 18.7253 35.1151 18.7253Z" fill="#3F5C6C"/>
<path d="M33.7714 17.3823C34.0291 17.3823 34.238 17.1734 34.238 16.9156C34.238 16.6579 34.0291 16.449 33.7714 16.449C33.5136 16.449 33.3047 16.6579 33.3047 16.9156C33.3047 17.1734 33.5136 17.3823 33.7714 17.3823Z" fill="#3F5C6C"/>
<path d="M32.4276 16.0395C32.6853 16.0395 32.8943 15.8306 32.8943 15.5729C32.8943 15.3151 32.6853 15.1062 32.4276 15.1062C32.1699 15.1062 31.9609 15.3151 31.9609 15.5729C31.9609 15.8306 32.1699 16.0395 32.4276 16.0395Z" fill="#3F5C6C"/>
<path d="M30.412 16.7112C30.6697 16.7112 30.8786 16.5022 30.8786 16.2445C30.8786 15.9868 30.6697 15.7778 30.412 15.7778C30.1542 15.7778 29.9453 15.9868 29.9453 16.2445C29.9453 16.5022 30.1542 16.7112 30.412 16.7112Z" fill="#3F5C6C"/>
<path d="M29.0721 15.3681C29.3299 15.3681 29.5388 15.1592 29.5388 14.9015C29.5388 14.6437 29.3299 14.4348 29.0721 14.4348C28.8144 14.4348 28.6055 14.6437 28.6055 14.9015C28.6055 15.1592 28.8144 15.3681 29.0721 15.3681Z" fill="#3F5C6C"/>
<path d="M27.7284 14.0251C27.9861 14.0251 28.1951 13.8162 28.1951 13.5585C28.1951 13.3007 27.9861 13.0918 27.7284 13.0918C27.4707 13.0918 27.2617 13.3007 27.2617 13.5585C27.2617 13.8162 27.4707 14.0251 27.7284 14.0251Z" fill="#3F5C6C"/>
<path d="M34.4432 20.7395C34.701 20.7395 34.9099 20.5306 34.9099 20.2728C34.9099 20.0151 34.701 19.8062 34.4432 19.8062C34.1855 19.8062 33.9766 20.0151 33.9766 20.2728C33.9766 20.5306 34.1855 20.7395 34.4432 20.7395Z" fill="#3F5C6C"/>
<path d="M33.0995 19.397C33.3572 19.397 33.5661 19.188 33.5661 18.9303C33.5661 18.6726 33.3572 18.4636 33.0995 18.4636C32.8417 18.4636 32.6328 18.6726 32.6328 18.9303C32.6328 19.188 32.8417 19.397 33.0995 19.397Z" fill="#3F5C6C"/>
<path d="M31.7557 18.0537C32.0135 18.0537 32.2224 17.8448 32.2224 17.587C32.2224 17.3293 32.0135 17.1204 31.7557 17.1204C31.498 17.1204 31.2891 17.3293 31.2891 17.587C31.2891 17.8448 31.498 18.0537 31.7557 18.0537Z" fill="#3F5C6C"/>
<path d="M29.0721 18.0537C29.3299 18.0537 29.5388 17.8448 29.5388 17.587C29.5388 17.3293 29.3299 17.1204 29.0721 17.1204C28.8144 17.1204 28.6055 17.3293 28.6055 17.587C28.6055 17.8448 28.8144 18.0537 29.0721 18.0537Z" fill="#3F5C6C"/>
<path d="M27.7284 16.7112C27.9861 16.7112 28.1951 16.5022 28.1951 16.2445C28.1951 15.9868 27.9861 15.7778 27.7284 15.7778C27.4707 15.7778 27.2617 15.9868 27.2617 16.2445C27.2617 16.5022 27.4707 16.7112 27.7284 16.7112Z" fill="#3F5C6C"/>
<path d="M26.3846 15.3681C26.6424 15.3681 26.8513 15.1592 26.8513 14.9015C26.8513 14.6437 26.6424 14.4348 26.3846 14.4348C26.1269 14.4348 25.918 14.6437 25.918 14.9015C25.918 15.1592 26.1269 15.3681 26.3846 15.3681Z" fill="#3F5C6C"/>
<path d="M33.0995 22.0825C33.3572 22.0825 33.5661 21.8736 33.5661 21.6158C33.5661 21.3581 33.3572 21.1492 33.0995 21.1492C32.8417 21.1492 32.6328 21.3581 32.6328 21.6158C32.6328 21.8736 32.8417 22.0825 33.0995 22.0825Z" fill="#3F5C6C"/>
<path d="M31.7557 20.7395C32.0135 20.7395 32.2224 20.5306 32.2224 20.2728C32.2224 20.0151 32.0135 19.8062 31.7557 19.8062C31.498 19.8062 31.2891 20.0151 31.2891 20.2728C31.2891 20.5306 31.498 20.7395 31.7557 20.7395Z" fill="#3F5C6C"/>
<path d="M30.412 19.397C30.6697 19.397 30.8786 19.188 30.8786 18.9303C30.8786 18.6726 30.6697 18.4636 30.412 18.4636C30.1542 18.4636 29.9453 18.6726 29.9453 18.9303C29.9453 19.188 30.1542 19.397 30.412 19.397Z" fill="#3F5C6C"/>
</g>
<defs>
<clipPath id="clip0_483_7432">
<rect width="28" height="28" fill="white" transform="translate(10 10)"/>
</clipPath>
</defs>
</svg>
