<svg width="64" height="64" viewBox="0 0 64 64" fill="none" xmlns="http://www.w3.org/2000/svg">
<circle cx="32" cy="32" r="32" fill="white"/>
<g clip-path="url(#clip0_486_10037)">
<path d="M38.4942 39.5531C37.4832 40.5646 26.7621 45.421 18.6851 47.4099C18.323 47.4998 17.9439 47.4946 17.5844 47.3947C17.225 47.2949 16.8975 47.1038 16.6337 46.84C16.3699 46.5762 16.1788 46.2487 16.0789 45.8892C15.9791 45.5298 15.9739 45.1506 16.0638 44.7886C18.0527 36.7116 22.9096 25.991 23.9206 24.9795L38.4942 39.5531Z" fill="#F0C419"/>
<path d="M38.4912 39.553C39.5502 38.4939 37.1463 34.373 33.122 30.3486C29.0976 26.3242 24.9766 23.9203 23.9176 24.9794C22.8585 26.0384 25.2624 30.1594 29.2868 34.1838C33.3112 38.2082 37.4321 40.612 38.4912 39.553Z" fill="#D25627"/>
<path d="M21.6199 42.939C22.219 42.939 22.7046 42.4534 22.7046 41.8543C22.7046 41.2552 22.219 40.7695 21.6199 40.7695C21.0208 40.7695 20.5352 41.2552 20.5352 41.8543C20.5352 42.4534 21.0208 42.939 21.6199 42.939Z" fill="#955BA5"/>
<path d="M28.5246 30.1245C28.4173 30.1246 28.3123 30.0928 28.223 30.0332C28.1337 29.9735 28.0641 29.8888 28.0231 29.7896C27.982 29.6904 27.9713 29.5812 27.9923 29.4759C28.0134 29.3706 28.0652 29.2739 28.1412 29.1981L31.5928 25.747C33.4494 23.8899 33.6859 22.4705 32.3603 21.1444C32.0865 20.8239 31.7364 20.5775 31.3422 20.4279C30.9481 20.2783 30.5226 20.2304 30.1051 20.2886C29.5067 20.4153 28.9578 20.7125 28.5246 21.1444C28.4223 21.2432 28.2853 21.2979 28.1431 21.2967C28.0009 21.2954 27.8649 21.2384 27.7643 21.1378C27.6638 21.0373 27.6067 20.9012 27.6055 20.759C27.6043 20.6168 27.6589 20.4798 27.7577 20.3775C28.3473 19.7869 29.0986 19.3841 29.9169 19.2201C30.5062 19.1271 31.1094 19.1844 31.6706 19.3867C32.2318 19.5891 32.7329 19.9299 33.1272 20.3775C34.9084 22.1587 34.6502 24.2235 32.3598 26.5139L28.9092 29.9656C28.8587 30.0161 28.7987 30.0561 28.7328 30.0834C28.6668 30.1106 28.596 30.1246 28.5246 30.1245Z" fill="#955BA5"/>
<path d="M42.7111 35.8766C42.6039 35.8765 42.499 35.8447 42.4099 35.7851C42.3207 35.7255 42.2512 35.6408 42.2102 35.5417C42.1691 35.4426 42.1584 35.3336 42.1793 35.2284C42.2002 35.1232 42.2519 35.0266 42.3277 34.9507C42.6004 34.7112 42.8188 34.4162 42.9685 34.0856C43.1181 33.7549 43.1955 33.3961 43.1955 33.0332C43.1955 32.6702 43.1181 32.3114 42.9685 31.9808C42.8188 31.6501 42.6004 31.3552 42.3277 31.1156C42.0541 30.7839 41.6927 30.5358 41.2848 30.3997C40.8769 30.2636 40.4389 30.245 40.021 30.346C39.136 30.6514 38.3452 31.1807 37.7256 31.8825L34.6574 34.9507C34.5552 35.0495 34.4181 35.1042 34.2759 35.103C34.1337 35.1017 33.9977 35.0447 33.8971 34.9441C33.7966 34.8436 33.7395 34.7075 33.7383 34.5653C33.7371 34.4231 33.7917 34.2861 33.8905 34.1838L36.9587 31.1156C37.7116 30.2753 38.6726 29.648 39.7449 29.297C40.3458 29.1431 40.9777 29.1601 41.5695 29.3459C42.1613 29.5317 42.6895 29.879 43.0946 30.3487C45.2136 32.4672 44.092 34.7208 43.0946 35.7182C43.0444 35.7687 42.9846 35.8087 42.9188 35.8359C42.8529 35.8631 42.7824 35.8769 42.7111 35.8766Z" fill="#FF5364"/>
<path d="M35.8118 25.9053C35.7047 25.9053 35.5999 25.8735 35.5108 25.8141C35.4217 25.7546 35.3522 25.6701 35.3111 25.5712C35.27 25.4722 35.2591 25.3634 35.2797 25.2583C35.3004 25.1531 35.3517 25.0565 35.4273 24.9805C35.5694 24.8373 38.8778 21.435 36.1551 18.0317C36.1063 17.9766 36.0692 17.9122 36.046 17.8423C36.0229 17.7725 36.0142 17.6986 36.0205 17.6253C36.0268 17.552 36.048 17.4807 36.0827 17.4158C36.1174 17.3509 36.165 17.2938 36.2225 17.2479C36.2801 17.202 36.3463 17.1682 36.4173 17.1488C36.4882 17.1293 36.5624 17.1244 36.6353 17.1345C36.7082 17.1446 36.7783 17.1695 36.8413 17.2075C36.9043 17.2456 36.9589 17.296 37.0018 17.3559C40.3352 21.5218 36.237 25.7084 36.1947 25.7485C36.1444 25.7986 36.0846 25.8383 36.0189 25.8652C35.9532 25.8921 35.8828 25.9057 35.8118 25.9053Z" fill="#F0C419"/>
<path d="M41.4904 27.3739C42.389 27.3739 43.1175 26.6454 43.1175 25.7467C43.1175 24.8481 42.389 24.1196 41.4904 24.1196C40.5918 24.1196 39.8633 24.8481 39.8633 25.7467C39.8633 26.6454 40.5918 27.3739 41.4904 27.3739Z" fill="#FF5364"/>
<path d="M33.3543 18.1695C33.9534 18.1695 34.439 17.6838 34.439 17.0847C34.439 16.4857 33.9534 16 33.3543 16C32.7552 16 32.2695 16.4857 32.2695 17.0847C32.2695 17.6838 32.7552 18.1695 33.3543 18.1695Z" fill="#3B97D3"/>
<path d="M46.3699 37.6949C46.969 37.6949 47.4546 37.2092 47.4546 36.6101C47.4546 36.011 46.969 35.5254 46.3699 35.5254C45.7708 35.5254 45.2852 36.011 45.2852 36.6101C45.2852 37.2092 45.7708 37.6949 46.3699 37.6949Z" fill="#955BA5"/>
<path d="M41.4898 19.2546C41.346 19.2546 41.208 19.1974 41.1063 19.0957C41.0046 18.994 40.9474 18.856 40.9474 18.7122V18.1698C40.9474 18.026 41.0046 17.888 41.1063 17.7863C41.208 17.6846 41.346 17.6274 41.4898 17.6274C41.6337 17.6274 41.7716 17.6846 41.8733 17.7863C41.975 17.888 42.0322 18.026 42.0322 18.1698V18.7122C42.0322 18.856 41.975 18.994 41.8733 19.0957C41.7716 19.1974 41.6337 19.2546 41.4898 19.2546ZM43.1169 20.3393H42.5745C42.4307 20.3393 42.2927 20.2822 42.191 20.1804C42.0893 20.0787 42.0322 19.9408 42.0322 19.7969C42.0322 19.6531 42.0893 19.5151 42.191 19.4134C42.2927 19.3117 42.4307 19.2546 42.5745 19.2546H43.1169C43.2608 19.2546 43.3987 19.3117 43.5004 19.4134C43.6022 19.5151 43.6593 19.6531 43.6593 19.7969C43.6593 19.9408 43.6022 20.0787 43.5004 20.1804C43.3987 20.2822 43.2608 20.3393 43.1169 20.3393ZM41.4898 21.9664C41.346 21.9664 41.208 21.9093 41.1063 21.8076C41.0046 21.7059 40.9474 21.5679 40.9474 21.4241V20.8817C40.9474 20.7378 41.0046 20.5999 41.1063 20.4982C41.208 20.3964 41.346 20.3393 41.4898 20.3393C41.6337 20.3393 41.7716 20.3964 41.8733 20.4982C41.975 20.5999 42.0322 20.7378 42.0322 20.8817V21.4241C42.0322 21.5679 41.975 21.7059 41.8733 21.8076C41.7716 21.9093 41.6337 21.9664 41.4898 21.9664ZM40.4051 20.3393H39.8627C39.7188 20.3393 39.5809 20.2822 39.4792 20.1804C39.3775 20.0787 39.3203 19.9408 39.3203 19.7969C39.3203 19.6531 39.3775 19.5151 39.4792 19.4134C39.5809 19.3117 39.7188 19.2546 39.8627 19.2546H40.4051C40.5489 19.2546 40.6869 19.3117 40.7886 19.4134C40.8903 19.5151 40.9474 19.6531 40.9474 19.7969C40.9474 19.9408 40.8903 20.0787 40.7886 20.1804C40.6869 20.2822 40.5489 20.3393 40.4051 20.3393Z" fill="#955BA5"/>
<path d="M45.8296 28.4743C45.6858 28.4743 45.5478 28.4171 45.4461 28.3154C45.3444 28.2137 45.2873 28.0758 45.2873 27.9319V27.3895C45.2873 27.2457 45.3444 27.1077 45.4461 27.006C45.5478 26.9043 45.6858 26.8472 45.8296 26.8472C45.9735 26.8472 46.1114 26.9043 46.2132 27.006C46.3149 27.1077 46.372 27.2457 46.372 27.3895V27.9319C46.372 28.0758 46.3149 28.2137 46.2132 28.3154C46.1114 28.4171 45.9735 28.4743 45.8296 28.4743ZM47.4568 29.559H46.9144C46.7705 29.559 46.6326 29.5019 46.5309 29.4002C46.4292 29.2985 46.372 29.1605 46.372 29.0167C46.372 28.8728 46.4292 28.7349 46.5309 28.6331C46.6326 28.5314 46.7705 28.4743 46.9144 28.4743H47.4568C47.6006 28.4743 47.7386 28.5314 47.8403 28.6331C47.942 28.7349 47.9991 28.8728 47.9991 29.0167C47.9991 29.1605 47.942 29.2985 47.8403 29.4002C47.7386 29.5019 47.6006 29.559 47.4568 29.559ZM45.8296 31.1862C45.6858 31.1862 45.5478 31.129 45.4461 31.0273C45.3444 30.9256 45.2873 30.7876 45.2873 30.6438V30.1014C45.2873 29.9576 45.3444 29.8196 45.4461 29.7179C45.5478 29.6162 45.6858 29.559 45.8296 29.559C45.9735 29.559 46.1114 29.6162 46.2132 29.7179C46.3149 29.8196 46.372 29.9576 46.372 30.1014V30.6438C46.372 30.7876 46.3149 30.9256 46.2132 31.0273C46.1114 31.129 45.9735 31.1862 45.8296 31.1862ZM44.7449 29.559H44.2025C44.0587 29.559 43.9207 29.5019 43.819 29.4002C43.7173 29.2985 43.6602 29.1605 43.6602 29.0167C43.6602 28.8728 43.7173 28.7349 43.819 28.6331C43.9207 28.5314 44.0587 28.4743 44.2025 28.4743H44.7449C44.8887 28.4743 45.0267 28.5314 45.1284 28.6331C45.2301 28.7349 45.2873 28.8728 45.2873 29.0167C45.2873 29.1605 45.2301 29.2985 45.1284 29.4002C45.0267 29.5019 44.8887 29.559 44.7449 29.559Z" fill="#3B97D3"/>
<path fill-rule="evenodd" clip-rule="evenodd" d="M34.1802 41.8389C32.7754 42.4789 31.1158 43.184 29.3368 43.8891C29.071 43.7264 28.789 43.542 28.4961 43.3413C28.6257 41.7955 29.0168 40.2823 29.6513 38.8667C31.0582 40.0058 32.5753 41.0015 34.1802 41.8389Z" fill="black"/>
<path d="M34.1773 41.8385C32.7725 42.4785 31.1129 43.1836 29.3339 43.8887C29.0681 43.7259 28.7861 43.5415 28.4932 43.3409C27.4124 42.6128 26.3797 41.8156 25.4017 40.9544C24.919 40.5205 24.42 40.0595 23.9156 39.5551C23.3652 39.0088 22.8368 38.4406 22.3319 37.852C21.3194 36.6894 20.4 35.449 19.582 34.1422C20.2871 32.3632 20.9922 30.7036 21.6376 29.2988C22.2124 30.4153 22.8705 31.4868 23.6064 32.5043C24.4859 33.7338 25.4539 34.8975 26.5027 35.9863C26.6546 36.1544 26.8173 36.3171 26.9854 36.4853C27.8273 37.3287 28.7164 38.1237 29.6485 38.8663C31.0553 40.0054 32.5725 41.0011 34.1773 41.8385Z" fill="#FF5364"/>
<path d="M29.6491 38.8663C29.0141 40.2819 28.6235 41.7948 28.4939 43.3409C27.413 42.6128 26.3804 41.8157 25.4023 40.9545C25.4403 39.2422 25.8145 37.5538 26.5034 35.9863C26.6552 36.1545 26.8179 36.3172 26.9861 36.4853C27.828 37.3287 28.7171 38.1237 29.6491 38.8663Z" fill="#955BA5"/>
<path d="M26.5029 35.9864C25.8138 37.5543 25.4397 39.2424 25.4019 40.9546C24.9191 40.5207 24.4202 40.0596 23.9158 39.5552C23.3653 39.0089 22.837 38.4408 22.332 37.8522C22.3882 36.0014 22.8219 34.1816 23.6066 32.5044C24.4861 33.7339 25.4541 34.8977 26.5029 35.9864Z" fill="#B49ACA"/>
<path d="M21.9378 46.5033C20.8259 46.845 19.7303 47.1487 18.6835 47.4091C18.3217 47.499 17.9427 47.4939 17.5835 47.3941C17.2242 47.2944 16.8969 47.1034 16.6332 46.8397C16.3696 46.5761 16.1786 46.2487 16.0788 45.8895C15.9791 45.5302 15.9739 45.1512 16.0639 44.7894C16.3242 43.7426 16.6279 42.647 16.9696 41.5352C18.44 43.3671 20.1059 45.033 21.9378 46.5033Z" fill="#FF5364"/>
</g>
<defs>
<clipPath id="clip0_486_10037">
<rect width="32" height="32" fill="white" transform="translate(16 16)"/>
</clipPath>
</defs>
</svg>
