<svg width="64" height="64" viewBox="0 0 64 64" fill="none" xmlns="http://www.w3.org/2000/svg">
<circle cx="32" cy="32" r="32" fill="white"/>
<g clip-path="url(#clip0_486_10042)">
<path d="M39.4685 33.0667C39.4558 32.0362 39.1573 31.0294 38.6061 30.1585C38.2047 29.5705 37.6647 29.0903 37.0338 28.7604C36.4029 28.4304 35.7004 28.2609 34.9885 28.2667H29.0152C28.3032 28.2609 27.6008 28.4304 26.9699 28.7604C26.3389 29.0903 25.799 29.5705 25.3976 30.1585C24.8464 31.0294 24.5478 32.0362 24.5352 33.0667H39.4685Z" fill="#FB7B76"/>
<path d="M17.6018 44.7998H46.4018C46.6847 44.7998 46.956 44.9122 47.1561 45.1122C47.3561 45.3123 47.4685 45.5836 47.4685 45.8665V46.9331C47.4685 47.0746 47.4123 47.2102 47.3123 47.3103C47.2123 47.4103 47.0766 47.4665 46.9352 47.4665H17.0685C16.927 47.4665 16.7914 47.4103 16.6914 47.3103C16.5913 47.2102 16.5352 47.0746 16.5352 46.9331V45.8665C16.5352 45.5836 16.6475 45.3123 16.8476 45.1122C17.0476 44.9122 17.3189 44.7998 17.6018 44.7998Z" fill="#547580"/>
<path d="M40 44.7997H24V33.5997C24 33.4583 24.0562 33.3226 24.1562 33.2226C24.2562 33.1226 24.3919 33.0664 24.5333 33.0664H39.4667C39.6081 33.0664 39.7438 33.1226 39.8438 33.2226C39.9438 33.3226 40 33.4583 40 33.5997V44.7997Z" fill="#2980BA"/>
<path d="M18.1349 34.1333H24.0016V44.8H17.6016V34.6666C17.6016 34.5252 17.6578 34.3895 17.7578 34.2895C17.8578 34.1895 17.9934 34.1333 18.1349 34.1333Z" fill="#3B97D3"/>
<path d="M20.801 38.3999C21.3901 38.3999 21.8677 37.9224 21.8677 37.3333C21.8677 36.7442 21.3901 36.2666 20.801 36.2666C20.2119 36.2666 19.7344 36.7442 19.7344 37.3333C19.7344 37.9224 20.2119 38.3999 20.801 38.3999Z" fill="#3F5C6C"/>
<path d="M20.801 42.6665C21.3901 42.6665 21.8677 42.189 21.8677 41.5999C21.8677 41.0108 21.3901 40.5332 20.801 40.5332C20.2119 40.5332 19.7344 41.0108 19.7344 41.5999C19.7344 42.189 20.2119 42.6665 20.801 42.6665Z" fill="#3F5C6C"/>
<path d="M46.4 44.8H40V34.1333H45.8667C46.0081 34.1333 46.1438 34.1895 46.2438 34.2895C46.3438 34.3895 46.4 34.5252 46.4 34.6666V44.8Z" fill="#3B97D3"/>
<path d="M43.2034 38.3999C43.7925 38.3999 44.2701 37.9224 44.2701 37.3333C44.2701 36.7442 43.7925 36.2666 43.2034 36.2666C42.6143 36.2666 42.1367 36.7442 42.1367 37.3333C42.1367 37.9224 42.6143 38.3999 43.2034 38.3999Z" fill="#3F5C6C"/>
<path d="M43.2034 42.6665C43.7925 42.6665 44.2701 42.189 44.2701 41.5999C44.2701 41.0108 43.7925 40.5332 43.2034 40.5332C42.6143 40.5332 42.1367 41.0108 42.1367 41.5999C42.1367 42.189 42.6143 42.6665 43.2034 42.6665Z" fill="#3F5C6C"/>
<path d="M27.7365 30.9331H32.0031C32.1446 30.9331 32.2802 30.9893 32.3802 31.0893C32.4803 31.1893 32.5365 31.325 32.5365 31.4664V33.0664H27.2031V31.4664C27.2031 31.325 27.2593 31.1893 27.3593 31.0893C27.4594 30.9893 27.595 30.9331 27.7365 30.9331ZM35.2031 30.9331H36.2698C36.4112 30.9331 36.5469 30.9893 36.6469 31.0893C36.7469 31.1893 36.8031 31.325 36.8031 31.4664V33.0664H34.6698V31.4664C34.6698 31.325 34.726 31.1893 34.826 31.0893C34.926 30.9893 35.0617 30.9331 35.2031 30.9331Z" fill="#3F5C6C"/>
<path d="M38.4016 22.9332V24.5332C38.4016 24.6747 38.3454 24.8103 38.2454 24.9103C38.1453 25.0103 38.0097 25.0665 37.8682 25.0665H35.7349C35.7349 26.0567 35.3416 27.0063 34.6414 27.7064C33.9413 28.4065 32.9917 28.7999 32.0016 28.7999C31.0114 28.7999 30.0618 28.4065 29.3617 27.7064C28.6616 27.0063 28.2682 26.0567 28.2682 25.0665H26.1349C25.9934 25.0665 25.8578 25.0103 25.7578 24.9103C25.6578 24.8103 25.6016 24.6747 25.6016 24.5332V22.9332C25.6016 22.7918 25.6578 22.6561 25.7578 22.5561C25.8578 22.4561 25.9934 22.3999 26.1349 22.3999C26.1349 20.8439 26.753 19.3517 27.8532 18.2515C28.9534 17.1513 30.4456 16.5332 32.0016 16.5332C33.5575 16.5332 35.0497 17.1513 36.1499 18.2515C37.2501 19.3517 37.8682 20.8439 37.8682 22.3999C38.0097 22.3999 38.1453 22.4561 38.2454 22.5561C38.3454 22.6561 38.4016 22.7918 38.4016 22.9332Z" fill="#FDD7AD"/>
<path d="M38.4016 22.9332V24.5332C38.4016 24.6747 38.3454 24.8103 38.2454 24.9103C38.1453 25.0103 38.0097 25.0665 37.8682 25.0665H35.7349V22.3999C35.7349 21.4097 35.3416 20.4601 34.6414 19.76C33.9413 19.0599 32.9917 18.6665 32.0016 18.6665C31.0114 18.6665 30.0618 19.0599 29.3617 19.76C28.6616 20.4601 28.2682 21.4097 28.2682 22.3999V25.0665H26.1349C25.9934 25.0665 25.8578 25.0103 25.7578 24.9103C25.6578 24.8103 25.6016 24.6747 25.6016 24.5332V22.9332C25.6016 22.7918 25.6578 22.6561 25.7578 22.5561C25.8578 22.4561 25.9934 22.3999 26.1349 22.3999C26.1349 20.8439 26.753 19.3517 27.8532 18.2515C28.9534 17.1513 30.4456 16.5332 32.0016 16.5332C33.5575 16.5332 35.0497 17.1513 36.1499 18.2515C37.2501 19.3517 37.8682 20.8439 37.8682 22.3999C38.0097 22.3999 38.1453 22.4561 38.2454 22.5561C38.3454 22.6561 38.4016 22.7918 38.4016 22.9332Z" fill="#3F5C6C"/>
<path d="M37.8701 22.3999H35.7367C35.7367 21.4097 35.3434 20.4601 34.6433 19.76C33.9431 19.0599 32.9935 18.6665 32.0034 18.6665C31.0132 18.6665 30.0637 19.0599 29.3635 19.76C28.6634 20.4601 28.2701 21.4097 28.2701 22.3999H26.1367C26.1367 20.8439 26.7548 19.3517 27.855 18.2515C28.9552 17.1513 30.4474 16.5332 32.0034 16.5332C33.5593 16.5332 35.0515 17.1513 36.1517 18.2515C37.252 19.3517 37.8701 20.8439 37.8701 22.3999Z" fill="#547580"/>
<path d="M35.7362 22.3998V23.4665C33.6029 23.4665 33.0695 21.3332 33.0695 21.3332C33.0695 23.4665 28.2695 22.9332 28.2695 22.9332V22.3998C28.2695 21.4097 28.6629 20.4601 29.363 19.76C30.0631 19.0598 31.0127 18.6665 32.0029 18.6665C32.993 18.6665 33.9426 19.0598 34.6427 19.76C35.3429 20.4601 35.7362 21.4097 35.7362 22.3998Z" fill="#A56A43"/>
</g>
<defs>
<clipPath id="clip0_486_10042">
<rect width="32" height="32" fill="white" transform="translate(16 16)"/>
</clipPath>
</defs>
</svg>
