<svg width="48" height="48" viewBox="0 0 48 48" fill="none" xmlns="http://www.w3.org/2000/svg">
<circle cx="24" cy="24" r="24" fill="#FCF4EA"/>
<path d="M11.3964 31H27.263C27.3243 31 27.385 31.0121 27.4416 31.0355C27.4982 31.059 27.5497 31.0933 27.593 31.1367C27.6363 31.18 27.6707 31.2315 27.6942 31.2881C27.7176 31.3447 27.7297 31.4054 27.7297 31.4666V33.8C27.7297 35.8619 26.0582 37.5334 23.9963 37.5334H14.663C12.6012 37.5334 10.9297 35.8619 10.9297 33.8V31.4666C10.9297 31.3429 10.9789 31.2242 11.0664 31.1367C11.1539 31.0492 11.2726 31 11.3964 31Z" fill="#E57E25"/>
<path d="M28.6803 13.7334C28.5565 13.7334 28.4378 13.6842 28.3503 13.5967C28.2628 13.5092 28.2137 13.3905 28.2137 13.2667V10.9334H25.8803C25.7574 10.932 25.64 10.8823 25.5536 10.7949C25.4671 10.7075 25.4187 10.5896 25.4187 10.4667C25.4187 10.3438 25.4671 10.2258 25.5536 10.1385C25.64 10.0511 25.7574 10.0013 25.8803 10H28.2137C28.7291 10 29.147 10.4179 29.147 10.9334V13.2667C29.147 13.3905 29.0978 13.5092 29.0103 13.5967C28.9228 13.6842 28.8041 13.7333 28.6803 13.7334ZM35.1992 17L32.9461 37.5334H23.9992L21.7461 17H35.1992Z" fill="#4482C3"/>
<path d="M23.1443 13.2666H33.7974C34.3128 13.2666 34.7307 13.6845 34.7307 14.2V16.0666H22.2109V14.2C22.2109 13.6845 22.6288 13.2666 23.1443 13.2666Z" fill="#E6E7E8"/>
<path d="M21.7458 15.1333H35.1989C35.7144 15.1333 36.1322 15.5512 36.1322 16.0667V16.9999C36.1322 17.1237 36.0831 17.2424 35.9955 17.3299C35.908 17.4174 35.7893 17.4666 35.6656 17.4666H21.2791C21.1554 17.4666 21.0367 17.4174 20.9492 17.3299C20.8617 17.2424 20.8125 17.1237 20.8125 16.9999V16.0666C20.8124 15.5512 21.2303 15.1333 21.7458 15.1333Z" fill="#D1D4D1"/>
<path d="M27.2656 31H13.2656" stroke="black" stroke-width="2" stroke-linecap="round" stroke-linejoin="round"/>
<path d="M29.1311 29.1333L29.5977 30.0667L12.3311 29.6V29.1333C12.3311 29.1333 11.8644 27.2667 14.1977 27.2667C15.7144 27.2667 15.7144 26.8 17.2311 26.8C18.7478 26.8 18.7524 27.2667 20.2691 27.2667C21.7857 27.2667 21.7857 26.8 23.3024 26.8C24.8191 26.8 24.8144 27.2667 26.3311 27.2667C26.3311 27.2666 28.6644 27.2666 29.1311 29.1333Z" fill="#F0C419"/>
<path d="M28.6353 29.1334H12.3906C12.5633 28.6667 13.03 28.2 14.1966 28.2C15.7133 28.2 15.7133 27.7334 17.23 27.7334C18.7467 27.7334 18.7513 28.2 20.268 28.2C21.7846 28.2 21.7846 27.7334 23.3013 27.7334C24.818 27.7334 24.8133 28.2 26.33 28.2C26.33 28.2 27.8 28.2 28.6353 29.1334Z" fill="#E64C3C"/>
<path d="M12.7982 32.4H12.0982C11.1961 32.4 10.4648 31.6687 10.4648 30.7667C10.4648 29.8646 11.1961 29.1333 12.0982 29.1333H29.3648C30.2669 29.1333 30.9982 29.8646 30.9982 30.7667C30.9946 31.5769 30.3997 32.263 29.5982 32.3813L12.7982 32.4Z" fill="#804537"/>
<path d="M13.2635 31H29.1302C29.1915 31 29.2521 31.0121 29.3088 31.0355C29.3654 31.059 29.4168 31.0933 29.4601 31.1367C29.5035 31.18 29.5378 31.2315 29.5613 31.2881C29.5847 31.3447 29.5968 31.4054 29.5968 31.4666V33.8C29.5968 35.8619 27.9254 37.5334 25.8635 37.5334H16.5302C14.4683 37.5334 12.7969 35.8619 12.7969 33.8V31.4666C12.7969 31.3429 12.8461 31.2242 12.9336 31.1367C13.0211 31.0492 13.1398 31 13.2635 31Z" fill="#F29C1F"/>
</svg>
