<svg width="64" height="64" viewBox="0 0 64 64" fill="none" xmlns="http://www.w3.org/2000/svg">
<circle cx="32" cy="32" r="32" fill="white"/>
<g clip-path="url(#clip0_486_10041)">
<path d="M39.3987 33.4424L40.6238 44.0043L40.8666 46.1014C40.7862 46.1678 40.7015 46.2287 40.6128 46.2836C39.0786 47.299 35.5801 47.9997 31.5075 47.9997C27.4349 47.9997 23.9364 47.299 22.4022 46.2836C22.3136 46.2287 22.2288 46.1678 22.1484 46.1014L22.3912 44.0043L23.6163 33.4424H39.3987Z" fill="#2C3E50"/>
<path d="M38.487 33.4424L39.5709 44.0043L39.7855 46.1014C39.715 46.1673 39.6399 46.2282 39.5609 46.2836C38.2039 47.299 35.1098 47.9997 31.508 47.9997C27.9062 47.9997 24.8121 47.299 23.4551 46.2836C23.3761 46.2282 23.301 46.1673 23.2305 46.1014L23.4451 44.0043L24.5291 33.4424H38.487Z" fill="#3F5C6C"/>
<path d="M39.9629 38.282C37.1884 38.9021 34.3516 39.2002 31.5088 39.1703C28.666 39.2002 25.8292 38.9022 23.0547 38.282L23.6176 33.4424H39.4L39.9629 38.282Z" fill="#FF5364"/>
<path d="M24.5281 33.4424L24.0093 38.4915C23.6783 38.4309 23.3636 38.3592 23.0547 38.282L23.6176 33.4424H24.5281ZM39.9629 38.282C39.654 38.3592 39.3392 38.4309 39.0083 38.4915L38.4895 33.4424H39.4L39.9629 38.282Z" fill="#C03A2B"/>
<path d="M18.8134 18.2008C18.667 18.2008 18.5267 18.1426 18.4232 18.0392C18.3197 17.9357 18.2615 17.7953 18.2615 17.6489V17.097C18.2615 16.7923 18.5086 16.5454 18.8134 16.5454C19.1181 16.5454 19.3652 16.7923 19.3652 17.097V17.6489C19.3652 17.7952 19.3071 17.9356 19.2036 18.0391C19.1001 18.1426 18.9597 18.2008 18.8134 18.2008ZM18.8134 22.0636C18.667 22.0636 18.5267 22.0055 18.4232 21.902C18.3197 21.7985 18.2615 21.6581 18.2615 21.5118V20.9599C18.2615 20.6552 18.5086 20.4083 18.8134 20.4083C19.1181 20.4083 19.3652 20.6552 19.3652 20.9599V21.5118C19.3652 21.6581 19.3071 21.7985 19.2036 21.902C19.1001 22.0055 18.9597 22.0636 18.8134 22.0636ZM17.158 19.8564H16.6061C16.4612 19.8542 16.3229 19.7951 16.2212 19.6918C16.1195 19.5886 16.0625 19.4495 16.0625 19.3045C16.0625 19.1596 16.1195 19.0205 16.2212 18.9172C16.3229 18.814 16.4612 18.7548 16.6061 18.7527H17.158C17.4627 18.7527 17.7097 18.9998 17.7097 19.3045C17.7097 19.6093 17.4627 19.8564 17.158 19.8564ZM21.0208 19.8564H20.469C20.324 19.8542 20.1858 19.7951 20.0841 19.6918C19.9824 19.5886 19.9253 19.4495 19.9253 19.3045C19.9253 19.1596 19.9824 19.0205 20.0841 18.9172C20.1858 18.814 20.324 18.7548 20.469 18.7527H21.0208C21.3256 18.7527 21.5725 18.9998 21.5725 19.3045C21.5725 19.6093 21.3256 19.8564 21.0208 19.8564Z" fill="#3B97D3"/>
<path d="M44.7504 21.5119C43.5312 21.5119 42.543 20.5236 42.543 19.3046C42.543 18.0856 43.5312 17.0972 44.7504 17.0972C45.9694 17.0972 46.9577 18.0856 46.9577 19.3046C46.9577 19.89 46.7252 20.4515 46.3113 20.8655C45.8973 21.2793 45.3358 21.5118 44.7504 21.5119ZM44.7504 18.2009C44.1409 18.2009 43.6467 18.6951 43.6467 19.3046C43.6467 19.9141 44.1409 20.4084 44.7504 20.4084C45.3599 20.4084 45.8539 19.9141 45.8539 19.3046C45.8539 19.0119 45.7377 18.7312 45.5309 18.5242C45.3239 18.3172 45.0431 18.2009 44.7504 18.2009Z" fill="#FF5364"/>
<path d="M18.2639 39.1708C18.1176 39.1708 17.9772 39.1126 17.8737 39.0091C17.7702 38.9056 17.7121 38.7653 17.7121 38.6189V38.0671C17.7143 37.9221 17.7734 37.7839 17.8766 37.6822C17.9799 37.5805 18.119 37.5234 18.2639 37.5234C18.4089 37.5234 18.548 37.5805 18.6513 37.6822C18.7545 37.7839 18.8136 37.9221 18.8158 38.0671V38.6189C18.8158 38.7653 18.7576 38.9056 18.6542 39.0091C18.5507 39.1126 18.4103 39.1708 18.2639 39.1708ZM18.2639 41.9299C18.1176 41.9299 17.9772 41.8717 17.8737 41.7682C17.7702 41.6647 17.7121 41.5244 17.7121 41.378V40.8264C17.7121 40.5214 17.9592 40.2745 18.2639 40.2745C18.5687 40.2745 18.8158 40.5214 18.8158 40.8264V41.378C18.8158 41.5244 18.7576 41.6647 18.6542 41.7682C18.5507 41.8717 18.4103 41.9299 18.2639 41.9299ZM17.1604 40.2746H16.6085C16.4632 40.273 16.3243 40.2142 16.2221 40.1109C16.1198 40.0075 16.0625 39.868 16.0625 39.7227C16.0625 39.5773 16.1198 39.4378 16.2221 39.3345C16.3243 39.2311 16.4632 39.1723 16.6085 39.1708H17.1604C17.4652 39.1708 17.7121 39.4179 17.7121 39.7226C17.7121 40.0274 17.4652 40.2746 17.1604 40.2746ZM19.9195 40.2746H19.3677C19.2223 40.273 19.0834 40.2142 18.9812 40.1109C18.879 40.0075 18.8216 39.868 18.8216 39.7227C18.8216 39.5773 18.879 39.4378 18.9812 39.3345C19.0834 39.2311 19.2223 39.1723 19.3677 39.1708H19.9195C20.0645 39.173 20.2027 39.2321 20.3044 39.3353C20.4061 39.4386 20.4631 39.5777 20.4631 39.7226C20.4631 39.8676 20.4061 40.0067 20.3044 40.11C20.2027 40.2132 20.0645 40.2724 19.9195 40.2746Z" fill="#894B9D"/>
<path d="M25.5168 26.8979C21.2125 27.5323 18.2656 28.8348 18.2656 30.3413C18.2656 31.6159 20.3737 32.7419 23.6185 33.4427C26.2153 33.9704 28.86 34.2256 31.5097 34.2041C34.1595 34.2256 36.8042 33.9704 39.4009 33.4427C42.6458 32.7419 44.7539 31.616 44.7539 30.3413C44.7539 28.8348 41.807 27.5323 37.5082 26.8979" fill="#547580"/>
<path d="M36.9822 29.0991C38.704 29.4027 39.7855 29.8442 39.7855 30.3409C39.7855 31.2571 36.0773 31.9965 31.508 31.9965C26.9387 31.9965 23.2305 31.2571 23.2305 30.3409C23.2305 29.8442 24.3119 29.4027 26.0338 29.0992L36.9822 29.0991Z" fill="#2C2F38"/>
<path d="M31.3045 30.4792C29.9733 30.478 28.6431 30.4025 27.3203 30.2531L27.1325 30.1757L26.6911 29.9935L26.2 29.7893L26.0344 29.0995L25.6923 27.6483L25.5158 26.8979L23.9153 20.1378C23.802 19.709 23.7754 19.2619 23.8371 18.8227C23.8989 18.3836 24.0477 17.9612 24.275 17.5803C24.5022 17.1994 24.8032 16.8678 25.1603 16.6048C25.5174 16.3418 25.9234 16.1528 26.3545 16.0488C27.6084 15.8207 28.8702 16.4063 29.5056 17.511C29.7678 17.9504 29.9298 18.4422 29.98 18.9515L30.7636 26.484L30.9126 27.5821L31.3045 30.4792Z" fill="#B0D3F0"/>
<path d="M31.3022 30.4793C29.9709 30.4781 28.6408 30.4026 27.318 30.2532L27.1302 30.1758L26.6172 28.0015L26.5178 27.5822L25.0168 21.2415C24.9035 20.8128 24.8769 20.3657 24.9387 19.9265C25.0005 19.4873 25.1494 19.0649 25.3766 18.684C25.6038 18.3031 25.9047 17.9715 26.2618 17.7084C26.6189 17.4454 27.0249 17.2564 27.456 17.1523C28.1593 17.0134 28.8892 17.1413 29.5033 17.5111C29.7655 17.9505 29.9275 18.4424 29.9777 18.9516L30.7613 26.4841L30.9103 27.5822L31.3022 30.4793Z" fill="#ECF0F1"/>
<path d="M39.1001 20.1377L37.4997 26.8979L37.3231 27.6483L36.981 29.0995L36.8155 29.7893L36.3244 29.9935L35.8829 30.1757L35.6951 30.2531C34.3723 30.4025 33.0422 30.478 31.7109 30.4792L32.1029 27.5821L32.2518 26.484L33.0354 18.9515C33.0856 18.4422 33.2476 17.9504 33.5099 17.511C34.1452 16.4063 35.407 15.8207 36.6609 16.0488C37.092 16.1528 37.498 16.3418 37.8552 16.6048C38.2123 16.8678 38.5133 17.1994 38.7405 17.5803C38.9677 17.9612 39.1165 18.3836 39.1783 18.8227C39.24 19.2619 39.2135 19.7089 39.1001 20.1377Z" fill="#B0D3F0"/>
<path d="M37.9964 21.2415L36.4953 27.5822L36.3959 28.0014L35.8829 30.1757L35.6951 30.2531C34.3723 30.4025 33.0422 30.478 31.7109 30.4792L32.1029 27.5821L32.2518 26.484L33.0354 18.9515C33.0856 18.4423 33.2476 17.9504 33.5099 17.511C34.124 17.1413 34.8539 17.0134 35.5571 17.1524C35.9883 17.2564 36.3943 17.4454 36.7514 17.7085C37.1085 17.9715 37.4094 18.3032 37.6366 18.684C37.8638 19.0649 38.0127 19.4873 38.0745 19.9265C38.1362 20.3657 38.1097 20.8128 37.9964 21.2415Z" fill="#ECF0F1"/>
</g>
<defs>
<clipPath id="clip0_486_10041">
<rect width="32" height="32" fill="white" transform="translate(16 16)"/>
</clipPath>
</defs>
</svg>
