<svg width="20" height="20" viewBox="0 0 20 20" fill="none" xmlns="http://www.w3.org/2000/svg">
<path fill-rule="evenodd" clip-rule="evenodd" d="M10.0013 1.66699C5.39893 1.66699 1.66797 5.39795 1.66797 10.0003C1.66797 14.6027 5.39893 18.3337 10.0013 18.3337C14.6037 18.3337 18.3346 14.6027 18.3346 10.0003C18.3346 5.39795 14.6037 1.66699 10.0013 1.66699ZM13.8681 6.86016C14.2217 7.1548 14.2695 7.68027 13.9748 8.03383L9.80816 13.0338C9.66268 13.2084 9.45223 13.316 9.22553 13.3317C8.99883 13.3474 8.77556 13.2698 8.60741 13.117L6.10741 10.8442C5.76687 10.5346 5.74177 10.0076 6.05136 9.66706C6.36095 9.32651 6.88799 9.30141 7.22854 9.611L9.08477 11.2985L12.6945 6.96686C12.9891 6.6133 13.5146 6.56553 13.8681 6.86016Z" fill="#2A9DA0"/>
</svg>
