<svg width="18" height="18" viewBox="0 0 18 18" fill="none" xmlns="http://www.w3.org/2000/svg">
<path fill-rule="evenodd" clip-rule="evenodd" d="M13.5132 3.75C13.3178 3.75 13.1304 3.82763 12.9922 3.9658L4.8188 12.1392C4.53044 12.4276 4.32587 12.7889 4.22697 13.1845L4.03079 13.9692L4.81549 13.773C5.21112 13.6741 5.57242 13.4696 5.86078 13.1812L14.0342 5.00778C14.1026 4.93936 14.1569 4.85814 14.1939 4.76875C14.231 4.67936 14.25 4.58355 14.25 4.48679C14.25 4.39003 14.231 4.29422 14.1939 4.20483C14.1569 4.11544 14.1026 4.03422 14.0342 3.9658C13.9658 3.89738 13.8846 3.84311 13.7952 3.80608C13.7058 3.76906 13.61 3.75 13.5132 3.75ZM11.9316 2.90514C12.3511 2.48566 12.92 2.25 13.5132 2.25C13.807 2.25 14.0978 2.30786 14.3692 2.42027C14.6406 2.53268 14.8872 2.69744 15.0949 2.90514C15.3026 3.11285 15.4673 3.35943 15.5798 3.63081C15.6922 3.90219 15.75 4.19305 15.75 4.48679C15.75 4.78053 15.6922 5.07139 15.5798 5.34278C15.4673 5.61416 15.3026 5.86074 15.0949 6.06844L6.92144 14.2419C6.44084 14.7225 5.83867 15.0634 5.1793 15.2283L3.18192 15.7276C2.92634 15.7915 2.65597 15.7166 2.46969 15.5303C2.2834 15.344 2.20851 15.0737 2.27241 14.8181L2.77175 12.8207C2.9366 12.1613 3.27754 11.5592 3.75814 11.0786L11.9316 2.90514Z" fill="#595959"/>
<path fill-rule="evenodd" clip-rule="evenodd" d="M12.2188 8.03039L9.96875 5.78039L11.0294 4.71973L13.2794 6.96973L12.2188 8.03039Z" fill="#595959"/>
<path fill-rule="evenodd" clip-rule="evenodd" d="M9 15C9 14.5858 9.33579 14.25 9.75 14.25L15 14.25C15.4142 14.25 15.75 14.5858 15.75 15C15.75 15.4142 15.4142 15.75 15 15.75L9.75 15.75C9.33579 15.75 9 15.4142 9 15Z" fill="#595959"/>
</svg>
