<svg width="32" height="32" viewBox="0 0 32 32" fill="none" xmlns="http://www.w3.org/2000/svg">
<circle cx="16" cy="16" r="16" fill="#EAF5F5"/>
<path fill-rule="evenodd" clip-rule="evenodd" d="M7.66797 12.6668C7.66797 10.8259 9.16035 9.3335 11.0013 9.3335H21.0013C22.8423 9.3335 24.3346 10.8259 24.3346 12.6668V19.3335C24.3346 21.1744 22.8423 22.6668 21.0013 22.6668H11.0013C9.16035 22.6668 7.66797 21.1744 7.66797 19.3335V12.6668ZM11.0013 11.0002C10.0808 11.0002 9.33464 11.7464 9.33464 12.6668V19.3335C9.33464 20.254 10.0808 21.0002 11.0013 21.0002H21.0013C21.9218 21.0002 22.668 20.254 22.668 19.3335V12.6668C22.668 11.7464 21.9218 11.0002 21.0013 11.0002H11.0013Z" fill="#2A9DA0"/>
<path fill-rule="evenodd" clip-rule="evenodd" d="M11.1826 12.9793C11.4701 12.6199 11.9946 12.5616 12.3539 12.8491L16 15.766L19.6461 12.8491C20.0055 12.5616 20.5299 12.6199 20.8174 12.9793C21.1049 13.3387 21.0467 13.8631 20.6873 14.1506L16 17.9004L11.3128 14.1506C10.9534 13.8631 10.8951 13.3387 11.1826 12.9793Z" fill="#2A9DA0"/>
</svg>
