<svg width="20" height="20" viewBox="0 0 20 20" fill="none" xmlns="http://www.w3.org/2000/svg">
<path d="M10.2227 17.5C14.3648 17.5 17.7227 14.1421 17.7227 10C17.7227 5.85786 14.3648 2.5 10.2227 2.5C6.08052 2.5 2.72266 5.85786 2.72266 10C2.72266 14.1421 6.08052 17.5 10.2227 17.5Z" stroke="#333333" stroke-width="1.5" stroke-linecap="round" stroke-linejoin="round"/>
<path d="M10.5358 6.6665C9.1745 6.6665 8.47475 7.59525 8.33481 8.57489C8.30936 8.76573 8.46203 8.94385 8.66559 8.94385H9.18722C9.35261 8.94385 9.47984 8.82935 9.50528 8.66395C9.5689 8.295 9.7979 7.82426 10.5358 7.82426C11.1083 7.82426 11.3373 8.1296 11.4391 8.30772C11.5791 8.57489 11.5536 8.88024 11.3882 9.10924C11.2228 9.33825 11.0702 9.44003 10.892 9.56726C10.4595 9.8726 10.1032 10.1907 10.0396 11.0812C10.0269 11.2721 10.1796 11.4375 10.3704 11.4375H10.8793C11.0447 11.4375 11.1974 11.3103 11.2101 11.1321C11.2356 10.7505 11.3373 10.6741 11.5663 10.5215C11.7699 10.3815 12.0498 10.1779 12.3297 9.79626C12.7623 9.21102 12.8132 8.43495 12.4824 7.77337C12.1261 7.08635 11.3882 6.6665 10.5358 6.6665Z" fill="#333333"/>
<path d="M10.6109 13.3331C11.0044 13.3331 11.3234 13.0142 11.3234 12.6207C11.3234 12.2272 11.0044 11.9082 10.6109 11.9082C10.2174 11.9082 9.89844 12.2272 9.89844 12.6207C9.89844 13.0142 10.2174 13.3331 10.6109 13.3331Z" fill="#333333"/>
</svg>
