<svg width="24" height="24" viewBox="0 0 24 24" fill="none" xmlns="http://www.w3.org/2000/svg">
<path fill-rule="evenodd" clip-rule="evenodd" d="M14.6655 3.0407C13.1475 1.68435 10.853 1.68435 9.33509 3.0407L9.09341 3.25665C8.75562 3.55848 8.32536 3.7367 7.87308 3.76213L7.54948 3.78032C5.51704 3.89459 3.89459 5.51705 3.78032 7.54948L3.76213 7.87308C3.7367 8.32536 3.55848 8.75561 3.25665 9.09341L3.0407 9.33509C1.68435 10.853 1.68435 13.1475 3.0407 14.6655L3.25665 14.9072C3.55848 15.245 3.7367 15.6752 3.76213 16.1275L3.78032 16.4511C3.89459 18.4835 5.51705 20.106 7.54948 20.2203L7.87307 20.2384C8.32536 20.2639 8.75562 20.4421 9.09341 20.7439L9.33509 20.9599C10.853 22.3162 13.1475 22.3162 14.6655 20.9599L14.9072 20.7439C15.245 20.4421 15.6752 20.2639 16.1275 20.2384L16.4511 20.2203C18.4835 20.106 20.106 18.4835 20.2203 16.4511L20.2384 16.1275C20.2639 15.6752 20.4421 15.245 20.7439 14.9072L20.9599 14.6655C22.3162 13.1475 22.3162 10.853 20.9599 9.33509L20.7439 9.09341C20.4421 8.75562 20.2639 8.32536 20.2384 7.87307L20.2203 7.54948C20.106 5.51704 18.4835 3.89459 16.4511 3.78032L16.1275 3.76213C15.6752 3.7367 15.245 3.55848 14.9072 3.25665L14.6655 3.0407ZM15.7076 8.29314C16.0981 8.68366 16.0981 9.31683 15.7076 9.70735L9.70759 15.7074C9.31707 16.0979 8.68391 16.0979 8.29338 15.7074C7.90286 15.3168 7.90286 14.6837 8.29338 14.2931L14.2934 8.29314C14.6839 7.90261 15.3171 7.90261 15.7076 8.29314ZM16.0005 14.5002C16.0005 15.3287 15.3289 16.0002 14.5005 16.0002C13.6721 16.0002 13.0005 15.3287 13.0005 14.5002C13.0005 13.6718 13.6721 13.0002 14.5005 13.0002C15.3289 13.0002 16.0005 13.6718 16.0005 14.5002ZM9.50049 11.0002C10.3289 11.0002 11.0005 10.3287 11.0005 9.50024C11.0005 8.67182 10.3289 8.00024 9.50049 8.00024C8.67206 8.00024 8.00049 8.67182 8.00049 9.50024C8.00049 10.3287 8.67206 11.0002 9.50049 11.0002Z" fill="#FFC533"/>
</svg>
