<svg width="20" height="20" viewBox="0 0 20 20" fill="none" xmlns="http://www.w3.org/2000/svg">
<path fill-rule="evenodd" clip-rule="evenodd" d="M10.0013 8.33317C9.08083 8.33317 8.33464 9.07936 8.33464 9.99984C8.33464 10.9203 9.08083 11.6665 10.0013 11.6665C10.9218 11.6665 11.668 10.9203 11.668 9.99984C11.668 9.07936 10.9218 8.33317 10.0013 8.33317ZM6.66797 9.99984C6.66797 8.15889 8.16035 6.6665 10.0013 6.6665C11.8423 6.6665 13.3346 8.15889 13.3346 9.99984C13.3346 11.8408 11.8423 13.3332 10.0013 13.3332C8.16035 13.3332 6.66797 11.8408 6.66797 9.99984Z" fill="#333333"/>
<path fill-rule="evenodd" clip-rule="evenodd" d="M7.27512 3.78404C7.27512 2.61456 8.22317 1.6665 9.39265 1.6665H10.6082C11.7777 1.6665 12.7257 2.61456 12.7257 3.78404C12.7257 3.95352 12.8426 4.17964 13.122 4.33135C13.2079 4.37804 13.2927 4.42658 13.3762 4.47694C13.6548 4.64489 13.9163 4.63411 14.0699 4.54625C15.0897 3.96273 16.3893 4.31094 16.9808 5.32619L17.5678 6.3338C18.1604 7.351 17.8107 8.65622 16.7889 9.24086C16.6407 9.32562 16.5014 9.54121 16.5082 9.86202C16.5092 9.90786 16.5097 9.9538 16.5097 9.99984C16.5097 10.0459 16.5092 10.0918 16.5082 10.1377C16.5014 10.4585 16.6407 10.6741 16.7889 10.7588C17.8106 11.3435 18.1604 12.6487 17.5678 13.6658L16.9807 14.6735C16.3893 15.6887 15.0897 16.037 14.0699 15.4534C13.9163 15.3656 13.6548 15.3548 13.3762 15.5227C13.2927 15.5731 13.2079 15.6216 13.122 15.6683C12.8426 15.82 12.7257 16.0462 12.7257 16.2156C12.7257 17.3851 11.7777 18.3332 10.6082 18.3332H9.39265C8.22317 18.3332 7.27512 17.3851 7.27512 16.2156C7.27512 16.0462 7.15824 15.82 6.8789 15.6683C6.79294 15.6216 6.70817 15.5731 6.62464 15.5227C6.34604 15.3548 6.08452 15.3656 5.93097 15.4534C4.91114 16.0369 3.61157 15.6887 3.02012 14.6735L2.43308 13.6658C1.84049 12.6487 2.19021 11.3435 3.21199 10.7588C3.36013 10.6741 3.49941 10.4585 3.49262 10.1377C3.49165 10.0918 3.49117 10.0459 3.49117 9.99984C3.49117 9.9538 3.49165 9.90786 3.49262 9.86203C3.49941 9.54122 3.36012 9.32563 3.21197 9.24087C2.19018 8.65623 1.84046 7.35101 2.43306 6.33381L3.02008 5.32619C3.61154 4.31094 4.91111 3.96274 5.93095 4.54625C6.0845 4.63411 6.34603 4.64489 6.62463 4.47694C6.70817 4.42659 6.79294 4.37804 6.8789 4.33135C7.15824 4.17964 7.27512 3.95352 7.27512 3.78404ZM9.39265 3.33317C9.14364 3.33317 8.94178 3.53503 8.94178 3.78404C8.94178 4.70574 8.35389 5.42689 7.67433 5.79596C7.61036 5.8307 7.54727 5.86683 7.48509 5.90431C6.8222 6.30392 5.90386 6.45096 5.10324 5.99286C4.87794 5.86396 4.59084 5.94088 4.46018 6.16516L3.87316 7.17278C3.74648 7.39024 3.82124 7.66927 4.03968 7.79426C4.84161 8.25309 5.17528 9.12374 5.15892 9.89728C5.1582 9.93136 5.15783 9.96555 5.15783 9.99984C5.15783 10.0341 5.1582 10.0683 5.15892 10.1024C5.17528 10.876 4.84161 11.7466 4.0397 12.2054C3.82127 12.3304 3.74651 12.6094 3.87319 12.8269L4.46022 13.8345C4.59088 14.0588 4.87797 14.1357 5.10326 14.0068C5.90388 13.5487 6.82221 13.6958 7.4851 14.0954C7.54728 14.1328 7.61037 14.169 7.67433 14.2037C8.35389 14.5728 8.94178 15.2939 8.94178 16.2156C8.94178 16.4646 9.14364 16.6665 9.39265 16.6665H10.6082C10.8572 16.6665 11.0591 16.4646 11.0591 16.2156C11.0591 15.2939 11.647 14.5728 12.3265 14.2037C12.3905 14.169 12.4536 14.1329 12.5157 14.0954C13.1786 13.6958 14.097 13.5487 14.8976 14.0068C15.1229 14.1357 15.41 14.0588 15.5406 13.8345L16.1277 12.8269C16.2543 12.6094 16.1796 12.3304 15.9612 12.2054C15.1592 11.7466 14.8256 10.876 14.8419 10.1024C14.8427 10.0683 14.843 10.0341 14.843 9.99984C14.843 9.96555 14.8427 9.93136 14.8419 9.89727C14.8256 9.12373 15.1592 8.25308 15.9612 7.79425C16.1796 7.66926 16.2544 7.39023 16.1277 7.17278L15.5407 6.16516C15.41 5.94087 15.1229 5.86395 14.8976 5.99286C14.097 6.45095 13.1786 6.30392 12.5157 5.90431C12.4536 5.86683 12.3905 5.8307 12.3265 5.79596C11.647 5.42689 11.0591 4.70574 11.0591 3.78404C11.0591 3.53503 10.8572 3.33317 10.6082 3.33317H9.39265Z" fill="#333333"/>
</svg>
